<svg id="fastcomet-logo" xmlns="http://www.w3.org/2000/svg" viewBox="0 0 150 18.04" width="155" height="50">
  <title>fastcomet-logo-white</title>
  <path d="M150,.7l-.48,2.73a.82.82,0,0,1-.29.49.8.8,0,0,1-.53.21h-4.54l-2.33,13.21a.82.82,0,0,1-.29.49A.8.8,0,0,1,141,18h-3.38a.56.56,0,0,1-.45-.21.57.57,0,0,1-.12-.49l2.33-13.21h-4.54a.56.56,0,0,1-.45-.21.57.57,0,0,1-.12-.49L134.75.7A.82.82,0,0,1,135,.21a.8.8,0,0,1,.53-.21h13.85a.56.56,0,0,1,.45.21A.58.58,0,0,1,150,.7ZM133.13,3.43a.82.82,0,0,1-.29.49.8.8,0,0,1-.53.21h-7.94l-.49,2.78h7.37a.56.56,0,0,1,.45.21.58.58,0,0,1,.12.49l-.48,2.73a.82.82,0,0,1-.29.49.8.8,0,0,1-.53.21h-7.37l-.51,2.89h8.14a.56.56,0,0,1,.45.21.58.58,0,0,1,.12.49l-.48,2.73a.82.82,0,0,1-.29.49.8.8,0,0,1-.53.21H117.85a.56.56,0,0,1-.45-.21.57.57,0,0,1-.12-.49L120.21.7a.82.82,0,0,1,.29-.49A.8.8,0,0,1,121,0h12a.56.56,0,0,1,.45.21.58.58,0,0,1,.12.49ZM114.7,17.32a.82.82,0,0,1-.29.49.79.79,0,0,1-.53.21h-3.37a.56.56,0,0,1-.45-.21.57.57,0,0,1-.12-.49l1.5-8.52L108.27,13a3.18,3.18,0,0,1-.42.42,1,1,0,0,1-.64.22h-1.65a.69.69,0,0,1-.57-.22,1.88,1.88,0,0,1-.27-.42L103,8.8l-1.5,8.52a.82.82,0,0,1-.29.49.8.8,0,0,1-.53.21H97.36a.56.56,0,0,1-.45-.21.57.57,0,0,1-.12-.49L99.72.7A.82.82,0,0,1,100,.21a.8.8,0,0,1,.53-.21h3a.84.84,0,0,1,.72.28,2.51,2.51,0,0,1,.26.41l2.91,7.13L112.84.7a4.13,4.13,0,0,1,.41-.41,1.17,1.17,0,0,1,.82-.28h3a.56.56,0,0,1,.45.21.58.58,0,0,1,.12.49ZM96.32,9c-.14.81-.24,1.29-.4,2a9.08,9.08,0,0,1-1.11,2.72,8.57,8.57,0,0,1-2,2.23,9.08,9.08,0,0,1-2.75,1.49,10.47,10.47,0,0,1-3.44.54,8.83,8.83,0,0,1-3.26-.54A5.73,5.73,0,0,1,81.18,16,5.27,5.27,0,0,1,80,13.74,7.24,7.24,0,0,1,79.85,11c.09-.7.16-1.18.3-2s.25-1.31.41-2a9.08,9.08,0,0,1,1.11-2.72,8.4,8.4,0,0,1,2-2.21A9.47,9.47,0,0,1,86.37.57,10.24,10.24,0,0,1,89.83,0a8.65,8.65,0,0,1,3.25.55,6,6,0,0,1,2.22,1.49,5.17,5.17,0,0,1,1.18,2.21A7.25,7.25,0,0,1,96.63,7C96.53,7.73,96.46,8.23,96.32,9Zm-4.54-3.1a2.15,2.15,0,0,0-1.33-1.57,3.49,3.49,0,0,0-1.35-.23,4.14,4.14,0,0,0-1.43.23,3.52,3.52,0,0,0-1.89,1.57,4.63,4.63,0,0,0-.48,1.18q-.13.44-.24,1c-.07.37-.1.48-.17.87s-.09.51-.14.88-.1.72-.12,1A3,3,0,0,0,85.15,13a2.62,2.62,0,0,0,2.23.85A3.57,3.57,0,0,0,89.9,13a4.45,4.45,0,0,0,1.28-2.14l.23-1c.08-.38.11-.49.18-.88s.08-.5.13-.87.09-.7.12-1A3.72,3.72,0,0,0,91.78,5.94Zm-12.37.81a.65.65,0,0,1-.43.17H75.61q-.44,0-.56-.17a1.3,1.3,0,0,1-.18-.58,3.71,3.71,0,0,0-.18-.67,1.71,1.71,0,0,0-.44-.66,2.52,2.52,0,0,0-.84-.5A4,4,0,0,0,72,4.14a4.2,4.2,0,0,0-1.51.24A3.51,3.51,0,0,0,69.41,5a3.26,3.26,0,0,0-.73,1,5.64,5.64,0,0,0-.43,1.13q-.08.33-.2.93c-.08.39-.11.53-.18.95s-.09.56-.16,1-.11.72-.13.94a4.61,4.61,0,0,0,0,1.13,2.07,2.07,0,0,0,.4,1,2.16,2.16,0,0,0,.86.66,3.52,3.52,0,0,0,1.42.24,4.6,4.6,0,0,0,1.48-.21,3.9,3.9,0,0,0,1-.5,2.84,2.84,0,0,0,.67-.66,5.41,5.41,0,0,0,.41-.67,2,2,0,0,1,.39-.58.92.92,0,0,1,.62-.17h3.37a.45.45,0,0,1,.37.17.47.47,0,0,1,.1.4,6.35,6.35,0,0,1-1.08,2.47,8.2,8.2,0,0,1-2.05,2,10.65,10.65,0,0,1-2.77,1.35,10.41,10.41,0,0,1-3.24.5,8.47,8.47,0,0,1-3.21-.55,6,6,0,0,1-2.22-1.51,5.2,5.2,0,0,1-1.19-2.23A7.19,7.19,0,0,1,62.79,11c.09-.7.16-1.18.3-2s.25-1.31.41-2A8.37,8.37,0,0,1,64.59,4.3a8.77,8.77,0,0,1,2-2.23A9.3,9.3,0,0,1,69.32.57,10.19,10.19,0,0,1,72.74,0a8.83,8.83,0,0,1,3.06.5,6.89,6.89,0,0,1,2.3,1.35,4.89,4.89,0,0,1,1.55,4.48A.67.67,0,0,1,79.41,6.75ZM63.8,3.43a.82.82,0,0,1-.29.49.8.8,0,0,1-.53.21H58.45L56.12,17.34a.82.82,0,0,1-.29.49.8.8,0,0,1-.53.21H51.92a.56.56,0,0,1-.45-.21.57.57,0,0,1-.12-.49L53.67,4.13H49.13a.56.56,0,0,1-.45-.21.57.57,0,0,1-.12-.49L49,.7a.82.82,0,0,1,.29-.49A.8.8,0,0,1,49.86,0H63.71a.56.56,0,0,1,.45.21.58.58,0,0,1,.12.49ZM47.44,5.33a.62.62,0,0,1-.4.16H43.67a1.27,1.27,0,0,1-.56-.1,1.49,1.49,0,0,1-.4-.3l-.2-.25a1.82,1.82,0,0,0-.41-.36,2.71,2.71,0,0,0-.71-.33A3.76,3.76,0,0,0,40.28,4a7.07,7.07,0,0,0-.95.06,3.92,3.92,0,0,0-.83.2,1.83,1.83,0,0,0-.63.39,1.11,1.11,0,0,0-.33.63.75.75,0,0,0,.13.63,1.77,1.77,0,0,0,.74.46,9.84,9.84,0,0,0,1.46.41l2.28.48a11.75,11.75,0,0,1,2.34.7A4.64,4.64,0,0,1,46.06,9a3.2,3.2,0,0,1,.79,1.5,5.23,5.23,0,0,1,0,2,5.17,5.17,0,0,1-1,2.28,6.9,6.9,0,0,1-2,1.72,9.85,9.85,0,0,1-2.71,1.09,13.44,13.44,0,0,1-3.24.38,9.85,9.85,0,0,1-3.11-.45,7.11,7.11,0,0,1-2.27-1.19,4.67,4.67,0,0,1-1.34-1.67,3.25,3.25,0,0,1-.29-1.88.64.64,0,0,1,.24-.39.62.62,0,0,1,.4-.16h3.36a1.36,1.36,0,0,1,.55.09,1.28,1.28,0,0,1,.36.26l.25.33a2.45,2.45,0,0,0,.47.46,2.82,2.82,0,0,0,.8.41,3.85,3.85,0,0,0,1.27.18A8.18,8.18,0,0,0,41,13.74a1.36,1.36,0,0,0,1.1-1,.63.63,0,0,0-.22-.63,2.82,2.82,0,0,0-.92-.46,13.66,13.66,0,0,0-1.64-.41l-2.36-.5a5.87,5.87,0,0,1-3.54-1.84,4.23,4.23,0,0,1-.61-3.44,5.18,5.18,0,0,1,.86-2.05,6.82,6.82,0,0,1,1.76-1.73A9,9,0,0,1,37.9.44,10.49,10.49,0,0,1,41,0a8.67,8.67,0,0,1,2.94.46,7.12,7.12,0,0,1,2.17,1.19,4.69,4.69,0,0,1,1.28,1.6,2.93,2.93,0,0,1,.29,1.68A.64.64,0,0,1,47.44,5.33ZM30.27,17.87a.65.65,0,0,1-.43.17H26.6a.87.87,0,0,1-.7-.22.77.77,0,0,1-.2-.43l-.34-2.14H18.52l-1.1,2.14a1.22,1.22,0,0,1-.35.43,1.17,1.17,0,0,1-.77.22H13.05a.45.45,0,0,1-.37-.17.47.47,0,0,1-.1-.4,1.37,1.37,0,0,1,.17-.39L21.23.86a2.13,2.13,0,0,1,.47-.57A1.21,1.21,0,0,1,22.54,0h4.17a.88.88,0,0,1,.74.28,1.33,1.33,0,0,1,.27.57l2.75,16.23a1.08,1.08,0,0,1,0,.39A.67.67,0,0,1,30.27,17.87ZM23.73,5.08l-3.18,6.18h4.17ZM17.12,3.4a.83.83,0,0,1-.3.5.81.81,0,0,1-.53.21H3.06a.56.56,0,0,1-.46-.21.59.59,0,0,1-.12-.5L2.95.71a.84.84,0,0,1,.3-.5A.81.81,0,0,1,3.78,0H17a.57.57,0,0,1,.46.21.59.59,0,0,1,.12.5ZM10.86,9.71H7.68a.56.56,0,0,1-.46-.21A.59.59,0,0,1,7.1,9l.47-2.68a.84.84,0,0,1,.3-.5.81.81,0,0,1,.53-.21h6a.56.56,0,0,1,.46.21.59.59,0,0,1,.12.5L14.55,9a.83.83,0,0,1-.3.5.8.8,0,0,1-.53.21H10.86ZM2.78,5.61H5.48a.57.57,0,0,1,.46.21.58.58,0,0,1,.12.49L5.2,11.18h6.59a.57.57,0,0,1,.46.21.59.59,0,0,1,.12.5l-.47,2.68a.83.83,0,0,1-.3.5.81.81,0,0,1-.53.21H4.48l-.36,2.06a.82.82,0,0,1-.29.49.81.81,0,0,1-.53.21H.6a.56.56,0,0,1-.46-.21A.58.58,0,0,1,0,17.34l.52-3L.6,14,2,6.31a.82.82,0,0,1,.29-.49A.81.81,0,0,1,2.78,5.61Z" transform="translate(0 0)" style="fill: #fff;fill-rule: evenodd"/>
</svg>
