<?xml version="1.0" standalone="no"?>
<!DOCTYPE svg PUBLIC "-//W3C//DTD SVG 20010904//EN"
 "http://www.w3.org/TR/2001/REC-SVG-20010904/DTD/svg10.dtd">
<svg version="1.0" xmlns="http://www.w3.org/2000/svg"
 width="700.000000pt" height="700.000000pt" viewBox="0 0 700.000000 700.000000"
 preserveAspectRatio="xMidYMid meet">
<metadata>
Created by potrace 1.11, written by Peter Selinger 2001-2013
</metadata>
<g transform="translate(0.000000,700.000000) scale(0.100000,-0.100000)"
fill="#000000" stroke="none">
<path d="M1887 6246 c-74 -27 -144 -97 -165 -166 -9 -28 -71 -357 -87 -460 -2
-14 -19 -113 -38 -220 -19 -107 -33 -214 -32 -238 2 -49 41 -105 95 -136 33
-19 73 -20 2079 -20 1125 -1 2068 3 2095 7 54 9 119 49 159 96 34 41 51 98 82
271 14 80 27 156 29 170 23 129 57 319 60 335 5 27 14 81 22 130 17 100 -6
169 -73 215 l-37 25 -2075 2 c-1713 2 -2083 0 -2114 -11z"/>
<path d="M1620 4540 c-55 -10 -106 -39 -146 -82 -54 -60 -64 -90 -100 -313 -2
-16 -16 -93 -30 -170 -14 -77 -28 -151 -29 -165 -2 -14 -24 -140 -49 -280 -25
-140 -48 -268 -51 -285 -3 -16 -7 -39 -10 -50 -2 -11 -7 -42 -11 -70 -3 -27
-8 -53 -10 -56 -1 -3 -6 -28 -10 -55 -3 -27 -8 -58 -10 -69 -10 -51 -34 -183
-39 -215 -3 -19 -10 -60 -16 -90 -11 -59 -14 -73 -23 -135 -4 -22 -9 -51 -12
-65 -2 -14 -6 -36 -9 -50 -3 -13 -7 -42 -10 -65 -3 -22 -8 -47 -11 -56 -3 -10
-6 -30 -8 -45 -3 -16 -32 -186 -66 -379 -33 -192 -63 -361 -65 -375 -3 -14 -7
-36 -10 -50 -2 -13 -7 -42 -11 -64 -3 -22 -7 -43 -9 -46 -1 -3 -6 -27 -9 -55
-4 -27 -9 -57 -11 -65 -10 -37 -45 -251 -45 -280 0 -35 29 -97 57 -122 49 -45
65 -46 528 -46 242 0 456 4 477 9 55 14 129 69 160 119 22 36 34 83 62 240 45
257 43 241 61 350 8 52 18 103 21 112 5 16 68 18 1029 17 789 0 1033 3 1065
12 50 15 131 85 154 133 14 30 37 128 50 211 2 17 13 82 25 145 25 144 48 271
67 380 8 47 18 99 21 115 24 111 -11 200 -92 236 -43 19 -76 20 -1070 20
l-1026 0 5 27 c3 15 15 83 26 152 12 69 29 170 40 225 10 55 21 118 24 140 6
42 8 52 25 140 6 28 12 64 15 80 3 24 49 289 71 415 34 190 55 310 58 330 9
61 -37 145 -96 177 -29 16 -76 17 -472 18 -242 0 -456 -2 -475 -5z"/>
<path d="M3333 4538 c-76 -13 -146 -66 -184 -139 -17 -35 -42 -147 -63 -284
-7 -47 -17 -102 -23 -130 -2 -11 -6 -31 -8 -45 -2 -14 -13 -79 -25 -145 -11
-66 -23 -133 -26 -149 -3 -16 -6 -32 -8 -35 -2 -3 -7 -35 -11 -71 -4 -36 -9
-68 -11 -71 -7 -11 15 -72 38 -105 13 -19 42 -43 66 -54 42 -20 60 -20 997
-20 801 1 963 3 1004 15 87 26 171 121 184 210 7 46 17 103 32 180 8 39 16 88
19 110 4 22 13 76 21 120 8 44 17 94 20 110 13 75 25 142 30 170 25 138 28
175 16 214 -13 44 -59 97 -100 114 -30 12 -1898 17 -1968 5z"/>
</g>
</svg>
