<?xml version="1.0" standalone="no"?>
<!DOCTYPE svg PUBLIC "-//W3C//DTD SVG 1.1//EN" "http://www.w3.org/Graphics/SVG/1.1/DTD/svg11.dtd" >
<svg xmlns="http://www.w3.org/2000/svg" xmlns:xlink="http://www.w3.org/1999/xlink" version="1.1">
<metadata>
Created by FontForge 20170731 at Wed Oct 10 16:29:07 2007
 By ,,,
(C)2007 House Industries/Brand Design Co., Inc. All Rights Reserved.
</metadata>
<defs>
<font id="Neutraface2Display-Inline" horiz-adv-x="782" >
  <font-face 
    font-family="Neutraface 2 Display Inline"
    font-weight="1000"
    font-stretch="normal"
    units-per-em="1000"
    panose-1="2 0 6 0 4 0 0 2 0 4"
    ascent="780"
    descent="-220"
    x-height="680"
    cap-height="680"
    bbox="-45 -267 1152 944"
    underline-thickness="20"
    underline-position="-173"
    unicode-range="U+0020-FB02"
  />
<missing-glyph horiz-adv-x="500" 
 />
    <glyph glyph-name=".notdef" horiz-adv-x="500" 
 />
    <glyph glyph-name=".null" horiz-adv-x="0" 
 />
    <glyph glyph-name="nonmarkingreturn" horiz-adv-x="333" 
 />
    <glyph glyph-name="space" unicode=" " horiz-adv-x="242" 
 />
    <glyph glyph-name="exclam" unicode="!" horiz-adv-x="302" 
d="M225 220h-65v460h85zM77 220l-20 460h85v-460h-65zM151 -7q-37 0 -64 25t-27 64t27 64t64 25t64 -25t27 -64t-27 -64t-64 -25zM138 82q0 -13 13 -13t13 13t-13 13t-13 -13z" />
    <glyph glyph-name="quotedbl" unicode="&#x22;" horiz-adv-x="438" 
d="M183 443h-61v237h80zM43 443l-19 237h80v-237h-61zM395 443h-61v237h80zM255 443l-19 237h80v-237h-61z" />
    <glyph glyph-name="numbersign" unicode="#" horiz-adv-x="512" 
d="M54 475v88h97l27 117h98l-27 -117h72l27 117h98l-27 -117h61v-88h-81l-18 -77h77v-88h-97l-26 -117h-98l26 117h-72l-26 -117h-98l26 117h-61v88h81l18 77h-77zM229 475l-18 -77h72l18 77h-72z" />
    <glyph glyph-name="dollar" unicode="$" horiz-adv-x="591" 
d="M261 -9q-86 6 -149.5 42.5t-99.5 87.5l58 44q34 -47 90 -78.5t130 -31.5q94 0 145 35t51 100q0 53 -33 88.5t-109 61.5l-98 33q-55 19 -81.5 46t-26.5 73q0 55 44 84.5t109 29.5q105 0 167 -74l-45 -45q-38 41 -79 50v-119l33 -11q109 -38 152.5 -89.5t43.5 -130.5
q0 -84 -60.5 -135.5t-168.5 -59.5v-108h-73v107zM290 73q-130 0 -206 102l57 43q48 -67 120 -78v133l-46 15q-83 28 -126.5 76t-43.5 126q0 89 63.5 139.5t152.5 57.5v86h73v-88q120 -14 181 -94l-44 -45q-66 78 -180 78q-73 0 -122 -34t-49 -98q0 -52 30.5 -84t91.5 -53
l98 -33q72 -24 100 -54.5t28 -77.5q0 -56 -46.5 -86.5t-131.5 -30.5zM334 248v-107q57 11 57 52q0 19 -13 31.5t-44 23.5zM261 538q-48 -9 -48 -45q0 -18 10.5 -28.5t37.5 -20.5v94z" />
    <glyph glyph-name="percent" unicode="%" horiz-adv-x="806" 
d="M200 414q47 0 79.5 31.5t32.5 77.5q0 47 -32 78t-80 31t-80.5 -31t-32.5 -78q0 -46 33 -77.5t80 -31.5zM200 432q-40 0 -67.5 26t-27.5 65t27.5 65t67.5 26t67 -26t27 -65t-27 -65t-67 -26zM200 356q-73 0 -124.5 48.5t-51.5 118.5q0 71 51.5 118.5t124.5 47.5t124 -47.5
t51 -118.5q0 -70 -51 -118.5t-124 -48.5zM200 489q14 0 22.5 9t8.5 25q0 15 -8.5 24t-22.5 9t-23 -9t-9 -24q0 -16 9 -25t23 -9zM272 0h-74l429 680h74zM106 0l429 680h73l-429 -680h-73zM607 49q47 0 79.5 31.5t32.5 77.5q0 47 -32 78t-80 31t-80.5 -31t-32.5 -78
q0 -46 33 -77.5t80 -31.5zM607 67q-40 0 -67.5 26t-27.5 65t27.5 65t67.5 26t67 -26t27 -65t-27 -65t-67 -26zM607 -9q-73 0 -124.5 48.5t-51.5 118.5q0 71 51.5 118.5t124.5 47.5t124 -47.5t51 -118.5q0 -70 -51 -118.5t-124 -48.5zM607 124q14 0 22.5 9t8.5 25
q0 15 -8.5 24t-22.5 9t-23 -9t-9 -24q0 -16 9 -25t23 -9z" />
    <glyph glyph-name="ampersand" unicode="&#x26;" horiz-adv-x="689" 
d="M394 364l79 -100q19 42 22 91h72q-7 -129 -95 -207l-176 224q80 35 114.5 68t34.5 84q0 48 -32 78t-84 30q-54 0 -90 -30.5t-36 -80.5q0 -60 52 -126l14 -18q-89 -38 -128 -76t-39 -102q0 -67 50.5 -106t134.5 -39q98 0 181 69l98 -123h-94l-25 31q-76 -41 -167 -41
q-116 0 -189 54t-73 146q0 72 37 116.5t114 81.5q-42 69 -42 134q0 75 55.5 120.5t143.5 45.5q87 0 139 -41.5t52 -112.5q0 -56 -29.5 -95.5t-93.5 -74.5zM287 72q-76 0 -121.5 34.5t-45.5 92.5t37 94t122 71l178 -227q-79 -65 -170 -65zM221 521q0 42 30.5 67.5t77.5 25.5
q45 0 71.5 -25t26.5 -65q0 -45 -32.5 -75t-108.5 -64l-17 22q-48 65 -48 114zM483 134q43 38 70.5 95.5t31.5 125.5h72q-4 -127 -80 -221l106 -134h-94zM356 147l-111 140q-41 -31 -41 -79q0 -73 89 -73q31 0 63 12zM319 461q38 24 38 55q0 34 -29 34q-33 0 -33 -32
q0 -26 24 -57z" />
    <glyph glyph-name="quotesingle" unicode="'" horiz-adv-x="226" 
d="M183 443h-61v237h80zM43 443l-19 237h80v-237h-61z" />
    <glyph glyph-name="parenleft" unicode="(" horiz-adv-x="351" 
d="M229 -62q-193 159 -193 403t193 403l45 -36q-71 -73 -113 -159.5t-42 -207.5q0 -209 156 -369zM137 341q0 204 151 357l46 -36q-59 -73 -87 -145.5t-28 -175.5t29.5 -176.5t88.5 -147.5l-48 -35q-152 154 -152 359z" />
    <glyph glyph-name="parenright" unicode=")" horiz-adv-x="351" 
d="M122 -62l-46 34q156 160 156 369q0 121 -42 207.5t-113 159.5l45 36q193 -159 193 -403t-193 -403zM214 341q0 -205 -152 -359l-48 35q59 74 88.5 147.5t29.5 176.5t-28 175.5t-87 145.5l46 36q151 -153 151 -357z" />
    <glyph glyph-name="asterisk" unicode="*" horiz-adv-x="403" 
d="M393 490l-35 -59l-137 77l138 78l35 -58l-81 -20zM259 602l57 59l34 -59l-136 -80l1 158h68zM129 680h68l1 -158l-136 80l35 59l54 -58zM100 508l-81 20l34 58l138 -78l-137 -77l-34 59zM283 338h-68l-1 157l135 -79l-34 -59l-56 57zM98 357l-35 58l135 79l-1 -156h-68
l23 75z" />
    <glyph glyph-name="plus" unicode="+" horiz-adv-x="423" 
d="M396 403v-66h-176v183h70v-117h106zM290 254v-117h-70v182h176v-65h-106zM133 403v117h69v-183h-175v66h106zM133 254h-106v65h175v-182h-69v117z" />
    <glyph glyph-name="comma" unicode="," horiz-adv-x="254" 
d="M51 -103l33 108q-21 8 -34.5 30t-13.5 50q0 38 26.5 62t62.5 24q39 0 66 -24t27 -62q0 -37 -35 -94l-58 -94h-74zM113 82q0 -6 4.5 -10t9.5 -4t9.5 4t4.5 10t-4.5 10t-9.5 4t-9.5 -4t-4.5 -10z" />
    <glyph glyph-name="hyphen" unicode="-" horiz-adv-x="316" 
d="M280 359v-64h-244v64h244zM36 214v63h244v-63h-244z" />
    <glyph glyph-name="period" unicode="." horiz-adv-x="254" 
d="M127 -7q-37 0 -64 25t-27 64t27 64t64 25t64 -25t27 -64t-27 -64t-64 -25zM113 82q0 -6 4.5 -10t9.5 -4t9.5 4t4.5 10t-4.5 10t-9.5 4t-9.5 -4t-4.5 -10z" />
    <glyph glyph-name="slash" unicode="/" horiz-adv-x="491" 
d="M185 0h-74l287 680h74zM19 0l287 680h73l-287 -680h-73z" />
    <glyph glyph-name="zero" unicode="0" horiz-adv-x="688" 
d="M344 61q103 0 167.5 74t64.5 206q0 131 -64.5 204t-167.5 73q-102 0 -167 -73t-65 -204t65 -205.5t167 -74.5zM344 79q-94 0 -154 69.5t-60 192.5q0 122 60 190.5t154 68.5q95 0 154.5 -68.5t59.5 -190.5q0 -123 -59.5 -192.5t-154.5 -69.5zM344 -9q-136 0 -226 92.5
t-90 257.5t89.5 256t226.5 91t226.5 -91t89.5 -256t-90 -257.5t-226 -92.5zM344 149q61 0 95.5 51t34.5 140t-34.5 139.5t-95.5 50.5t-95.5 -50.5t-34.5 -139.5t34.5 -140t95.5 -51z" />
    <glyph glyph-name="one" unicode="1" horiz-adv-x="367" 
d="M218 613h-197v67h279v-680h-82v613zM118 0v527h-97v68h179v-595h-82z" />
    <glyph glyph-name="two" unicode="2" horiz-adv-x="579" 
d="M12 0q-7 0 -8 4t5 10l294 314q34 38 51.5 67t17.5 62q0 34 -22 55t-59 21q-39 0 -67.5 -28.5t-35.5 -76.5l-73 21q16 73 63 113t116 40q70 0 114 -37.5t44 -99.5q0 -77 -88 -170l-215 -229h396v-66h-533zM294 620q-75 0 -127 -43.5t-70 -122.5l-72 22q23 101 94 156.5
t177 55.5q111 0 182 -59t71 -157q0 -60 -28 -112t-83 -110l-95 -101h202v-65h-355l188 199q45 48 68.5 90t23.5 92q0 69 -49.5 112t-126.5 43z" />
    <glyph glyph-name="three" unicode="3" horiz-adv-x="605" 
d="M296 -10q-102 0 -176.5 44.5t-109.5 114.5l67 34q28 -55 83 -90t130 -35q95 0 150.5 48.5t55.5 128.5q0 61 -32.5 100.5t-73.5 53t-84 11.5l155 213h-388v67h501q9 0 3 -8l-168 -228q73 -14 121.5 -67.5t48.5 -145.5q0 -108 -77 -174.5t-206 -66.5zM290 76
q-70 0 -121 32.5t-77 82.5l67 35q38 -82 125 -82q52 0 81.5 25.5t29.5 69.5q0 91 -119 91q-60 0 -101 -13q-7 -2 -11 1t1 10l139 199h-231v68h354l-152 -211q55 4 99 -7.5t74 -47.5t30 -94q0 -72 -51 -115.5t-137 -43.5z" />
    <glyph glyph-name="four" unicode="4" horiz-adv-x="653" 
d="M446 647v-448h-363zM59 198v-17h387v-181h-78v118h-362v118l354 444h88zM620 262v-63h-156v481h78v-418h78zM542 118v-118h-78v181h156v-63h-78zM368 262v188l-149 -188h149z" />
    <glyph glyph-name="five" unicode="5" horiz-adv-x="593" 
d="M282 -10q-97 0 -167.5 40t-104.5 106l65 36q63 -113 204 -113q92 0 148 47t56 128q0 80 -54 125.5t-152 45.5q-65 0 -120 -20v210h344v-68h-279v-72q26 10 77 10q128 0 198 -63.5t70 -167.5q0 -111 -78 -177.5t-207 -66.5zM279 77q-133 0 -188 104l65 36q16 -28 46.5 -50
t73.5 -22q47 0 76 23t29 65q0 94 -126 94q-90 0 -167 -50q-15 -10 -15 5v398h428v-67h-362v-255q58 30 138 30q89 0 138.5 -41.5t49.5 -112.5q0 -72 -50.5 -114.5t-135.5 -42.5z" />
    <glyph glyph-name="six" unicode="6" horiz-adv-x="612" 
d="M461 680l-144 -205q122 10 196.5 -61t74.5 -172q0 -108 -80.5 -180t-202.5 -72q-119 0 -199 71.5t-80 176.5q0 61 18.5 109t72.5 126l145 207h90l-171 -244q-76 -110 -76 -196q0 -77 57 -131t143 -54q88 0 145 54t57 133q0 76 -53 129t-147 53q-101 0 -157 -67
q10 19 45 69l177 254h89zM305 73q-79 0 -130.5 48.5t-51.5 118.5q0 26 9 52.5t28 53t57.5 43.5t89.5 17q85 0 133.5 -48t48.5 -116q0 -71 -52 -120t-132 -49zM304 138q47 0 75 30t28 72q0 43 -27.5 72.5t-75.5 29.5q-47 0 -75 -29t-28 -73q0 -42 28.5 -72t74.5 -30z" />
    <glyph glyph-name="seven" unicode="7" horiz-adv-x="586" 
d="M467 613h-442v67h550q8 0 3 -11l-307 -669h-86zM79 0l244 527h-298v68h414l-274 -595h-86z" />
    <glyph glyph-name="eight" unicode="8" horiz-adv-x="588" 
d="M295 436q30 0 47.5 18.5t17.5 42.5t-17 42t-48 18t-49 -18t-18 -42t18 -42.5t49 -18.5zM295 130q46 0 71.5 25t25.5 64q0 38 -25.5 62.5t-71.5 24.5t-72.5 -24.5t-26.5 -62.5q0 -40 26 -64.5t73 -24.5zM295 -10q-126 0 -198.5 62t-72.5 154q0 122 115 176q-68 51 -68 131
q0 75 61.5 125t162.5 50t162 -50t61 -125q0 -79 -69 -131q54 -25 84.5 -70.5t30.5 -105.5q0 -92 -71.5 -154t-197.5 -62zM295 51q90 0 141.5 48t51.5 120q0 63 -39.5 103.5t-106.5 51.5q46 13 76.5 45.5t30.5 79.5q0 56 -42 94.5t-112 38.5q-71 0 -113 -38.5t-42 -94.5
q0 -47 30 -79.5t76 -45.5q-67 -11 -106 -51.5t-39 -103.5q0 -73 51.5 -120.5t142.5 -47.5zM295 69q-82 0 -129 42.5t-47 107.5q0 66 49 105.5t127 39.5t126.5 -39.5t48.5 -105.5q0 -64 -46.5 -107t-128.5 -43zM295 382q-54 0 -95.5 32.5t-41.5 84.5q0 48 37.5 81.5
t99.5 33.5q61 0 98.5 -33.5t37.5 -81.5q0 -51 -41.5 -84t-94.5 -33z" />
    <glyph glyph-name="nine" unicode="9" horiz-adv-x="612" 
d="M135 0l150 202q-119 -4 -190 66t-71 170q0 108 80.5 180t202.5 72q119 0 199 -71.5t80 -176.5q0 -60 -20.5 -107.5t-78.5 -127.5l-153 -207h-90l180 244q83 114 83 196q0 77 -57 131t-143 54q-88 0 -145 -54t-57 -133q0 -76 53 -128t147 -52q99 0 150 61q-9 -16 -45 -65
l-186 -254h-89zM307 607q79 0 130.5 -48.5t51.5 -118.5q0 -26 -9 -52t-28 -52.5t-57.5 -43t-89.5 -16.5q-85 0 -133.5 47t-48.5 115q0 71 52 120t132 49zM308 542q-47 0 -75 -30t-28 -72q0 -43 27.5 -72.5t75.5 -29.5q47 0 75 29t28 73q0 42 -28.5 72t-74.5 30z" />
    <glyph glyph-name="colon" unicode=":" horiz-adv-x="260" 
d="M130 -7q-37 0 -64 25t-27 64t27 64t64 25t64 -25t27 -64t-27 -64t-64 -25zM130 270q-37 0 -64 25t-27 64t27 64t64 25t64 -25t27 -64t-27 -64t-64 -25zM116 359q0 -6 4.5 -10t9.5 -4t9.5 4t4.5 10t-4.5 10t-9.5 4t-9.5 -4t-4.5 -10zM116 82q0 -6 4.5 -10t9.5 -4t9.5 4
t4.5 10t-4.5 10t-9.5 4t-9.5 -4t-4.5 -10z" />
    <glyph glyph-name="semicolon" unicode=";" horiz-adv-x="260" 
d="M130 270q-37 0 -64 25t-27 64t27 64t64 25t64 -25t27 -64t-27 -64t-64 -25zM54 -103l33 108q-21 8 -34.5 30t-13.5 50q0 38 26.5 62t62.5 24q39 0 66 -24t27 -62q0 -37 -35 -94l-58 -94h-74zM116 82q0 -6 4.5 -10t9.5 -4t9.5 4t4.5 10t-4.5 10t-9.5 4t-9.5 -4t-4.5 -10z
M116 359q0 -6 4.5 -10t9.5 -4t9.5 4t4.5 10t-4.5 10t-9.5 4t-9.5 -4t-4.5 -10z" />
    <glyph glyph-name="less" unicode="&#x3c;" horiz-adv-x="418" 
d="M391 96l-364 210q-14 8 0 16l364 210v-74l-258 -144l258 -143v-75zM391 265v-74l-221 123l221 124v-75l-102 -49z" />
    <glyph glyph-name="equal" unicode="=" horiz-adv-x="423" 
d="M396 494v-67h-369v67h369zM396 294v-67h-369v67h369zM27 343v66h369v-66h-369zM27 143v66h369v-66h-369z" />
    <glyph glyph-name="greater" unicode="&#x3e;" horiz-adv-x="418" 
d="M391 306l-364 -210v75l258 143l-258 144v74l364 -210q14 -8 0 -16zM27 191v74l102 49l-102 49v75l221 -124z" />
    <glyph glyph-name="question" unicode="?" horiz-adv-x="519" 
d="M248 622q-124 0 -174 -101l-63 35q28 58 90 95t151 37q110 0 177.5 -54.5t67.5 -140.5q0 -181 -171 -215v-58h-75v113h4q80 0 120 42t40 109q0 62 -46 100t-121 38zM158 220v186h67q89 0 89 69q0 30 -19 46.5t-51 16.5q-60 0 -92 -59l-64 34q46 91 160 91q67 0 108 -33
t41 -87q0 -60 -35 -96.5t-107 -36.5h-22v-131h-75zM240 -7q-37 0 -64 25t-27 64t27 64t64 25t64 -25t27 -64t-27 -64t-64 -25zM227 82q0 -13 13 -13t13 13t-13 13t-13 -13z" />
    <glyph glyph-name="at" unicode="@" horiz-adv-x="770" 
d="M397 -24q-163 0 -268.5 96.5t-105.5 259.5q0 154 107.5 255t259.5 101q157 0 257 -92t100 -237q0 -101 -34.5 -152t-92.5 -51q-110 0 -110 121v226h81v-230q0 -44 29 -44q47 0 47 129q0 125 -72.5 191t-207.5 66q-126 0 -203 -78.5t-77 -204.5q0 -128 75.5 -205.5
t211.5 -77.5q93 0 152 30l35 -64q-67 -39 -184 -39zM380 289q17 0 28.5 11t11.5 29t-11.5 30t-28.5 12t-29 -12t-12 -30t11.5 -29t29.5 -11zM378 225q-49 0 -81 27t-32 77q0 49 32.5 77.5t80.5 28.5q50 0 82 -28t32 -78t-33 -77t-81 -27zM372 144q-86 0 -143.5 48.5
t-57.5 135.5q0 86 57 136.5t141 50.5q79 0 123 -46v-77q-35 60 -114 60q-56 0 -93 -32.5t-37 -90.5q0 -59 36.5 -90t93.5 -31q76 0 114 58q1 -36 16 -65q-17 -24 -52.5 -40.5t-83.5 -16.5z" />
    <glyph glyph-name="A" unicode="A" horiz-adv-x="681" 
d="M337 553l-254 -553h-79l326 690q4 8 11 8t11 -8l325 -690h-84zM175 157l162 353l163 -353h-325zM486 0l-35 79h-233l-33 -79h-82l63 139h343l64 -139h-87zM333 352l-57 -135h115z" />
    <glyph glyph-name="B" unicode="B" horiz-adv-x="638" 
d="M138 618v-555h207q178 0 178 146q0 60 -35.5 96t-96.5 45q53 14 79 49t26 83q0 67 -39.5 101.5t-113.5 34.5h-205zM345 81h-189v259h188q74 0 117.5 -33.5t43.5 -97.5q0 -128 -160 -128zM330 358h-174v242h187q65 0 100 -30t35 -88q0 -54 -36.5 -89t-111.5 -35zM59 0v680
h295q103 0 162.5 -46t59.5 -130q0 -102 -74 -146q103 -43 103 -161q0 -94 -67 -145.5t-193 -51.5h-286zM235 414h94q69 0 69 61q0 62 -67 62h-96v-123zM235 143h109q79 0 79 71q0 70 -79 70h-109v-141z" />
    <glyph glyph-name="C" unicode="C" horiz-adv-x="690" 
d="M679 153q-50 -84 -122.5 -123t-176.5 -39q-146 0 -250 99t-104 250q0 150 102 249t242 99q195 0 294 -146l-61 -42q-78 118 -231 118q-111 0 -186.5 -79t-75.5 -199t77.5 -199.5t192.5 -79.5q85 0 141 33t95 99zM372 600q143 0 216 -109l-61 -42q-53 81 -154 81
q-73 0 -117 -54t-44 -136t45.5 -136.5t121.5 -54.5q110 0 160 94l62 -40q-35 -63 -88 -93.5t-133 -30.5q-108 0 -180 74t-72 187q0 112 70.5 186t173.5 74z" />
    <glyph glyph-name="D" unicode="D" horiz-adv-x="688" 
d="M141 612v-544h171q120 0 195 74t75 198t-75 198t-195 74h-171zM159 86v508h153q112 0 182 -69t70 -185t-70 -185t-182 -69h-153zM59 0v680h263q150 0 247 -92.5t97 -247.5t-97 -247.5t-247 -92.5h-263zM241 154h61q82 0 130 50.5t48 135.5t-48 135.5t-130 50.5h-61v-372z
" />
    <glyph glyph-name="E" unicode="E" horiz-adv-x="579" 
d="M59 0v680h477v-68h-395v-545h409v-67h-491zM550 153v-68h-391v248h328v-63h-246v-117h309zM487 415v-64h-328v243h377v-67h-295v-112h246z" />
    <glyph glyph-name="F" unicode="F" horiz-adv-x="552" 
d="M59 0v680h462v-68h-380v-612h-82zM488 389v-68h-329v273h362v-67h-280v-138h247zM241 0h-82v303h329v-67h-247v-236z" />
    <glyph glyph-name="G" unicode="G" horiz-adv-x="720" 
d="M616 318h-225v63h297v-296q-114 -94 -296 -94q-153 0 -259.5 99t-106.5 250t106 249.5t256 98.5q179 0 273 -121l-57 -49q-80 100 -218 100q-119 0 -197.5 -79t-78.5 -199q0 -121 80 -201t203 -80q133 0 223 65v194zM526 171v66h-135v63h207v-168q-79 -55 -205 -55
q-116 0 -190.5 74.5t-74.5 188.5q0 113 73.5 186.5t184.5 73.5q132 0 205 -94l-57 -49q-56 73 -150 73q-81 0 -126.5 -53.5t-45.5 -136.5q0 -84 48 -140t134 -56q76 0 132 27z" />
    <glyph glyph-name="H" unicode="H" horiz-adv-x="718" 
d="M241 0h-82v333h400v-333h-82v266h-236v-266zM477 419v261h82v-329h-400v329h82v-261h236zM59 0v680h82v-680h-82zM659 0h-82v680h82v-680z" />
    <glyph glyph-name="I" unicode="I" horiz-adv-x="308" 
d="M245 0h-82v680h82v-680zM63 0v680h82v-680h-82z" />
    <glyph glyph-name="J" unicode="J" horiz-adv-x="486" 
d="M432 680v-489q0 -96 -54.5 -148.5t-153.5 -52.5q-158 0 -218 113l63 40q44 -84 145 -84q65 0 100.5 35.5t35.5 103.5v482h82zM84 153l62 40q10 -17 14.5 -24t16.5 -15t26 -8q47 0 47 58v476h82v-482q0 -59 -31 -90t-87 -31q-91 0 -130 76z" />
    <glyph glyph-name="K" unicode="K" horiz-adv-x="682" 
d="M560 680h88l-226 -295l253 -385h-97l-254 379zM241 406l204 274h94l-380 -485v485h82v-274zM59 0v680h82v-680h-82zM460 0l-160 244l-59 -74v-170h-82v168l154 197l245 -365h-98z" />
    <glyph glyph-name="L" unicode="L" horiz-adv-x="555" 
d="M59 0v680h82v-613h389v-67h-471zM530 153v-68h-371v595h82v-527h289z" />
    <glyph glyph-name="M" unicode="M" horiz-adv-x="827" 
d="M41 0l40 687q1 10 9 1l326 -366l321 366q8 9 9 -1l40 -687h-80l-29 513l-260 -298l-267 297l-30 -512h-79zM417 187l244 280l27 -467h-78l-16 286l-173 -200q-5 -4 -9 0l-180 201l-16 -287h-78l28 468z" />
    <glyph glyph-name="N" unicode="N" horiz-adv-x="730" 
d="M135 540v-540h-76v689q0 13 14 2l429 -355v344h76v-503zM657 -12l-429 354v-342h-75v502l443 -363v541h75v-690q0 -13 -14 -2z" />
    <glyph glyph-name="O" unicode="O" 
d="M391 61q120 0 200.5 79.5t80.5 199.5t-80.5 199t-200.5 79t-200.5 -79t-80.5 -199t80.5 -199.5t200.5 -79.5zM391 79q-113 0 -188 74t-75 187t75 186.5t188 73.5t188 -73.5t75 -186.5t-75 -187t-188 -74zM391 -9q-150 0 -257.5 99t-107.5 250t107.5 249.5t257.5 98.5
t257.5 -98.5t107.5 -249.5t-107.5 -250t-257.5 -99zM391 149q83 0 131 54t48 137t-48 136.5t-131 53.5t-131 -53.5t-48 -136.5t48 -137t131 -54z" />
    <glyph glyph-name="P" unicode="P" horiz-adv-x="628" 
d="M241 195v-195h-82v262h171q90 0 140.5 48t50.5 126q0 79 -50.5 127.5t-140.5 48.5h-189v-612h-82v680h275q126 0 197.5 -68t71.5 -176q0 -107 -71 -174t-198 -67h-93zM330 280h-171v314h171q82 0 127.5 -43.5t45.5 -114.5q0 -70 -45.5 -113t-127.5 -43zM241 347h84
q46 0 70.5 23.5t24.5 65.5q0 43 -24.5 66.5t-70.5 23.5h-84v-179z" />
    <glyph glyph-name="Q" unicode="Q" 
d="M466 -2v-122h-66v185q117 3 194.5 82t77.5 197q0 120 -80.5 199t-200.5 79t-200.5 -79t-80.5 -199q0 -118 77.5 -197t194.5 -82v-185h-66v122q-125 25 -207.5 118.5t-82.5 223.5q0 151 107.5 249.5t257.5 98.5t257.5 -98.5t107.5 -249.5q0 -130 -82.5 -223.5
t-207.5 -118.5zM316 158v121h66v-200q-110 3 -182 76.5t-72 184.5q0 113 75 186.5t188 73.5t188 -73.5t75 -186.5q0 -110 -72.5 -184t-181.5 -77v200h66v-121q50 20 77 68t27 114q0 83 -48 136.5t-131 53.5t-131 -53.5t-48 -136.5q0 -66 27 -114t77 -68z" />
    <glyph glyph-name="R" unicode="R" horiz-adv-x="647" 
d="M141 612v-612h-82v680h275q127 0 198 -67t71 -174q0 -141 -124 -198l141 -241h-89l-158 277q71 10 109.5 52.5t38.5 109.5q0 79 -50 126t-141 47h-189zM330 292h-171v302h171q82 0 127.5 -42t45.5 -113q0 -68 -45.5 -107.5t-127.5 -39.5zM241 213v-213h-82v274h171
q13 0 24 1l157 -275h-88l-120 213h-62zM241 352h84q95 0 95 87t-95 87h-84v-174z" />
    <glyph glyph-name="S" unicode="S" horiz-adv-x="568" 
d="M286 -10q-187 0 -282 126l59 44q79 -103 219 -103q90 0 135.5 38t45.5 105q0 51 -30.5 84t-100.5 56l-85 29q-50 18 -76 45t-26 74q0 54 40 85t100 31q104 0 168 -68l-46 -48q-48 50 -117 50q-32 0 -49 -13t-17 -34q0 -19 11.5 -30t36.5 -20l90 -30q99 -33 140.5 -82
t41.5 -124q0 -99 -64 -157t-194 -58zM282 75q-130 0 -205 96l59 44q60 -74 142 -74q86 0 86 54q0 21 -15.5 33.5t-51.5 24.5l-80 27q-169 56 -169 205q0 96 67.5 149.5t164.5 53.5q149 0 231 -91l-45 -47q-68 72 -181 72q-68 0 -113 -35.5t-45 -98.5q0 -98 115 -136l85 -29
q61 -22 89 -50t28 -73q0 -59 -40.5 -92t-121.5 -33z" />
    <glyph glyph-name="T" unicode="T" horiz-adv-x="588" 
d="M385 0h-82v594h262v-67h-180v-527zM203 0v527h-180v67h262v-594h-82zM565 680v-68h-542v68h542z" />
    <glyph glyph-name="U" unicode="U" horiz-adv-x="694" 
d="M347 -10q-133 0 -214 70t-81 203v417h82v-416q0 -99 57 -151t156 -52t156 52t57 151v416h82v-417q0 -133 -81 -203t-214 -70zM347 79q-91 0 -143 47.5t-52 137.5v416h82v-415q0 -116 113 -116t113 116v415h82v-416q0 -90 -52 -137.5t-143 -47.5z" />
    <glyph glyph-name="V" unicode="V" horiz-adv-x="661" 
d="M657 680l-321 -687q-2 -5 -6 -5t-6 5l-320 687h87l243 -530l240 530h83zM334 194l-223 486h87l139 -317l135 317h82z" />
    <glyph glyph-name="W" unicode="W" horiz-adv-x="936" 
d="M469 354l-167 -362q-2 -5 -6 -5t-6 5l-286 688h86l217 -530l164 361l167 -361l213 530h81l-282 -688q-5 -14 -12 0zM308 191l-200 489h84l125 -319l151 332q4 10 8 0l158 -332l119 319h79l-194 -489l-167 359z" />
    <glyph glyph-name="X" unicode="X" horiz-adv-x="687" 
d="M678 0h-90l-232 370l201 310h84l-197 -307zM244 365l-198 315h92l194 -310l-239 -370h-84zM115 0l229 354l221 -354h-90l-137 231l-140 -231h-83zM344 385l-184 295h89l102 -172l101 172h82z" />
    <glyph glyph-name="Y" unicode="Y" horiz-adv-x="666" 
d="M244 263l-240 417h89l233 -412v-268h-82v263zM426 0h-82v267l233 413h85l-236 -412v-268zM338 431l133 249h86l-221 -394l-222 394h90z" />
    <glyph glyph-name="Z" unicode="Z" horiz-adv-x="613" 
d="M14 0q-9 0 -3 10l303 517h-252v68h377l-306 -527h436v-68h-555zM472 613h-410v67h529q9 0 3 -10l-303 -517h278v-67h-403z" />
    <glyph glyph-name="bracketleft" unicode="[" horiz-adv-x="358" 
d="M59 0v680h265v-63h-188v-554h188v-63h-265zM154 81v518h170v-63h-93v-392h93v-63h-170z" />
    <glyph glyph-name="backslash" unicode="\" horiz-adv-x="491" 
d="M380 0h-74l-287 680h74zM185 680l287 -680h-73l-287 680h73z" />
    <glyph glyph-name="bracketright" unicode="]" horiz-adv-x="358" 
d="M299 680v-680h-265v63h188v554h-188v63h265zM204 599v-518h-170v63h93v392h-93v63h170z" />
    <glyph glyph-name="asciicircum" unicode="^" horiz-adv-x="508" 
d="M253 565l-165 -262h-76l237 378q6 10 12 0l235 -378h-79zM250 404l-64 -101h-75l142 227l142 -227h-80z" />
    <glyph glyph-name="underscore" unicode="_" horiz-adv-x="350" 
d="M352 -37v-65h-354v65h354zM-2 -184v64h354v-64h-354z" />
    <glyph glyph-name="grave" unicode="`" horiz-adv-x="500" 
d="M260 722h-57l-95 182h86zM296 904l40 -182h-58l-66 182h84z" />
    <glyph glyph-name="a" unicode="a" horiz-adv-x="681" 
d="M337 553l-254 -553h-79l326 690q4 8 11 8t11 -8l325 -690h-84zM175 157l162 353l163 -353h-325zM486 0l-35 79h-233l-33 -79h-82l63 139h343l64 -139h-87zM333 352l-57 -135h115z" />
    <glyph glyph-name="b" unicode="b" horiz-adv-x="638" 
d="M138 618v-555h207q178 0 178 146q0 60 -35.5 96t-96.5 45q53 14 79 49t26 83q0 67 -39.5 101.5t-113.5 34.5h-205zM345 81h-189v259h188q74 0 117.5 -33.5t43.5 -97.5q0 -128 -160 -128zM330 358h-174v242h187q65 0 100 -30t35 -88q0 -54 -36.5 -89t-111.5 -35zM59 0v680
h295q103 0 162.5 -46t59.5 -130q0 -102 -74 -146q103 -43 103 -161q0 -94 -67 -145.5t-193 -51.5h-286zM235 414h94q69 0 69 61q0 62 -67 62h-96v-123zM235 143h109q79 0 79 71q0 70 -79 70h-109v-141z" />
    <glyph glyph-name="c" unicode="c" horiz-adv-x="690" 
d="M679 153q-50 -84 -122.5 -123t-176.5 -39q-146 0 -250 99t-104 250q0 150 102 249t242 99q195 0 294 -146l-61 -42q-78 118 -231 118q-111 0 -186.5 -79t-75.5 -199t77.5 -199.5t192.5 -79.5q85 0 141 33t95 99zM372 600q143 0 216 -109l-61 -42q-53 81 -154 81
q-73 0 -117 -54t-44 -136t45.5 -136.5t121.5 -54.5q110 0 160 94l62 -40q-35 -63 -88 -93.5t-133 -30.5q-108 0 -180 74t-72 187q0 112 70.5 186t173.5 74z" />
    <glyph glyph-name="d" unicode="d" horiz-adv-x="688" 
d="M141 612v-544h171q120 0 195 74t75 198t-75 198t-195 74h-171zM159 86v508h153q112 0 182 -69t70 -185t-70 -185t-182 -69h-153zM59 0v680h263q150 0 247 -92.5t97 -247.5t-97 -247.5t-247 -92.5h-263zM241 154h61q82 0 130 50.5t48 135.5t-48 135.5t-130 50.5h-61v-372z
" />
    <glyph glyph-name="e" unicode="e" horiz-adv-x="579" 
d="M59 0v680h477v-68h-395v-545h409v-67h-491zM550 153v-68h-391v248h328v-63h-246v-117h309zM487 415v-64h-328v243h377v-67h-295v-112h246z" />
    <glyph glyph-name="f" unicode="f" horiz-adv-x="552" 
d="M59 0v680h462v-68h-380v-612h-82zM488 389v-68h-329v273h362v-67h-280v-138h247zM241 0h-82v303h329v-67h-247v-236z" />
    <glyph glyph-name="g" unicode="g" horiz-adv-x="720" 
d="M616 318h-225v63h297v-296q-114 -94 -296 -94q-153 0 -259.5 99t-106.5 250t106 249.5t256 98.5q179 0 273 -121l-57 -49q-80 100 -218 100q-119 0 -197.5 -79t-78.5 -199q0 -121 80 -201t203 -80q133 0 223 65v194zM526 171v66h-135v63h207v-168q-79 -55 -205 -55
q-116 0 -190.5 74.5t-74.5 188.5q0 113 73.5 186.5t184.5 73.5q132 0 205 -94l-57 -49q-56 73 -150 73q-81 0 -126.5 -53.5t-45.5 -136.5q0 -84 48 -140t134 -56q76 0 132 27z" />
    <glyph glyph-name="h" unicode="h" horiz-adv-x="718" 
d="M241 0h-82v333h400v-333h-82v266h-236v-266zM477 419v261h82v-329h-400v329h82v-261h236zM59 0v680h82v-680h-82zM659 0h-82v680h82v-680z" />
    <glyph glyph-name="i" unicode="i" horiz-adv-x="308" 
d="M245 0h-82v680h82v-680zM63 0v680h82v-680h-82z" />
    <glyph glyph-name="j" unicode="j" horiz-adv-x="486" 
d="M432 680v-489q0 -96 -54.5 -148.5t-153.5 -52.5q-158 0 -218 113l63 40q44 -84 145 -84q65 0 100.5 35.5t35.5 103.5v482h82zM84 153l62 40q10 -17 14.5 -24t16.5 -15t26 -8q47 0 47 58v476h82v-482q0 -59 -31 -90t-87 -31q-91 0 -130 76z" />
    <glyph glyph-name="k" unicode="k" horiz-adv-x="682" 
d="M560 680h88l-226 -295l253 -385h-97l-254 379zM241 406l204 274h94l-380 -485v485h82v-274zM59 0v680h82v-680h-82zM460 0l-160 244l-59 -74v-170h-82v168l154 197l245 -365h-98z" />
    <glyph glyph-name="l" unicode="l" horiz-adv-x="555" 
d="M59 0v680h82v-613h389v-67h-471zM530 153v-68h-371v595h82v-527h289z" />
    <glyph glyph-name="m" unicode="m" horiz-adv-x="827" 
d="M41 0l40 687q1 10 9 1l326 -366l321 366q8 9 9 -1l40 -687h-80l-29 513l-260 -298l-267 297l-30 -512h-79zM417 187l244 280l27 -467h-78l-16 286l-173 -200q-5 -4 -9 0l-180 201l-16 -287h-78l28 468z" />
    <glyph glyph-name="n" unicode="n" horiz-adv-x="730" 
d="M135 540v-540h-76v689q0 13 14 2l429 -355v344h76v-503zM657 -12l-429 354v-342h-75v502l443 -363v541h75v-690q0 -13 -14 -2z" />
    <glyph glyph-name="o" unicode="o" 
d="M391 61q120 0 200.5 79.5t80.5 199.5t-80.5 199t-200.5 79t-200.5 -79t-80.5 -199t80.5 -199.5t200.5 -79.5zM391 79q-113 0 -188 74t-75 187t75 186.5t188 73.5t188 -73.5t75 -186.5t-75 -187t-188 -74zM391 -9q-150 0 -257.5 99t-107.5 250t107.5 249.5t257.5 98.5
t257.5 -98.5t107.5 -249.5t-107.5 -250t-257.5 -99zM391 149q83 0 131 54t48 137t-48 136.5t-131 53.5t-131 -53.5t-48 -136.5t48 -137t131 -54z" />
    <glyph glyph-name="p" unicode="p" horiz-adv-x="628" 
d="M241 195v-195h-82v262h171q90 0 140.5 48t50.5 126q0 79 -50.5 127.5t-140.5 48.5h-189v-612h-82v680h275q126 0 197.5 -68t71.5 -176q0 -107 -71 -174t-198 -67h-93zM330 280h-171v314h171q82 0 127.5 -43.5t45.5 -114.5q0 -70 -45.5 -113t-127.5 -43zM241 347h84
q46 0 70.5 23.5t24.5 65.5q0 43 -24.5 66.5t-70.5 23.5h-84v-179z" />
    <glyph glyph-name="q" unicode="q" 
d="M466 -2v-122h-66v185q117 3 194.5 82t77.5 197q0 120 -80.5 199t-200.5 79t-200.5 -79t-80.5 -199q0 -118 77.5 -197t194.5 -82v-185h-66v122q-125 25 -207.5 118.5t-82.5 223.5q0 151 107.5 249.5t257.5 98.5t257.5 -98.5t107.5 -249.5q0 -130 -82.5 -223.5
t-207.5 -118.5zM316 158v121h66v-200q-110 3 -182 76.5t-72 184.5q0 113 75 186.5t188 73.5t188 -73.5t75 -186.5q0 -110 -72.5 -184t-181.5 -77v200h66v-121q50 20 77 68t27 114q0 83 -48 136.5t-131 53.5t-131 -53.5t-48 -136.5q0 -66 27 -114t77 -68z" />
    <glyph glyph-name="r" unicode="r" horiz-adv-x="647" 
d="M141 612v-612h-82v680h275q127 0 198 -67t71 -174q0 -141 -124 -198l141 -241h-89l-158 277q71 10 109.5 52.5t38.5 109.5q0 79 -50 126t-141 47h-189zM330 292h-171v302h171q82 0 127.5 -42t45.5 -113q0 -68 -45.5 -107.5t-127.5 -39.5zM241 213v-213h-82v274h171
q13 0 24 1l157 -275h-88l-120 213h-62zM241 352h84q95 0 95 87t-95 87h-84v-174z" />
    <glyph glyph-name="s" unicode="s" horiz-adv-x="568" 
d="M286 -10q-187 0 -282 126l59 44q79 -103 219 -103q90 0 135.5 38t45.5 105q0 51 -30.5 84t-100.5 56l-85 29q-50 18 -76 45t-26 74q0 54 40 85t100 31q104 0 168 -68l-46 -48q-48 50 -117 50q-32 0 -49 -13t-17 -34q0 -19 11.5 -30t36.5 -20l90 -30q99 -33 140.5 -82
t41.5 -124q0 -99 -64 -157t-194 -58zM282 75q-130 0 -205 96l59 44q60 -74 142 -74q86 0 86 54q0 21 -15.5 33.5t-51.5 24.5l-80 27q-169 56 -169 205q0 96 67.5 149.5t164.5 53.5q149 0 231 -91l-45 -47q-68 72 -181 72q-68 0 -113 -35.5t-45 -98.5q0 -98 115 -136l85 -29
q61 -22 89 -50t28 -73q0 -59 -40.5 -92t-121.5 -33z" />
    <glyph glyph-name="t" unicode="t" horiz-adv-x="588" 
d="M385 0h-82v594h262v-67h-180v-527zM203 0v527h-180v67h262v-594h-82zM565 680v-68h-542v68h542z" />
    <glyph glyph-name="u" unicode="u" horiz-adv-x="694" 
d="M347 -10q-133 0 -214 70t-81 203v417h82v-416q0 -99 57 -151t156 -52t156 52t57 151v416h82v-417q0 -133 -81 -203t-214 -70zM347 79q-91 0 -143 47.5t-52 137.5v416h82v-415q0 -116 113 -116t113 116v415h82v-416q0 -90 -52 -137.5t-143 -47.5z" />
    <glyph glyph-name="v" unicode="v" horiz-adv-x="661" 
d="M657 680l-321 -687q-2 -5 -6 -5t-6 5l-320 687h87l243 -530l240 530h83zM334 194l-223 486h87l139 -317l135 317h82z" />
    <glyph glyph-name="w" unicode="w" horiz-adv-x="936" 
d="M469 354l-167 -362q-2 -5 -6 -5t-6 5l-286 688h86l217 -530l164 361l167 -361l213 530h81l-282 -688q-5 -14 -12 0zM308 191l-200 489h84l125 -319l151 332q4 10 8 0l158 -332l119 319h79l-194 -489l-167 359z" />
    <glyph glyph-name="x" unicode="x" horiz-adv-x="687" 
d="M678 0h-90l-232 370l201 310h84l-197 -307zM244 365l-198 315h92l194 -310l-239 -370h-84zM115 0l229 354l221 -354h-90l-137 231l-140 -231h-83zM344 385l-184 295h89l102 -172l101 172h82z" />
    <glyph glyph-name="y" unicode="y" horiz-adv-x="666" 
d="M244 263l-240 417h89l233 -412v-268h-82v263zM426 0h-82v267l233 413h85l-236 -412v-268zM338 431l133 249h86l-221 -394l-222 394h90z" />
    <glyph glyph-name="z" unicode="z" horiz-adv-x="613" 
d="M14 0q-9 0 -3 10l303 517h-252v68h377l-306 -527h436v-68h-555zM472 613h-410v67h529q9 0 3 -10l-303 -517h278v-67h-403z" />
    <glyph glyph-name="braceleft" unicode="{" horiz-adv-x="414" 
d="M210 525q0 38 22 56t56 18h92v-63h-63q-30 0 -30 -32v-79q0 -72 -68 -85q68 -13 68 -85v-79q0 -32 30 -32h63v-63h-92q-34 0 -56 18t-22 56v80q0 85 -88 105q88 18 88 105v80zM259 0q-60 0 -102 32.5t-42 101.5v81q0 53 -48 53h-40v63h40q125 0 125 -96v-80q0 -48 27 -70
t69 -22h92v-63h-121zM67 349h-40v63h40q48 0 48 53v81q0 69 42 101.5t102 32.5h121v-63h-92q-42 0 -69 -22t-27 -70v-80q0 -96 -125 -96z" />
    <glyph glyph-name="bar" unicode="|" horiz-adv-x="254" 
d="M204 -70h-68v820h68v-820zM50 -70v820h68v-820h-68z" />
    <glyph glyph-name="braceright" unicode="}" horiz-adv-x="414" 
d="M204 525v-80q0 -87 88 -105q-88 -20 -88 -105v-80q0 -38 -22 -56t-56 -18h-92v63h63q30 0 30 32v79q0 72 68 85q-68 13 -68 85v79q0 32 -30 32h-63v63h92q34 0 56 -18t22 -56zM155 0h-121v63h92q42 0 69 22t27 70v80q0 96 125 96h40v-63h-40q-48 0 -48 -53v-81
q0 -69 -42 -101.5t-102 -32.5zM387 349h-40q-125 0 -125 96v80q0 48 -27 70t-69 22h-92v63h121q60 0 102 -32.5t42 -101.5v-81q0 -53 48 -53h40v-63z" />
    <glyph glyph-name="asciitilde" unicode="~" horiz-adv-x="484" 
d="M178 313q-37 0 -64.5 -30t-35.5 -84l-56 8q11 80 53 127.5t95 47.5q38 0 78.5 -20t49.5 -20q24 0 33 36l57 -8q-8 -46 -30.5 -71.5t-51.5 -25.5q-24 0 -60 19q-44 21 -68 21zM314 186q-38 0 -78.5 20t-49.5 20q-24 0 -33 -36l-57 7q7 47 29.5 72.5t52.5 25.5q20 0 60 -19
q40 -21 68 -21q36 0 63 29.5t37 83.5l56 -7q-11 -80 -53 -127.5t-95 -47.5z" />
    <glyph glyph-name="exclamdown" unicode="&#xa1;" horiz-adv-x="302" 
d="M77 460h65v-460h-85zM225 460l20 -460h-85v460h65zM151 687q37 0 64 -25t27 -64t-27 -64t-64 -25t-64 25t-27 64t27 64t64 25zM164 598q0 13 -13 13t-13 -13t13 -13t13 13z" />
    <glyph glyph-name="cent" unicode="&#xa2;" horiz-adv-x="497" 
d="M246 573v106h73v-106q103 -13 159 -85l-50 -42q-53 67 -146 67q-78 0 -130 -50.5t-52 -127.5q0 -78 52 -128t131 -50q92 0 149 62l51 -42q-62 -70 -164 -80v-97h-73v97q-96 11 -158 77t-62 161q0 94 62.5 160.5t157.5 77.5zM369 272l49 -41q-52 -56 -135 -56
q-71 0 -118 44.5t-47 115.5q0 70 47 115t117 45q87 0 133 -60l-50 -43q-23 27 -46 35v-187q24 6 50 32zM192 335q0 -70 54 -92v182q-54 -23 -54 -90z" />
    <glyph glyph-name="sterling" unicode="&#xa3;" horiz-adv-x="635" 
d="M82 329h159q39 -91 39 -153q0 -14 -1 -20q-66 50 -123 50q-37 0 -62.5 -22t-25.5 -61q0 -37 27.5 -60t68.5 -23q44 0 78.5 23t47.5 64q36 -25 50.5 -34t48 -21.5t65.5 -12.5q86 0 141 56l43 -50q-67 -75 -178 -75q-79 0 -151 52q-58 -52 -147 -52q-60 0 -105 36.5
t-45 98.5q0 60 40.5 95.5t95.5 35.5q28 0 50 -7l-11 27h-105v53zM115 487q0 81 63 141t176 60q158 0 222 -125l-61 -39q-50 96 -161 96q-75 0 -117 -40t-42 -97q0 -52 38 -136h-151v52h50q-17 51 -17 88zM213 483q0 49 37 84t104 35q102 0 145 -87l-61 -39
q-18 31 -35.5 44.5t-48.5 13.5q-30 0 -46 -15.5t-16 -40.5q0 -38 18 -79h162v-52h-220q-39 89 -39 136zM454 77q-16 0 -33 3.5t-27 6.5t-28.5 13t-23 12.5t-25.5 17.5t-22 15q3 15 3 31q0 63 -38 153h212v-53h-116q21 -70 16 -108q38 -19 75 -19q35 0 54.5 6.5t38.5 24.5
l43 -51q-49 -52 -129 -52zM164 58q-33 0 -55.5 18.5t-22.5 46.5q0 30 20.5 47.5t49.5 17.5q53 0 120 -51q-11 -37 -41.5 -58t-70.5 -21zM173 138q-25 0 -25 -18t24 -18q22 0 36 20q-17 16 -35 16z" />
    <glyph glyph-name="yen" unicode="&#xa5;" horiz-adv-x="658" 
d="M53 254v78h149l-198 348h89l229 -412v-268h-80v142h-189v78h189v34h-189zM420 0h-80v267l229 413h85l-198 -348h159v-78h-195v-34h195v-78h-195v-142zM334 431l129 249h86l-217 -394l-218 394h90z" />
    <glyph glyph-name="section" unicode="&#xa7;" horiz-adv-x="591" 
d="M120 394q-39 50 -39 106q0 78 57 133t159 55q148 0 215 -108l-55 -39q-54 80 -158 80q-66 0 -103 -33.5t-37 -84.5q0 -69 67 -104q-128 -40 -128 -124q0 -41 25 -68.5t85 -44.5l106 -29q46 -12 72 -39.5t26 -65.5q0 -43 -36.5 -68t-101.5 -25q-106 0 -169 65l49 48
q45 -45 114 -45q63 0 63 31q0 20 -41 30l-98 26q-91 24 -127.5 66.5t-36.5 104.5q0 82 92 133zM299 603q93 0 142 -72l-55 -39q-34 44 -85 44q-46 0 -46 -31q0 -24 40 -35l108 -31q90 -25 125 -70.5t35 -114.5q0 -42 -21 -71t-64 -54q33 -49 33 -108q0 -78 -63 -124.5
t-168 -46.5q-155 0 -239 90l50 48q69 -71 183 -71q74 0 115 29.5t41 81.5q0 66 -63 102q59 12 92.5 43t33.5 74q0 46 -23.5 75.5t-83.5 46.5l-116 32q-40 12 -66.5 38.5t-26.5 63.5q0 43 32.5 71.5t89.5 28.5zM318 151l-106 29q-51 15 -73.5 37.5t-22.5 57.5q0 41 35.5 70
t97.5 43l133 -37q93 -28 93 -104q0 -40 -33 -67.5t-94 -36.5q-17 5 -30 8zM379 207q28 7 28 33q0 17 -9 25.5t-34 15.5l-149 41q-12 -2 -20.5 -11.5t-8.5 -22.5q0 -26 41 -36l115 -32q18 -5 37 -13z" />
    <glyph glyph-name="dieresis" unicode="&#xa8;" horiz-adv-x="500" 
d="M154 717q-31 0 -55.5 23.5t-24.5 56.5t24.5 56.5t55.5 23.5q32 0 55.5 -23.5t23.5 -56.5t-23.5 -56.5t-55.5 -23.5zM347 717q-31 0 -55.5 23.5t-24.5 56.5t24.5 56.5t55.5 23.5q32 0 55.5 -23.5t23.5 -56.5t-23.5 -56.5t-55.5 -23.5zM140 797q0 -6 4.5 -10t9.5 -4t9.5 4
t4.5 10t-4.5 10t-9.5 4t-9.5 -4t-4.5 -10zM333 797q0 -6 4.5 -10t9.5 -4t9.5 4t4.5 10t-4.5 10t-9.5 4t-9.5 -4t-4.5 -10z" />
    <glyph glyph-name="copyright" unicode="&#xa9;" horiz-adv-x="758" 
d="M379 -8q-143 0 -246 100t-103 248t103 248t246 100t246 -100t103 -248t-103 -248t-246 -100zM379 61q116 0 196.5 79.5t80.5 199.5t-80.5 199.5t-196.5 79.5t-196.5 -79.5t-80.5 -199.5t80.5 -199.5t196.5 -79.5zM381 127q-89 0 -152.5 60.5t-63.5 152.5t63.5 153.5
t152.5 61.5q109 0 166 -82l-53 -43q-41 57 -111 57q-61 0 -103 -42t-42 -105q0 -62 42 -103.5t103 -41.5q75 0 118 60l54 -41q-58 -87 -174 -87zM383 469q62 0 98 -49l-53 -43q-16 24 -43 24t-42 -17t-15 -44q0 -26 15.5 -42.5t41.5 -16.5q29 0 48 25l54 -41
q-35 -52 -104 -52q-54 0 -90.5 36t-36.5 91q0 56 36.5 92.5t90.5 36.5z" />
    <glyph glyph-name="ordfeminine" unicode="&#xaa;" horiz-adv-x="556" 
d="M276 556l-188 -384h-80l264 508q7 12 14 0l262 -508h-84zM155 267l121 248l122 -248h-243zM360 172l-12 29h-148l-12 -29h-80l38 77h261l37 -77h-84zM273 382l-27 -66h54z" />
    <glyph glyph-name="guillemotleft" unicode="&#xab;" horiz-adv-x="520" 
d="M327 69l-82 176q-1 4 0 8l82 174h79l-83 -178l83 -180h-79zM101 69l-82 176q-1 4 0 8l82 174h79l-83 -178l83 -180h-79zM279 69h-79l-83 180l83 178h79l-83 -178zM505 69h-79l-83 180l83 178h79l-83 -178z" />
    <glyph glyph-name="registered" unicode="&#xae;" horiz-adv-x="391" 
d="M195 356q-71 0 -120 47.5t-49 118.5q0 72 49 119.5t120 47.5q72 0 121 -47t49 -120q0 -71 -49.5 -118.5t-120.5 -47.5zM195 393q56 0 93.5 36.5t37.5 92.5q0 58 -37 94.5t-94 36.5t-93 -36.5t-36 -94.5q0 -56 36.5 -92.5t92.5 -36.5zM250 497l30 -62h-60l-24 51h-14v-51
h-57v178h76q34 0 55.5 -19t21.5 -43q0 -36 -28 -54zM182 530h18q20 0 20 18q0 15 -20 15h-18v-33z" />
    <glyph glyph-name="macron" unicode="&#xaf;" horiz-adv-x="500" 
d="M108 799v59h284v-59h-284zM108 722v59h284v-59h-284z" />
    <glyph glyph-name="degree" unicode="&#xb0;" horiz-adv-x="341" 
d="M171 401q-64 0 -108.5 42.5t-44.5 101.5q0 60 44.5 101.5t108.5 41.5t108 -41t44 -102q0 -60 -44.5 -102t-107.5 -42zM171 486q24 0 40 16.5t16 42.5q0 25 -16 41.5t-40 16.5q-25 0 -41 -16.5t-16 -41.5q0 -26 16 -42.5t41 -16.5z" />
    <glyph glyph-name="two.superior" unicode="&#xb2;" horiz-adv-x="308" 
d="M31 405q-12 0 -3 11l102 108q42 45 42 66q0 10 -6.5 16t-17.5 6q-27 0 -35 -35l-82 25q28 88 127 88q55 0 83.5 -25t28.5 -64q0 -26 -14 -48t-47 -55l-19 -20h88v-73h-247z" />
    <glyph glyph-name="three.superior" unicode="&#xb3;" horiz-adv-x="304" 
d="M150 392q-84 0 -121 66l66 37q14 -34 50 -34q16 0 26.5 10t10.5 26q0 35 -43 35q-21 0 -42 -8q-4 -2 -6 1.5t1 7.5l61 78h-103v69h220q8 0 2 -8l-73 -94q72 -18 72 -83q0 -45 -30.5 -74t-90.5 -29z" />
    <glyph glyph-name="acute" unicode="&#xb4;" horiz-adv-x="500" 
d="M297 722h-57l66 182h86zM164 722l40 182h84l-66 -182h-58z" />
    <glyph glyph-name="paragraph" unicode="&#xb6;" horiz-adv-x="585" 
d="M244 264h-8q-92 0 -153 61.5t-61 146.5t61 146.5t153 61.5h90v-680h-82v264zM426 0h-82v680h82v-680zM526 0h-82v680h82v-680z" />
    <glyph glyph-name="periodcentered" unicode="&#xb7;" horiz-adv-x="254" 
d="M127 218q-37 0 -64 25t-27 64t27 64t64 25t64 -25t27 -64t-27 -64t-64 -25zM113 307q0 -6 4.5 -10t9.5 -4t9.5 4t4.5 10t-4.5 10t-9.5 4t-9.5 -4t-4.5 -10z" />
    <glyph glyph-name="cedilla" unicode="&#xb8;" horiz-adv-x="500" 
d="M259 -222q-83 0 -119 57l68 45q13 -23 35 -23q28 0 28 24q0 25 -34 25h-34v94h79v-31q36 -6 59.5 -31.5t23.5 -65.5q0 -42 -32.5 -68t-73.5 -26z" />
    <glyph glyph-name="one.superior" unicode="&#xb9;" horiz-adv-x="228" 
d="M76 405v198h-52v77h149v-275h-97z" />
    <glyph glyph-name="ordmasculine" unicode="&#xba;" horiz-adv-x="590" 
d="M295 161q-113 0 -195 75.5t-82 188.5q0 114 81.5 188.5t195.5 74.5q113 0 195 -74.5t82 -188.5q0 -113 -82 -188.5t-195 -75.5zM295 317q47 0 74 30.5t27 77.5q0 46 -27 76.5t-74 30.5t-74 -30.5t-27 -76.5q0 -47 27 -77.5t74 -30.5zM295 230q84 0 141 55.5t57 139.5
t-57 139t-141 55t-141 -55t-57 -139t57 -139.5t141 -55.5zM295 248q-76 0 -128 50.5t-52 126.5q0 77 51.5 126.5t128.5 49.5t128.5 -49.5t51.5 -126.5q0 -76 -52 -126.5t-128 -50.5z" />
    <glyph glyph-name="guillemotright" unicode="&#xbb;" horiz-adv-x="520" 
d="M193 427l82 -176q1 -4 0 -8l-82 -174h-79l83 178l-83 180h79zM419 427l82 -176q1 -4 0 -8l-82 -174h-79l83 178l-83 180h79zM241 427h79l83 -180l-83 -178h-79l83 178zM15 427h79l83 -180l-83 -178h-79l83 178z" />
    <glyph glyph-name="onequarter" unicode="&#xbc;" horiz-adv-x="362" 
d="M134 405v198h-53v77h149v-275h-96zM273 114h39v-61h-39v-53h-88v53h-145v37l177 193h56v-169zM189 112v57l-52 -57h52zM31 307v67h301v-67h-301z" />
    <glyph glyph-name="onehalf" unicode="&#xbd;" horiz-adv-x="362" 
d="M129 405v198h-52v77h149v-275h-97zM54 0q-12 0 -3 11l102 108q42 45 42 66q0 10 -6.5 16t-17.5 6q-27 0 -35 -35l-82 25q28 88 127 88q55 0 83.5 -25t28.5 -64q0 -26 -14 -48t-47 -55l-19 -20h88v-73h-247zM31 308v67h301v-67h-301z" />
    <glyph glyph-name="threequarters" unicode="&#xbe;" horiz-adv-x="362" 
d="M274 114h39v-61h-39v-53h-87v53h-146v37l178 193h55v-169zM191 112v57l-52 -57h52zM31 306v67h301v-67h-301zM180 392q-84 0 -121 66l66 37q14 -34 50 -34q16 0 26.5 10t10.5 26q0 35 -43 35q-21 0 -42 -8q-4 -2 -6 1.5t1 7.5l61 78h-103v69h220q8 0 2 -8l-73 -94
q72 -18 72 -83q0 -45 -30.5 -74t-90.5 -29z" />
    <glyph glyph-name="questiondown" unicode="&#xbf;" horiz-adv-x="519" 
d="M271 56q124 0 174 101l63 -35q-28 -58 -90 -95t-151 -37q-110 0 -177.5 54.5t-67.5 140.5q0 181 171 215v58h75v-113h-4q-80 0 -120 -42t-40 -109q0 -62 46 -100t121 -38zM361 458v-186h-67q-89 0 -89 -69q0 -30 19 -46.5t51 -16.5q60 0 92 59l64 -34q-46 -91 -160 -91
q-67 0 -108 33t-41 87q0 60 35 96.5t107 36.5h22v131h75zM279 685q37 0 64 -25t27 -64t-27 -64t-64 -25t-64 25t-27 64t27 64t64 25zM292 596q0 13 -13 13t-13 -13t13 -13t13 13z" />
    <glyph glyph-name="Agrave" unicode="&#xc0;" horiz-adv-x="681" 
d="M337 553l-254 -553h-79l326 690q4 8 11 8t11 -8l325 -690h-84zM175 157l162 353l163 -353h-325zM486 0l-35 79h-233l-33 -79h-82l63 139h343l64 -139h-87zM333 352l-57 -135h115zM331 722h-57l-95 182h86zM367 904l40 -182h-58l-66 182h84z" />
    <glyph glyph-name="Aacute" unicode="&#xc1;" horiz-adv-x="681" 
d="M337 553l-254 -553h-79l326 690q4 8 11 8t11 -8l325 -690h-84zM175 157l162 353l163 -353h-325zM486 0l-35 79h-233l-33 -79h-82l63 139h343l64 -139h-87zM333 352l-57 -135h115zM411 722h-57l66 182h86zM278 722l40 182h84l-66 -182h-58z" />
    <glyph glyph-name="Acircumflex" unicode="&#xc2;" horiz-adv-x="681" 
d="M337 553l-254 -553h-79l326 690q4 8 11 8t11 -8l325 -690h-84zM175 157l162 353l163 -353h-325zM486 0l-35 79h-233l-33 -79h-82l63 139h343l64 -139h-87zM333 352l-57 -135h115zM164 722l172 210q4 6 9 0l172 -210h-64l-112 134l-114 -134h-63zM250 722l91 105l90 -105
h-61l-29 29l-30 -29h-61z" />
    <glyph glyph-name="Atilde" unicode="&#xc3;" horiz-adv-x="681" 
d="M337 553l-254 -553h-79l326 690q4 8 11 8t11 -8l325 -690h-84zM175 157l162 353l163 -353h-325zM486 0l-35 79h-233l-33 -79h-82l63 139h343l64 -139h-87zM333 352l-57 -135h115zM286 832q-32 0 -55.5 -27t-32.5 -76l-51 6q10 76 47 116t83 40q29 0 66.5 -18t44.5 -18
q12 0 17.5 7.5t10.5 25.5l50 -6q-7 -41 -26.5 -64t-42.5 -23q-20 0 -56.5 18.5t-54.5 18.5zM405 718q-29 0 -66.5 18t-44.5 18q-12 0 -17.5 -7.5t-10.5 -25.5l-50 6q7 41 26 64t44 23q17 0 53.5 -18.5t57.5 -18.5q30 0 54.5 27.5t31.5 75.5l52 -6q-9 -74 -47 -115t-83 -41z
" />
    <glyph glyph-name="Adieresis" unicode="&#xc4;" horiz-adv-x="681" 
d="M337 553l-254 -553h-79l326 690q4 8 11 8t11 -8l325 -690h-84zM175 157l162 353l163 -353h-325zM486 0l-35 79h-233l-33 -79h-82l63 139h343l64 -139h-87zM333 352l-57 -135h115zM244 717q-31 0 -55.5 23.5t-24.5 56.5t24.5 56.5t55.5 23.5q32 0 55.5 -23.5t23.5 -56.5
t-23.5 -56.5t-55.5 -23.5zM437 717q-31 0 -55.5 23.5t-24.5 56.5t24.5 56.5t55.5 23.5q32 0 55.5 -23.5t23.5 -56.5t-23.5 -56.5t-55.5 -23.5zM230 797q0 -6 4.5 -10t9.5 -4t9.5 4t4.5 10t-4.5 10t-9.5 4t-9.5 -4t-4.5 -10zM423 797q0 -6 4.5 -10t9.5 -4t9.5 4t4.5 10
t-4.5 10t-9.5 4t-9.5 -4t-4.5 -10z" />
    <glyph glyph-name="Aring" unicode="&#xc5;" horiz-adv-x="681" 
d="M337 553l-254 -553h-79l326 690q4 8 11 8t11 -8l325 -690h-84zM175 157l162 353l163 -353h-325zM486 0l-35 79h-233l-33 -79h-82l63 139h343l64 -139h-87zM333 352l-57 -135h115zM340 726q-51 0 -83.5 32t-32.5 77t32.5 77t83.5 32t83.5 -32t32.5 -77t-32.5 -77
t-83.5 -32zM340 792q18 0 30 11.5t12 31.5q0 19 -12 31t-30 12t-30 -12t-12 -31q0 -20 12 -31.5t30 -11.5z" />
    <glyph glyph-name="AE" unicode="&#xc6;" horiz-adv-x="977" 
d="M934 612h-416l-433 -612h-84l485 680h448v-68zM227 171l299 423h13v-423h-312zM457 0v96h-196l-65 -96h-90l108 153h325v-86h409v-67h-491zM948 153v-68h-391v248h328v-63h-246v-117h309zM885 415v-64h-328v243h377v-67h-295v-112h246zM351 228h106v155z" />
    <glyph glyph-name="Ccedilla" unicode="&#xc7;" horiz-adv-x="690" 
d="M372 -222q-83 0 -119 57l68 45q13 -23 35 -23q28 0 28 24q0 25 -34 25h-34v91q-125 21 -207.5 115.5t-82.5 227.5q0 150 102 249t242 99q195 0 294 -146l-61 -42q-78 118 -231 118q-111 0 -186.5 -79t-75.5 -199t77.5 -199.5t192.5 -79.5q85 0 141 33t95 99l63 -40
q-48 -81 -117 -120t-167 -42v-22q36 -6 59.5 -31.5t23.5 -65.5q0 -42 -32.5 -68t-73.5 -26zM372 600q143 0 216 -109l-61 -42q-53 81 -154 81q-73 0 -117 -54t-44 -136t45.5 -136.5t121.5 -54.5q110 0 160 94l62 -40q-35 -63 -88 -93.5t-133 -30.5q-108 0 -180 74t-72 187
q0 112 70.5 186t173.5 74z" />
    <glyph glyph-name="Egrave" unicode="&#xc8;" horiz-adv-x="579" 
d="M59 0v680h477v-68h-395v-545h409v-67h-491zM550 153v-68h-391v248h328v-63h-246v-117h309zM487 415v-64h-328v243h377v-67h-295v-112h246zM297 722h-57l-95 182h86zM333 904l40 -182h-58l-66 182h84z" />
    <glyph glyph-name="Eacute" unicode="&#xc9;" horiz-adv-x="579" 
d="M59 0v680h477v-68h-395v-545h409v-67h-491zM550 153v-68h-391v248h328v-63h-246v-117h309zM487 415v-64h-328v243h377v-67h-295v-112h246zM377 722h-57l66 182h86zM244 722l40 182h84l-66 -182h-58z" />
    <glyph glyph-name="Ecircumflex" unicode="&#xca;" horiz-adv-x="579" 
d="M59 0v680h477v-68h-395v-545h409v-67h-491zM550 153v-68h-391v248h328v-63h-246v-117h309zM487 415v-64h-328v243h377v-67h-295v-112h246zM130 722l172 210q4 6 9 0l172 -210h-64l-112 134l-114 -134h-63zM216 722l91 105l90 -105h-61l-29 29l-30 -29h-61z" />
    <glyph glyph-name="Edieresis" unicode="&#xcb;" horiz-adv-x="579" 
d="M59 0v680h477v-68h-395v-545h409v-67h-491zM550 153v-68h-391v248h328v-63h-246v-117h309zM487 415v-64h-328v243h377v-67h-295v-112h246zM210 717q-31 0 -55.5 23.5t-24.5 56.5t24.5 56.5t55.5 23.5q32 0 55.5 -23.5t23.5 -56.5t-23.5 -56.5t-55.5 -23.5zM403 717
q-31 0 -55.5 23.5t-24.5 56.5t24.5 56.5t55.5 23.5q32 0 55.5 -23.5t23.5 -56.5t-23.5 -56.5t-55.5 -23.5zM196 797q0 -6 4.5 -10t9.5 -4t9.5 4t4.5 10t-4.5 10t-9.5 4t-9.5 -4t-4.5 -10zM389 797q0 -6 4.5 -10t9.5 -4t9.5 4t4.5 10t-4.5 10t-9.5 4t-9.5 -4t-4.5 -10z" />
    <glyph glyph-name="Igrave" unicode="&#xcc;" horiz-adv-x="308" 
d="M245 0h-82v680h82v-680zM63 0v680h82v-680h-82zM145 722h-57l-95 182h86zM181 904l40 -182h-58l-66 182h84z" />
    <glyph glyph-name="Iacute" unicode="&#xcd;" horiz-adv-x="308" 
d="M245 0h-82v680h82v-680zM63 0v680h82v-680h-82zM225 722h-57l66 182h86zM92 722l40 182h84l-66 -182h-58z" />
    <glyph glyph-name="Icircumflex" unicode="&#xce;" horiz-adv-x="308" 
d="M245 0h-82v680h82v-680zM63 0v680h82v-680h-82zM-22 722l172 210q4 6 9 0l172 -210h-64l-112 134l-114 -134h-63zM64 722l91 105l90 -105h-61l-29 29l-30 -29h-61z" />
    <glyph glyph-name="Idieresis" unicode="&#xcf;" horiz-adv-x="308" 
d="M245 0h-82v680h82v-680zM63 0v680h82v-680h-82zM58 717q-31 0 -55.5 23.5t-24.5 56.5t24.5 56.5t55.5 23.5q32 0 55.5 -23.5t23.5 -56.5t-23.5 -56.5t-55.5 -23.5zM251 717q-31 0 -55.5 23.5t-24.5 56.5t24.5 56.5t55.5 23.5q32 0 55.5 -23.5t23.5 -56.5t-23.5 -56.5
t-55.5 -23.5zM44 797q0 -6 4.5 -10t9.5 -4t9.5 4t4.5 10t-4.5 10t-9.5 4t-9.5 -4t-4.5 -10zM237 797q0 -6 4.5 -10t9.5 -4t9.5 4t4.5 10t-4.5 10t-9.5 4t-9.5 -4t-4.5 -10z" />
    <glyph glyph-name="Eth" unicode="&#xd0;" horiz-adv-x="688" 
d="M6 348v62h53v270h263q150 0 247 -92.5t97 -247.5t-97 -247.5t-247 -92.5h-263v269h-53v61h135v-262h171q120 0 195 74t75 198t-75 198t-195 74h-171v-264h-135zM241 526v-116h128v-62h-210v246h153q112 0 182 -69t70 -185t-70 -185t-182 -69h-153v244h210v-61h-128v-115
h61q82 0 130 50.5t48 135.5t-48 135.5t-130 50.5h-61z" />
    <glyph glyph-name="Ntilde" unicode="&#xd1;" horiz-adv-x="730" 
d="M135 540v-540h-76v689q0 13 14 2l429 -355v344h76v-503zM657 -12l-429 354v-342h-75v502l443 -363v541h75v-690q0 -13 -14 -2zM300 832q-32 0 -55.5 -27t-32.5 -76l-51 6q10 76 47 116t83 40q29 0 66.5 -18t44.5 -18q12 0 17.5 7.5t10.5 25.5l50 -6q-7 -41 -26.5 -64
t-42.5 -23q-20 0 -56.5 18.5t-54.5 18.5zM419 718q-29 0 -66.5 18t-44.5 18q-12 0 -17.5 -7.5t-10.5 -25.5l-50 6q7 41 26 64t44 23q17 0 53.5 -18.5t57.5 -18.5q30 0 54.5 27.5t31.5 75.5l52 -6q-9 -74 -47 -115t-83 -41z" />
    <glyph glyph-name="Ograve" unicode="&#xd2;" 
d="M391 61q120 0 200.5 79.5t80.5 199.5t-80.5 199t-200.5 79t-200.5 -79t-80.5 -199t80.5 -199.5t200.5 -79.5zM391 79q-113 0 -188 74t-75 187t75 186.5t188 73.5t188 -73.5t75 -186.5t-75 -187t-188 -74zM391 -9q-150 0 -257.5 99t-107.5 250t107.5 249.5t257.5 98.5
t257.5 -98.5t107.5 -249.5t-107.5 -250t-257.5 -99zM391 149q83 0 131 54t48 137t-48 136.5t-131 53.5t-131 -53.5t-48 -136.5t48 -137t131 -54zM382 722h-57l-95 182h86zM418 904l40 -182h-58l-66 182h84z" />
    <glyph glyph-name="Oacute" unicode="&#xd3;" 
d="M391 61q120 0 200.5 79.5t80.5 199.5t-80.5 199t-200.5 79t-200.5 -79t-80.5 -199t80.5 -199.5t200.5 -79.5zM391 79q-113 0 -188 74t-75 187t75 186.5t188 73.5t188 -73.5t75 -186.5t-75 -187t-188 -74zM391 -9q-150 0 -257.5 99t-107.5 250t107.5 249.5t257.5 98.5
t257.5 -98.5t107.5 -249.5t-107.5 -250t-257.5 -99zM391 149q83 0 131 54t48 137t-48 136.5t-131 53.5t-131 -53.5t-48 -136.5t48 -137t131 -54zM462 722h-57l66 182h86zM329 722l40 182h84l-66 -182h-58z" />
    <glyph glyph-name="Ocircumflex" unicode="&#xd4;" 
d="M391 61q120 0 200.5 79.5t80.5 199.5t-80.5 199t-200.5 79t-200.5 -79t-80.5 -199t80.5 -199.5t200.5 -79.5zM391 79q-113 0 -188 74t-75 187t75 186.5t188 73.5t188 -73.5t75 -186.5t-75 -187t-188 -74zM391 -9q-150 0 -257.5 99t-107.5 250t107.5 249.5t257.5 98.5
t257.5 -98.5t107.5 -249.5t-107.5 -250t-257.5 -99zM391 149q83 0 131 54t48 137t-48 136.5t-131 53.5t-131 -53.5t-48 -136.5t48 -137t131 -54zM215 722l172 210q5 6 9 0l172 -210h-64l-112 134l-114 -134h-63zM301 722l91 105l90 -105h-61l-29 29l-30 -29h-61z" />
    <glyph glyph-name="Otilde" unicode="&#xd5;" 
d="M391 61q120 0 200.5 79.5t80.5 199.5t-80.5 199t-200.5 79t-200.5 -79t-80.5 -199t80.5 -199.5t200.5 -79.5zM391 79q-113 0 -188 74t-75 187t75 186.5t188 73.5t188 -73.5t75 -186.5t-75 -187t-188 -74zM391 -9q-150 0 -257.5 99t-107.5 250t107.5 249.5t257.5 98.5
t257.5 -98.5t107.5 -249.5t-107.5 -250t-257.5 -99zM391 149q83 0 131 54t48 137t-48 136.5t-131 53.5t-131 -53.5t-48 -136.5t48 -137t131 -54zM337 832q-32 0 -55.5 -27t-32.5 -76l-51 6q10 76 47 116t83 40q29 0 66.5 -18t44.5 -18q12 0 17.5 7.5t10.5 25.5l50 -6
q-7 -41 -26.5 -64t-42.5 -23q-20 0 -56.5 18.5t-54.5 18.5zM456 718q-29 0 -66.5 18t-44.5 18q-12 0 -17.5 -7.5t-10.5 -25.5l-50 6q7 41 26 64t44 23q17 0 53.5 -18.5t57.5 -18.5q30 0 54.5 27.5t31.5 75.5l52 -6q-9 -74 -47 -115t-83 -41z" />
    <glyph glyph-name="Odieresis" unicode="&#xd6;" 
d="M391 61q120 0 200.5 79.5t80.5 199.5t-80.5 199t-200.5 79t-200.5 -79t-80.5 -199t80.5 -199.5t200.5 -79.5zM391 79q-113 0 -188 74t-75 187t75 186.5t188 73.5t188 -73.5t75 -186.5t-75 -187t-188 -74zM391 -9q-150 0 -257.5 99t-107.5 250t107.5 249.5t257.5 98.5
t257.5 -98.5t107.5 -249.5t-107.5 -250t-257.5 -99zM391 149q83 0 131 54t48 137t-48 136.5t-131 53.5t-131 -53.5t-48 -136.5t48 -137t131 -54zM295 717q-31 0 -55.5 23.5t-24.5 56.5t24.5 56.5t55.5 23.5q32 0 55.5 -23.5t23.5 -56.5t-23.5 -56.5t-55.5 -23.5zM488 717
q-31 0 -55.5 23.5t-24.5 56.5t24.5 56.5t55.5 23.5q32 0 55.5 -23.5t23.5 -56.5t-23.5 -56.5t-55.5 -23.5zM281 797q0 -6 4.5 -10t9.5 -4t9.5 4t4.5 10t-4.5 10t-9.5 4t-9.5 -4t-4.5 -10zM474 797q0 -6 4.5 -10t9.5 -4t9.5 4t4.5 10t-4.5 10t-9.5 4t-9.5 -4t-4.5 -10z" />
    <glyph glyph-name="multiply" unicode="&#xd7;" horiz-adv-x="451" 
d="M24 206l98 98l-98 99l46 46l144 -144l-145 -145zM81 148l145 145l144 -144l-46 -46l-99 98l-98 -98zM427 206l-45 -45l-144 144l143 143l46 -45l-99 -99zM226 317l-144 144l45 45l98 -99l99 99l45 -46z" />
    <glyph glyph-name="Oslash" unicode="&#xd8;" 
d="M391 61q120 0 200.5 79.5t80.5 199.5t-80.5 199t-200.5 79t-200.5 -79t-80.5 -199t80.5 -199.5t200.5 -79.5zM391 79q-113 0 -188 74t-75 187t75 186.5t188 73.5t188 -73.5t75 -186.5t-75 -187t-188 -74zM391 -9q-128 0 -226 73l-67 -65l-58 58l65 63q-79 94 -79 220
q0 151 107.5 249.5t257.5 98.5q125 0 225 -73l66 64l58 -58l-63 -61q79 -95 79 -220q0 -151 -107.5 -250t-257.5 -99zM391 149q83 0 131 54t48 137q0 51 -21 96l-264 -256q43 -31 106 -31zM212 340q0 -54 20 -97l264 256q-46 31 -105 31q-83 0 -131 -53.5t-48 -136.5z" />
    <glyph glyph-name="Ugrave" unicode="&#xd9;" horiz-adv-x="694" 
d="M347 -10q-133 0 -214 70t-81 203v417h82v-416q0 -99 57 -151t156 -52t156 52t57 151v416h82v-417q0 -133 -81 -203t-214 -70zM347 79q-91 0 -143 47.5t-52 137.5v416h82v-415q0 -116 113 -116t113 116v415h82v-416q0 -90 -52 -137.5t-143 -47.5zM338 722h-57l-95 182h86z
M374 904l40 -182h-58l-66 182h84z" />
    <glyph glyph-name="Uacute" unicode="&#xda;" horiz-adv-x="694" 
d="M347 -10q-133 0 -214 70t-81 203v417h82v-416q0 -99 57 -151t156 -52t156 52t57 151v416h82v-417q0 -133 -81 -203t-214 -70zM347 79q-91 0 -143 47.5t-52 137.5v416h82v-415q0 -116 113 -116t113 116v415h82v-416q0 -90 -52 -137.5t-143 -47.5zM418 722h-57l66 182h86z
M285 722l40 182h84l-66 -182h-58z" />
    <glyph glyph-name="Ucircumflex" unicode="&#xdb;" horiz-adv-x="694" 
d="M347 -10q-133 0 -214 70t-81 203v417h82v-416q0 -99 57 -151t156 -52t156 52t57 151v416h82v-417q0 -133 -81 -203t-214 -70zM347 79q-91 0 -143 47.5t-52 137.5v416h82v-415q0 -116 113 -116t113 116v415h82v-416q0 -90 -52 -137.5t-143 -47.5zM171 722l172 210q5 6 9 0
l172 -210h-64l-112 134l-114 -134h-63zM257 722l91 105l90 -105h-61l-29 29l-30 -29h-61z" />
    <glyph glyph-name="Udieresis" unicode="&#xdc;" horiz-adv-x="694" 
d="M347 -10q-133 0 -214 70t-81 203v417h82v-416q0 -99 57 -151t156 -52t156 52t57 151v416h82v-417q0 -133 -81 -203t-214 -70zM347 79q-91 0 -143 47.5t-52 137.5v416h82v-415q0 -116 113 -116t113 116v415h82v-416q0 -90 -52 -137.5t-143 -47.5zM251 717
q-31 0 -55.5 23.5t-24.5 56.5t24.5 56.5t55.5 23.5q32 0 55.5 -23.5t23.5 -56.5t-23.5 -56.5t-55.5 -23.5zM444 717q-31 0 -55.5 23.5t-24.5 56.5t24.5 56.5t55.5 23.5q32 0 55.5 -23.5t23.5 -56.5t-23.5 -56.5t-55.5 -23.5zM237 797q0 -6 4.5 -10t9.5 -4t9.5 4t4.5 10
t-4.5 10t-9.5 4t-9.5 -4t-4.5 -10zM430 797q0 -6 4.5 -10t9.5 -4t9.5 4t4.5 10t-4.5 10t-9.5 4t-9.5 -4t-4.5 -10z" />
    <glyph glyph-name="Yacute" unicode="&#xdd;" horiz-adv-x="666" 
d="M244 263l-240 417h89l233 -412v-268h-82v263zM426 0h-82v267l233 413h85l-236 -412v-268zM338 431l133 249h86l-221 -394l-222 394h90zM408 722h-57l66 182h86zM275 722l40 182h84l-66 -182h-58z" />
    <glyph glyph-name="Thorn" unicode="&#xde;" horiz-adv-x="628" 
d="M159 497h171q82 0 127.5 -41t45.5 -110t-45.5 -109t-127.5 -40h-171v300zM241 113v-113h-82v179h171q91 0 141 45.5t50 121.5q0 77 -50 123t-141 46h-171v165h82v-98h93q127 0 198 -65.5t71 -170.5t-71 -169t-198 -64h-93zM59 0v680h82v-680h-82zM241 263h84q95 0 95 83
q0 84 -95 84h-84v-167z" />
    <glyph glyph-name="germandbls" unicode="&#xdf;" horiz-adv-x="568" 
d="M286 -10q-187 0 -282 126l59 44q79 -103 219 -103q90 0 135.5 38t45.5 105q0 51 -30.5 84t-100.5 56l-85 29q-50 18 -76 45t-26 74q0 54 40 85t100 31q104 0 168 -68l-46 -48q-48 50 -117 50q-32 0 -49 -13t-17 -34q0 -19 11.5 -30t36.5 -20l90 -30q99 -33 140.5 -82
t41.5 -124q0 -99 -64 -157t-194 -58zM282 75q-130 0 -205 96l59 44q60 -74 142 -74q86 0 86 54q0 21 -15.5 33.5t-51.5 24.5l-80 27q-169 56 -169 205q0 96 67.5 149.5t164.5 53.5q149 0 231 -91l-45 -47q-68 72 -181 72q-68 0 -113 -35.5t-45 -98.5q0 -98 115 -136l85 -29
q61 -22 89 -50t28 -73q0 -59 -40.5 -92t-121.5 -33zM854 -10q-104 0 -173.5 37t-108.5 89l59 44q79 -103 219 -103q90 0 135.5 38t45.5 105q0 51 -30.5 84t-100.5 56l-85 29q-50 18 -76 45t-26 74q0 54 40 85t100 31q104 0 168 -68l-46 -48q-48 50 -117 50q-32 0 -49 -13
t-17 -34q0 -19 11 -30t37 -20l90 -30q99 -33 140.5 -82t41.5 -124q0 -99 -64 -157t-194 -58zM850 75q-130 0 -205 96l59 44q60 -74 142 -74q86 0 86 54q0 21 -15.5 33.5t-51.5 24.5l-80 27q-169 56 -169 205q0 96 67.5 149.5t164.5 53.5q149 0 231 -91l-45 -47
q-68 72 -181 72q-68 0 -113 -35.5t-45 -98.5q0 -98 115 -136l85 -29q61 -22 89 -50t28 -73q0 -59 -40.5 -92t-121.5 -33z" />
    <glyph glyph-name="agrave" unicode="&#xe0;" horiz-adv-x="681" 
d="M337 553l-254 -553h-79l326 690q4 8 11 8t11 -8l325 -690h-84zM175 157l162 353l163 -353h-325zM486 0l-35 79h-233l-33 -79h-82l63 139h343l64 -139h-87zM333 352l-57 -135h115zM331 722h-57l-95 182h86zM367 904l40 -182h-58l-66 182h84z" />
    <glyph glyph-name="aacute" unicode="&#xe1;" horiz-adv-x="681" 
d="M337 553l-254 -553h-79l326 690q4 8 11 8t11 -8l325 -690h-84zM175 157l162 353l163 -353h-325zM486 0l-35 79h-233l-33 -79h-82l63 139h343l64 -139h-87zM333 352l-57 -135h115zM411 722h-57l66 182h86zM278 722l40 182h84l-66 -182h-58z" />
    <glyph glyph-name="acircumflex" unicode="&#xe2;" horiz-adv-x="681" 
d="M337 553l-254 -553h-79l326 690q4 8 11 8t11 -8l325 -690h-84zM175 157l162 353l163 -353h-325zM486 0l-35 79h-233l-33 -79h-82l63 139h343l64 -139h-87zM333 352l-57 -135h115zM164 722l172 210q4 6 9 0l172 -210h-64l-112 134l-114 -134h-63zM250 722l91 105l90 -105
h-61l-29 29l-30 -29h-61z" />
    <glyph glyph-name="atilde" unicode="&#xe3;" horiz-adv-x="681" 
d="M337 553l-254 -553h-79l326 690q4 8 11 8t11 -8l325 -690h-84zM175 157l162 353l163 -353h-325zM486 0l-35 79h-233l-33 -79h-82l63 139h343l64 -139h-87zM333 352l-57 -135h115zM286 832q-32 0 -55.5 -27t-32.5 -76l-51 6q10 76 47 116t83 40q29 0 66.5 -18t44.5 -18
q12 0 17.5 7.5t10.5 25.5l50 -6q-7 -41 -26.5 -64t-42.5 -23q-20 0 -56.5 18.5t-54.5 18.5zM405 718q-29 0 -66.5 18t-44.5 18q-12 0 -17.5 -7.5t-10.5 -25.5l-50 6q7 41 26 64t44 23q17 0 53.5 -18.5t57.5 -18.5q30 0 54.5 27.5t31.5 75.5l52 -6q-9 -74 -47 -115t-83 -41z
" />
    <glyph glyph-name="adieresis" unicode="&#xe4;" horiz-adv-x="681" 
d="M337 553l-254 -553h-79l326 690q4 8 11 8t11 -8l325 -690h-84zM175 157l162 353l163 -353h-325zM486 0l-35 79h-233l-33 -79h-82l63 139h343l64 -139h-87zM333 352l-57 -135h115zM244 717q-31 0 -55.5 23.5t-24.5 56.5t24.5 56.5t55.5 23.5q32 0 55.5 -23.5t23.5 -56.5
t-23.5 -56.5t-55.5 -23.5zM437 717q-31 0 -55.5 23.5t-24.5 56.5t24.5 56.5t55.5 23.5q32 0 55.5 -23.5t23.5 -56.5t-23.5 -56.5t-55.5 -23.5zM230 797q0 -6 4.5 -10t9.5 -4t9.5 4t4.5 10t-4.5 10t-9.5 4t-9.5 -4t-4.5 -10zM423 797q0 -6 4.5 -10t9.5 -4t9.5 4t4.5 10
t-4.5 10t-9.5 4t-9.5 -4t-4.5 -10z" />
    <glyph glyph-name="aring" unicode="&#xe5;" horiz-adv-x="681" 
d="M337 553l-254 -553h-79l326 690q4 8 11 8t11 -8l325 -690h-84zM175 157l162 353l163 -353h-325zM486 0l-35 79h-233l-33 -79h-82l63 139h343l64 -139h-87zM333 352l-57 -135h115zM340 726q-51 0 -83.5 32t-32.5 77t32.5 77t83.5 32t83.5 -32t32.5 -77t-32.5 -77
t-83.5 -32zM340 792q18 0 30 11.5t12 31.5q0 19 -12 31t-30 12t-30 -12t-12 -31q0 -20 12 -31.5t30 -11.5z" />
    <glyph glyph-name="ae" unicode="&#xe6;" horiz-adv-x="977" 
d="M934 612h-416l-433 -612h-84l485 680h448v-68zM227 171l299 423h13v-423h-312zM457 0v96h-196l-65 -96h-90l108 153h325v-86h409v-67h-491zM948 153v-68h-391v248h328v-63h-246v-117h309zM885 415v-64h-328v243h377v-67h-295v-112h246zM351 228h106v155z" />
    <glyph glyph-name="ccedilla" unicode="&#xe7;" horiz-adv-x="690" 
d="M372 -222q-83 0 -119 57l68 45q13 -23 35 -23q28 0 28 24q0 25 -34 25h-34v91q-125 21 -207.5 115.5t-82.5 227.5q0 150 102 249t242 99q195 0 294 -146l-61 -42q-78 118 -231 118q-111 0 -186.5 -79t-75.5 -199t77.5 -199.5t192.5 -79.5q85 0 141 33t95 99l63 -40
q-48 -81 -117 -120t-167 -42v-22q36 -6 59.5 -31.5t23.5 -65.5q0 -42 -32.5 -68t-73.5 -26zM372 600q143 0 216 -109l-61 -42q-53 81 -154 81q-73 0 -117 -54t-44 -136t45.5 -136.5t121.5 -54.5q110 0 160 94l62 -40q-35 -63 -88 -93.5t-133 -30.5q-108 0 -180 74t-72 187
q0 112 70.5 186t173.5 74z" />
    <glyph glyph-name="egrave" unicode="&#xe8;" horiz-adv-x="579" 
d="M59 0v680h477v-68h-395v-545h409v-67h-491zM550 153v-68h-391v248h328v-63h-246v-117h309zM487 415v-64h-328v243h377v-67h-295v-112h246zM297 722h-57l-95 182h86zM333 904l40 -182h-58l-66 182h84z" />
    <glyph glyph-name="eacute" unicode="&#xe9;" horiz-adv-x="579" 
d="M59 0v680h477v-68h-395v-545h409v-67h-491zM550 153v-68h-391v248h328v-63h-246v-117h309zM487 415v-64h-328v243h377v-67h-295v-112h246zM377 722h-57l66 182h86zM244 722l40 182h84l-66 -182h-58z" />
    <glyph glyph-name="ecircumflex" unicode="&#xea;" horiz-adv-x="579" 
d="M59 0v680h477v-68h-395v-545h409v-67h-491zM550 153v-68h-391v248h328v-63h-246v-117h309zM487 415v-64h-328v243h377v-67h-295v-112h246zM130 722l172 210q4 6 9 0l172 -210h-64l-112 134l-114 -134h-63zM216 722l91 105l90 -105h-61l-29 29l-30 -29h-61z" />
    <glyph glyph-name="edieresis" unicode="&#xeb;" horiz-adv-x="579" 
d="M59 0v680h477v-68h-395v-545h409v-67h-491zM550 153v-68h-391v248h328v-63h-246v-117h309zM487 415v-64h-328v243h377v-67h-295v-112h246zM210 717q-31 0 -55.5 23.5t-24.5 56.5t24.5 56.5t55.5 23.5q32 0 55.5 -23.5t23.5 -56.5t-23.5 -56.5t-55.5 -23.5zM403 717
q-31 0 -55.5 23.5t-24.5 56.5t24.5 56.5t55.5 23.5q32 0 55.5 -23.5t23.5 -56.5t-23.5 -56.5t-55.5 -23.5zM196 797q0 -6 4.5 -10t9.5 -4t9.5 4t4.5 10t-4.5 10t-9.5 4t-9.5 -4t-4.5 -10zM389 797q0 -6 4.5 -10t9.5 -4t9.5 4t4.5 10t-4.5 10t-9.5 4t-9.5 -4t-4.5 -10z" />
    <glyph glyph-name="igrave" unicode="&#xec;" horiz-adv-x="308" 
d="M245 0h-82v680h82v-680zM63 0v680h82v-680h-82zM145 722h-57l-95 182h86zM181 904l40 -182h-58l-66 182h84z" />
    <glyph glyph-name="iacute" unicode="&#xed;" horiz-adv-x="308" 
d="M245 0h-82v680h82v-680zM63 0v680h82v-680h-82zM225 722h-57l66 182h86zM92 722l40 182h84l-66 -182h-58z" />
    <glyph glyph-name="icircumflex" unicode="&#xee;" horiz-adv-x="308" 
d="M245 0h-82v680h82v-680zM63 0v680h82v-680h-82zM-22 722l172 210q4 6 9 0l172 -210h-64l-112 134l-114 -134h-63zM64 722l91 105l90 -105h-61l-29 29l-30 -29h-61z" />
    <glyph glyph-name="idieresis" unicode="&#xef;" horiz-adv-x="308" 
d="M245 0h-82v680h82v-680zM63 0v680h82v-680h-82zM58 717q-31 0 -55.5 23.5t-24.5 56.5t24.5 56.5t55.5 23.5q32 0 55.5 -23.5t23.5 -56.5t-23.5 -56.5t-55.5 -23.5zM251 717q-31 0 -55.5 23.5t-24.5 56.5t24.5 56.5t55.5 23.5q32 0 55.5 -23.5t23.5 -56.5t-23.5 -56.5
t-55.5 -23.5zM44 797q0 -6 4.5 -10t9.5 -4t9.5 4t4.5 10t-4.5 10t-9.5 4t-9.5 -4t-4.5 -10zM237 797q0 -6 4.5 -10t9.5 -4t9.5 4t4.5 10t-4.5 10t-9.5 4t-9.5 -4t-4.5 -10z" />
    <glyph glyph-name="eth" unicode="&#xf0;" horiz-adv-x="688" 
d="M6 348v62h53v270h263q150 0 247 -92.5t97 -247.5t-97 -247.5t-247 -92.5h-263v269h-53v61h135v-262h171q120 0 195 74t75 198t-75 198t-195 74h-171v-264h-135zM241 526v-116h128v-62h-210v246h153q112 0 182 -69t70 -185t-70 -185t-182 -69h-153v244h210v-61h-128v-115
h61q82 0 130 50.5t48 135.5t-48 135.5t-130 50.5h-61z" />
    <glyph glyph-name="ntilde" unicode="&#xf1;" horiz-adv-x="730" 
d="M135 540v-540h-76v689q0 13 14 2l429 -355v344h76v-503zM657 -12l-429 354v-342h-75v502l443 -363v541h75v-690q0 -13 -14 -2zM300 832q-32 0 -55.5 -27t-32.5 -76l-51 6q10 76 47 116t83 40q29 0 66.5 -18t44.5 -18q12 0 17.5 7.5t10.5 25.5l50 -6q-7 -41 -26.5 -64
t-42.5 -23q-20 0 -56.5 18.5t-54.5 18.5zM419 718q-29 0 -66.5 18t-44.5 18q-12 0 -17.5 -7.5t-10.5 -25.5l-50 6q7 41 26 64t44 23q17 0 53.5 -18.5t57.5 -18.5q30 0 54.5 27.5t31.5 75.5l52 -6q-9 -74 -47 -115t-83 -41z" />
    <glyph glyph-name="ograve" unicode="&#xf2;" 
d="M391 61q120 0 200.5 79.5t80.5 199.5t-80.5 199t-200.5 79t-200.5 -79t-80.5 -199t80.5 -199.5t200.5 -79.5zM391 79q-113 0 -188 74t-75 187t75 186.5t188 73.5t188 -73.5t75 -186.5t-75 -187t-188 -74zM391 -9q-150 0 -257.5 99t-107.5 250t107.5 249.5t257.5 98.5
t257.5 -98.5t107.5 -249.5t-107.5 -250t-257.5 -99zM391 149q83 0 131 54t48 137t-48 136.5t-131 53.5t-131 -53.5t-48 -136.5t48 -137t131 -54zM382 722h-57l-95 182h86zM418 904l40 -182h-58l-66 182h84z" />
    <glyph glyph-name="oacute" unicode="&#xf3;" 
d="M391 61q120 0 200.5 79.5t80.5 199.5t-80.5 199t-200.5 79t-200.5 -79t-80.5 -199t80.5 -199.5t200.5 -79.5zM391 79q-113 0 -188 74t-75 187t75 186.5t188 73.5t188 -73.5t75 -186.5t-75 -187t-188 -74zM391 -9q-150 0 -257.5 99t-107.5 250t107.5 249.5t257.5 98.5
t257.5 -98.5t107.5 -249.5t-107.5 -250t-257.5 -99zM391 149q83 0 131 54t48 137t-48 136.5t-131 53.5t-131 -53.5t-48 -136.5t48 -137t131 -54zM462 722h-57l66 182h86zM329 722l40 182h84l-66 -182h-58z" />
    <glyph glyph-name="ocircumflex" unicode="&#xf4;" 
d="M391 61q120 0 200.5 79.5t80.5 199.5t-80.5 199t-200.5 79t-200.5 -79t-80.5 -199t80.5 -199.5t200.5 -79.5zM391 79q-113 0 -188 74t-75 187t75 186.5t188 73.5t188 -73.5t75 -186.5t-75 -187t-188 -74zM391 -9q-150 0 -257.5 99t-107.5 250t107.5 249.5t257.5 98.5
t257.5 -98.5t107.5 -249.5t-107.5 -250t-257.5 -99zM391 149q83 0 131 54t48 137t-48 136.5t-131 53.5t-131 -53.5t-48 -136.5t48 -137t131 -54zM215 722l172 210q5 6 9 0l172 -210h-64l-112 134l-114 -134h-63zM301 722l91 105l90 -105h-61l-29 29l-30 -29h-61z" />
    <glyph glyph-name="otilde" unicode="&#xf5;" 
d="M391 61q120 0 200.5 79.5t80.5 199.5t-80.5 199t-200.5 79t-200.5 -79t-80.5 -199t80.5 -199.5t200.5 -79.5zM391 79q-113 0 -188 74t-75 187t75 186.5t188 73.5t188 -73.5t75 -186.5t-75 -187t-188 -74zM391 -9q-150 0 -257.5 99t-107.5 250t107.5 249.5t257.5 98.5
t257.5 -98.5t107.5 -249.5t-107.5 -250t-257.5 -99zM391 149q83 0 131 54t48 137t-48 136.5t-131 53.5t-131 -53.5t-48 -136.5t48 -137t131 -54zM337 832q-32 0 -55.5 -27t-32.5 -76l-51 6q10 76 47 116t83 40q29 0 66.5 -18t44.5 -18q12 0 17.5 7.5t10.5 25.5l50 -6
q-7 -41 -26.5 -64t-42.5 -23q-20 0 -56.5 18.5t-54.5 18.5zM456 718q-29 0 -66.5 18t-44.5 18q-12 0 -17.5 -7.5t-10.5 -25.5l-50 6q7 41 26 64t44 23q17 0 53.5 -18.5t57.5 -18.5q30 0 54.5 27.5t31.5 75.5l52 -6q-9 -74 -47 -115t-83 -41z" />
    <glyph glyph-name="odieresis" unicode="&#xf6;" 
d="M391 61q120 0 200.5 79.5t80.5 199.5t-80.5 199t-200.5 79t-200.5 -79t-80.5 -199t80.5 -199.5t200.5 -79.5zM391 79q-113 0 -188 74t-75 187t75 186.5t188 73.5t188 -73.5t75 -186.5t-75 -187t-188 -74zM391 -9q-150 0 -257.5 99t-107.5 250t107.5 249.5t257.5 98.5
t257.5 -98.5t107.5 -249.5t-107.5 -250t-257.5 -99zM391 149q83 0 131 54t48 137t-48 136.5t-131 53.5t-131 -53.5t-48 -136.5t48 -137t131 -54zM295 717q-31 0 -55.5 23.5t-24.5 56.5t24.5 56.5t55.5 23.5q32 0 55.5 -23.5t23.5 -56.5t-23.5 -56.5t-55.5 -23.5zM488 717
q-31 0 -55.5 23.5t-24.5 56.5t24.5 56.5t55.5 23.5q32 0 55.5 -23.5t23.5 -56.5t-23.5 -56.5t-55.5 -23.5zM281 797q0 -6 4.5 -10t9.5 -4t9.5 4t4.5 10t-4.5 10t-9.5 4t-9.5 -4t-4.5 -10zM474 797q0 -6 4.5 -10t9.5 -4t9.5 4t4.5 10t-4.5 10t-9.5 4t-9.5 -4t-4.5 -10z" />
    <glyph glyph-name="divide" unicode="&#xf7;" horiz-adv-x="443" 
d="M222 58q-37 0 -64 25t-27 64t27 64t64 25t64 -25t27 -64t-27 -64t-64 -25zM222 421q-37 0 -64 25t-27 64t27 64t64 25t64 -25t27 -64t-27 -64t-64 -25zM27 403h389v-66h-389v66zM416 254h-389v65h389v-65zM208 147q0 -6 4.5 -10t9.5 -4t9.5 4t4.5 10t-4.5 10t-9.5 4
t-9.5 -4t-4.5 -10zM208 510q0 -6 4.5 -10t9.5 -4t9.5 4t4.5 10t-4.5 10t-9.5 4t-9.5 -4t-4.5 -10z" />
    <glyph glyph-name="oslash" unicode="&#xf8;" 
d="M391 61q120 0 200.5 79.5t80.5 199.5t-80.5 199t-200.5 79t-200.5 -79t-80.5 -199t80.5 -199.5t200.5 -79.5zM391 79q-113 0 -188 74t-75 187t75 186.5t188 73.5t188 -73.5t75 -186.5t-75 -187t-188 -74zM391 -9q-128 0 -226 73l-67 -65l-58 58l65 63q-79 94 -79 220
q0 151 107.5 249.5t257.5 98.5q125 0 225 -73l66 64l58 -58l-63 -61q79 -95 79 -220q0 -151 -107.5 -250t-257.5 -99zM391 149q83 0 131 54t48 137q0 51 -21 96l-264 -256q43 -31 106 -31zM212 340q0 -54 20 -97l264 256q-46 31 -105 31q-83 0 -131 -53.5t-48 -136.5z" />
    <glyph glyph-name="ugrave" unicode="&#xf9;" horiz-adv-x="694" 
d="M347 -10q-133 0 -214 70t-81 203v417h82v-416q0 -99 57 -151t156 -52t156 52t57 151v416h82v-417q0 -133 -81 -203t-214 -70zM347 79q-91 0 -143 47.5t-52 137.5v416h82v-415q0 -116 113 -116t113 116v415h82v-416q0 -90 -52 -137.5t-143 -47.5zM338 722h-57l-95 182h86z
M374 904l40 -182h-58l-66 182h84z" />
    <glyph glyph-name="uacute" unicode="&#xfa;" horiz-adv-x="694" 
d="M347 -10q-133 0 -214 70t-81 203v417h82v-416q0 -99 57 -151t156 -52t156 52t57 151v416h82v-417q0 -133 -81 -203t-214 -70zM347 79q-91 0 -143 47.5t-52 137.5v416h82v-415q0 -116 113 -116t113 116v415h82v-416q0 -90 -52 -137.5t-143 -47.5zM418 722h-57l66 182h86z
M285 722l40 182h84l-66 -182h-58z" />
    <glyph glyph-name="ucircumflex" unicode="&#xfb;" horiz-adv-x="694" 
d="M347 -10q-133 0 -214 70t-81 203v417h82v-416q0 -99 57 -151t156 -52t156 52t57 151v416h82v-417q0 -133 -81 -203t-214 -70zM347 79q-91 0 -143 47.5t-52 137.5v416h82v-415q0 -116 113 -116t113 116v415h82v-416q0 -90 -52 -137.5t-143 -47.5zM171 722l172 210q5 6 9 0
l172 -210h-64l-112 134l-114 -134h-63zM257 722l91 105l90 -105h-61l-29 29l-30 -29h-61z" />
    <glyph glyph-name="udieresis" unicode="&#xfc;" horiz-adv-x="694" 
d="M347 -10q-133 0 -214 70t-81 203v417h82v-416q0 -99 57 -151t156 -52t156 52t57 151v416h82v-417q0 -133 -81 -203t-214 -70zM347 79q-91 0 -143 47.5t-52 137.5v416h82v-415q0 -116 113 -116t113 116v415h82v-416q0 -90 -52 -137.5t-143 -47.5zM251 717
q-31 0 -55.5 23.5t-24.5 56.5t24.5 56.5t55.5 23.5q32 0 55.5 -23.5t23.5 -56.5t-23.5 -56.5t-55.5 -23.5zM444 717q-31 0 -55.5 23.5t-24.5 56.5t24.5 56.5t55.5 23.5q32 0 55.5 -23.5t23.5 -56.5t-23.5 -56.5t-55.5 -23.5zM237 797q0 -6 4.5 -10t9.5 -4t9.5 4t4.5 10
t-4.5 10t-9.5 4t-9.5 -4t-4.5 -10zM430 797q0 -6 4.5 -10t9.5 -4t9.5 4t4.5 10t-4.5 10t-9.5 4t-9.5 -4t-4.5 -10z" />
    <glyph glyph-name="yacute" unicode="&#xfd;" horiz-adv-x="666" 
d="M244 263l-240 417h89l233 -412v-268h-82v263zM426 0h-82v267l233 413h85l-236 -412v-268zM338 431l133 249h86l-221 -394l-222 394h90zM408 722h-57l66 182h86zM275 722l40 182h84l-66 -182h-58z" />
    <glyph glyph-name="thorn" unicode="&#xfe;" horiz-adv-x="628" 
d="M159 497h171q82 0 127.5 -41t45.5 -110t-45.5 -109t-127.5 -40h-171v300zM241 113v-113h-82v179h171q91 0 141 45.5t50 121.5q0 77 -50 123t-141 46h-171v165h82v-98h93q127 0 198 -65.5t71 -170.5t-71 -169t-198 -64h-93zM59 0v680h82v-680h-82zM241 263h84q95 0 95 83
q0 84 -95 84h-84v-167z" />
    <glyph glyph-name="ydieresis" unicode="&#xff;" horiz-adv-x="666" 
d="M244 263l-240 417h89l233 -412v-268h-82v263zM426 0h-82v267l233 413h85l-236 -412v-268zM338 431l133 249h86l-221 -394l-222 394h90zM241 717q-31 0 -55.5 23.5t-24.5 56.5t24.5 56.5t55.5 23.5q32 0 55.5 -23.5t23.5 -56.5t-23.5 -56.5t-55.5 -23.5zM434 717
q-31 0 -55.5 23.5t-24.5 56.5t24.5 56.5t55.5 23.5q32 0 55.5 -23.5t23.5 -56.5t-23.5 -56.5t-55.5 -23.5zM227 797q0 -6 4.5 -10t9.5 -4t9.5 4t4.5 10t-4.5 10t-9.5 4t-9.5 -4t-4.5 -10zM420 797q0 -6 4.5 -10t9.5 -4t9.5 4t4.5 10t-4.5 10t-9.5 4t-9.5 -4t-4.5 -10z" />
    <glyph glyph-name="Amacron" unicode="&#x100;" horiz-adv-x="681" 
d="M337 553l-254 -553h-79l326 690q4 8 11 8t11 -8l325 -690h-84zM175 157l162 353l163 -353h-325zM486 0l-35 79h-233l-33 -79h-82l63 139h343l64 -139h-87zM333 352l-57 -135h115zM198 799v59h284v-59h-284zM198 722v59h284v-59h-284z" />
    <glyph glyph-name="amacron" unicode="&#x101;" horiz-adv-x="681" 
d="M337 553l-254 -553h-79l326 690q4 8 11 8t11 -8l325 -690h-84zM175 157l162 353l163 -353h-325zM486 0l-35 79h-233l-33 -79h-82l63 139h343l64 -139h-87zM333 352l-57 -135h115zM198 799v59h284v-59h-284zM198 722v59h284v-59h-284z" />
    <glyph glyph-name="Abreve" unicode="&#x102;" horiz-adv-x="681" 
d="M337 553l-254 -553h-79l326 690q4 8 11 8t11 -8l325 -690h-84zM175 157l162 353l163 -353h-325zM486 0l-35 79h-233l-33 -79h-82l63 139h343l64 -139h-87zM333 352l-57 -135h115zM340 715q-73 0 -120.5 41t-54.5 104l57 4q5 -42 37 -68.5t81 -26.5t80 26.5t37 68.5l57 -4
q-7 -63 -54 -104t-120 -41zM340 787q-41 0 -68 22t-32 56l59 3q5 -30 41 -30t41 30l57 -3q-5 -34 -31 -56t-67 -22z" />
    <glyph glyph-name="abreve" unicode="&#x103;" horiz-adv-x="681" 
d="M337 553l-254 -553h-79l326 690q4 8 11 8t11 -8l325 -690h-84zM175 157l162 353l163 -353h-325zM486 0l-35 79h-233l-33 -79h-82l63 139h343l64 -139h-87zM333 352l-57 -135h115zM340 715q-73 0 -120.5 41t-54.5 104l57 4q5 -42 37 -68.5t81 -26.5t80 26.5t37 68.5l57 -4
q-7 -63 -54 -104t-120 -41zM340 787q-41 0 -68 22t-32 56l59 3q5 -30 41 -30t41 30l57 -3q-5 -34 -31 -56t-67 -22z" />
    <glyph glyph-name="Aogonek" unicode="&#x104;" horiz-adv-x="681" 
d="M537 -107q0 53 57 106l-257 554l-254 -553h-79l331 692q2 5 6 5t6 -5l325 -682q-70 -64 -70 -97q0 -20 23 -20q12 0 26 8l19 -35q-25 -23 -73 -23q-60 0 -60 50zM175 157l162 353l163 -353h-325zM489 0l-36 82h-237l-34 -82h-79l63 139h343l64 -139q-54 -51 -54 -107
q0 -31 21 -49t57 -18q51 0 82 24l21 -38q-43 -35 -120 -35q-58 0 -93 29.5t-35 78.5q0 63 63 115h-26zM333 358l-61 -144h123z" />
    <glyph glyph-name="aogonek" unicode="&#x105;" horiz-adv-x="681" 
d="M537 -107q0 53 57 106l-257 554l-254 -553h-79l331 692q2 5 6 5t6 -5l325 -682q-70 -64 -70 -97q0 -20 23 -20q12 0 26 8l19 -35q-25 -23 -73 -23q-60 0 -60 50zM175 157l162 353l163 -353h-325zM489 0l-36 82h-237l-34 -82h-79l63 139h343l64 -139q-54 -51 -54 -107
q0 -31 21 -49t57 -18q51 0 82 24l21 -38q-43 -35 -120 -35q-58 0 -93 29.5t-35 78.5q0 63 63 115h-26zM333 358l-61 -144h123z" />
    <glyph glyph-name="Cacute" unicode="&#x106;" horiz-adv-x="690" 
d="M679 153q-50 -84 -122.5 -123t-176.5 -39q-146 0 -250 99t-104 250q0 150 102 249t242 99q195 0 294 -146l-61 -42q-78 118 -231 118q-111 0 -186.5 -79t-75.5 -199t77.5 -199.5t192.5 -79.5q85 0 141 33t95 99zM372 600q143 0 216 -109l-61 -42q-53 81 -154 81
q-73 0 -117 -54t-44 -136t45.5 -136.5t121.5 -54.5q110 0 160 94l62 -40q-35 -63 -88 -93.5t-133 -30.5q-108 0 -180 74t-72 187q0 112 70.5 186t173.5 74zM434 722h-57l66 182h86zM301 722l40 182h84l-66 -182h-58z" />
    <glyph glyph-name="cacute" unicode="&#x107;" horiz-adv-x="690" 
d="M679 153q-50 -84 -122.5 -123t-176.5 -39q-146 0 -250 99t-104 250q0 150 102 249t242 99q195 0 294 -146l-61 -42q-78 118 -231 118q-111 0 -186.5 -79t-75.5 -199t77.5 -199.5t192.5 -79.5q85 0 141 33t95 99zM372 600q143 0 216 -109l-61 -42q-53 81 -154 81
q-73 0 -117 -54t-44 -136t45.5 -136.5t121.5 -54.5q110 0 160 94l62 -40q-35 -63 -88 -93.5t-133 -30.5q-108 0 -180 74t-72 187q0 112 70.5 186t173.5 74zM434 722h-57l66 182h86zM301 722l40 182h84l-66 -182h-58z" />
    <glyph glyph-name="Ccircumflex" unicode="&#x108;" horiz-adv-x="690" 
d="M679 153q-50 -84 -122.5 -123t-176.5 -39q-146 0 -250 99t-104 250q0 150 102 249t242 99q195 0 294 -146l-61 -42q-78 118 -231 118q-111 0 -186.5 -79t-75.5 -199t77.5 -199.5t192.5 -79.5q85 0 141 33t95 99zM372 600q143 0 216 -109l-61 -42q-53 81 -154 81
q-73 0 -117 -54t-44 -136t45.5 -136.5t121.5 -54.5q110 0 160 94l62 -40q-35 -63 -88 -93.5t-133 -30.5q-108 0 -180 74t-72 187q0 112 70.5 186t173.5 74zM187 722l172 210q5 6 9 0l172 -210h-64l-112 134l-114 -134h-63zM273 722l91 105l90 -105h-61l-29 29l-30 -29h-61z
" />
    <glyph glyph-name="ccircumflex" unicode="&#x109;" horiz-adv-x="690" 
d="M679 153q-50 -84 -122.5 -123t-176.5 -39q-146 0 -250 99t-104 250q0 150 102 249t242 99q195 0 294 -146l-61 -42q-78 118 -231 118q-111 0 -186.5 -79t-75.5 -199t77.5 -199.5t192.5 -79.5q85 0 141 33t95 99zM372 600q143 0 216 -109l-61 -42q-53 81 -154 81
q-73 0 -117 -54t-44 -136t45.5 -136.5t121.5 -54.5q110 0 160 94l62 -40q-35 -63 -88 -93.5t-133 -30.5q-108 0 -180 74t-72 187q0 112 70.5 186t173.5 74zM187 722l172 210q5 6 9 0l172 -210h-64l-112 134l-114 -134h-63zM273 722l91 105l90 -105h-61l-29 29l-30 -29h-61z
" />
    <glyph glyph-name="Cdotaccent" unicode="&#x10a;" horiz-adv-x="690" 
d="M679 153q-50 -84 -122.5 -123t-176.5 -39q-146 0 -250 99t-104 250q0 150 102 249t242 99q195 0 294 -146l-61 -42q-78 118 -231 118q-111 0 -186.5 -79t-75.5 -199t77.5 -199.5t192.5 -79.5q85 0 141 33t95 99zM372 600q143 0 216 -109l-61 -42q-53 81 -154 81
q-73 0 -117 -54t-44 -136t45.5 -136.5t121.5 -54.5q110 0 160 94l62 -40q-35 -63 -88 -93.5t-133 -30.5q-108 0 -180 74t-72 187q0 112 70.5 186t173.5 74zM364 717q-31 0 -55.5 23.5t-24.5 56.5t24.5 56.5t55.5 23.5q32 0 55.5 -23.5t23.5 -56.5t-23.5 -56.5t-55.5 -23.5z
M350 797q0 -6 4.5 -10t9.5 -4t9.5 4t4.5 10t-4.5 10t-9.5 4t-9.5 -4t-4.5 -10z" />
    <glyph glyph-name="cdotaccent" unicode="&#x10b;" horiz-adv-x="690" 
d="M679 153q-50 -84 -122.5 -123t-176.5 -39q-146 0 -250 99t-104 250q0 150 102 249t242 99q195 0 294 -146l-61 -42q-78 118 -231 118q-111 0 -186.5 -79t-75.5 -199t77.5 -199.5t192.5 -79.5q85 0 141 33t95 99zM372 600q143 0 216 -109l-61 -42q-53 81 -154 81
q-73 0 -117 -54t-44 -136t45.5 -136.5t121.5 -54.5q110 0 160 94l62 -40q-35 -63 -88 -93.5t-133 -30.5q-108 0 -180 74t-72 187q0 112 70.5 186t173.5 74zM364 717q-31 0 -55.5 23.5t-24.5 56.5t24.5 56.5t55.5 23.5q32 0 55.5 -23.5t23.5 -56.5t-23.5 -56.5t-55.5 -23.5z
M350 797q0 -6 4.5 -10t9.5 -4t9.5 4t4.5 10t-4.5 10t-9.5 4t-9.5 -4t-4.5 -10z" />
    <glyph glyph-name="Ccaron" unicode="&#x10c;" horiz-adv-x="690" 
d="M679 153q-50 -84 -122.5 -123t-176.5 -39q-146 0 -250 99t-104 250q0 150 102 249t242 99q195 0 294 -146l-61 -42q-78 118 -231 118q-111 0 -186.5 -79t-75.5 -199t77.5 -199.5t192.5 -79.5q85 0 141 33t95 99zM372 600q143 0 216 -109l-61 -42q-53 81 -154 81
q-73 0 -117 -54t-44 -136t45.5 -136.5t121.5 -54.5q110 0 160 94l62 -40q-35 -63 -88 -93.5t-133 -30.5q-108 0 -180 74t-72 187q0 112 70.5 186t173.5 74zM540 923l-172 -210q-4 -6 -9 0l-172 210h64l112 -134l114 134h63zM454 923l-91 -105l-90 105h61l29 -29l30 29h61z
" />
    <glyph glyph-name="ccaron" unicode="&#x10d;" horiz-adv-x="690" 
d="M679 153q-50 -84 -122.5 -123t-176.5 -39q-146 0 -250 99t-104 250q0 150 102 249t242 99q195 0 294 -146l-61 -42q-78 118 -231 118q-111 0 -186.5 -79t-75.5 -199t77.5 -199.5t192.5 -79.5q85 0 141 33t95 99zM372 600q143 0 216 -109l-61 -42q-53 81 -154 81
q-73 0 -117 -54t-44 -136t45.5 -136.5t121.5 -54.5q110 0 160 94l62 -40q-35 -63 -88 -93.5t-133 -30.5q-108 0 -180 74t-72 187q0 112 70.5 186t173.5 74zM540 923l-172 -210q-4 -6 -9 0l-172 210h64l112 -134l114 134h63zM454 923l-91 -105l-90 105h61l29 -29l30 29h61z
" />
    <glyph glyph-name="Dcaron" unicode="&#x10e;" horiz-adv-x="688" 
d="M141 612v-544h171q120 0 195 74t75 198t-75 198t-195 74h-171zM159 86v508h153q112 0 182 -69t70 -185t-70 -185t-182 -69h-153zM59 0v680h263q150 0 247 -92.5t97 -247.5t-97 -247.5t-247 -92.5h-263zM241 154h61q82 0 130 50.5t48 135.5t-48 135.5t-130 50.5h-61v-372z
M485 923l-172 -210q-5 -6 -9 0l-172 210h64l112 -134l114 134h63zM399 923l-91 -105l-90 105h61l29 -29l30 29h61z" />
    <glyph glyph-name="dcaron" unicode="&#x10f;" horiz-adv-x="688" 
d="M141 612v-544h171q120 0 195 74t75 198t-75 198t-195 74h-171zM159 86v508h153q112 0 182 -69t70 -185t-70 -185t-182 -69h-153zM59 0v680h263q150 0 247 -92.5t97 -247.5t-97 -247.5t-247 -92.5h-263zM241 154h61q82 0 130 50.5t48 135.5t-48 135.5t-130 50.5h-61v-372z
M485 923l-172 -210q-5 -6 -9 0l-172 210h64l112 -134l114 134h63zM399 923l-91 -105l-90 105h61l29 -29l30 29h61z" />
    <glyph glyph-name="Dcroat" unicode="&#x110;" horiz-adv-x="688" 
d="M6 348v62h53v270h263q150 0 247 -92.5t97 -247.5t-97 -247.5t-247 -92.5h-263v269h-53v61h135v-262h171q120 0 195 74t75 198t-75 198t-195 74h-171v-264h-135zM241 526v-116h128v-62h-210v246h153q112 0 182 -69t70 -185t-70 -185t-182 -69h-153v244h210v-61h-128v-115
h61q82 0 130 50.5t48 135.5t-48 135.5t-130 50.5h-61z" />
    <glyph glyph-name="dcroat" unicode="&#x111;" horiz-adv-x="688" 
d="M6 348v62h53v270h263q150 0 247 -92.5t97 -247.5t-97 -247.5t-247 -92.5h-263v269h-53v61h135v-262h171q120 0 195 74t75 198t-75 198t-195 74h-171v-264h-135zM241 526v-116h128v-62h-210v246h153q112 0 182 -69t70 -185t-70 -185t-182 -69h-153v244h210v-61h-128v-115
h61q82 0 130 50.5t48 135.5t-48 135.5t-130 50.5h-61z" />
    <glyph glyph-name="Emacron" unicode="&#x112;" horiz-adv-x="579" 
d="M59 0v680h477v-68h-395v-545h409v-67h-491zM550 153v-68h-391v248h328v-63h-246v-117h309zM487 415v-64h-328v243h377v-67h-295v-112h246zM164 799v59h284v-59h-284zM164 722v59h284v-59h-284z" />
    <glyph glyph-name="emacron" unicode="&#x113;" horiz-adv-x="579" 
d="M59 0v680h477v-68h-395v-545h409v-67h-491zM550 153v-68h-391v248h328v-63h-246v-117h309zM487 415v-64h-328v243h377v-67h-295v-112h246zM164 799v59h284v-59h-284zM164 722v59h284v-59h-284z" />
    <glyph glyph-name="Edotaccent" unicode="&#x116;" horiz-adv-x="579" 
d="M59 0v680h477v-68h-395v-545h409v-67h-491zM550 153v-68h-391v248h328v-63h-246v-117h309zM487 415v-64h-328v243h377v-67h-295v-112h246zM307 717q-31 0 -55.5 23.5t-24.5 56.5t24.5 56.5t55.5 23.5q32 0 55.5 -23.5t23.5 -56.5t-23.5 -56.5t-55.5 -23.5zM293 797
q0 -6 4.5 -10t9.5 -4t9.5 4t4.5 10t-4.5 10t-9.5 4t-9.5 -4t-4.5 -10z" />
    <glyph glyph-name="edotaccent" unicode="&#x117;" horiz-adv-x="579" 
d="M59 0v680h477v-68h-395v-545h409v-67h-491zM550 153v-68h-391v248h328v-63h-246v-117h309zM487 415v-64h-328v243h377v-67h-295v-112h246zM307 717q-31 0 -55.5 23.5t-24.5 56.5t24.5 56.5t55.5 23.5q32 0 55.5 -23.5t23.5 -56.5t-23.5 -56.5t-55.5 -23.5zM293 797
q0 -6 4.5 -10t9.5 -4t9.5 4t4.5 10t-4.5 10t-9.5 4t-9.5 -4t-4.5 -10z" />
    <glyph glyph-name="Eogonek" unicode="&#x118;" horiz-adv-x="579" 
d="M59 0v680h477v-68h-395v-545h380q-158 -101 -158 -174q0 -31 21 -49t56 -18q50 0 81 24l21 -38q-43 -35 -120 -35q-58 0 -92 28.5t-34 76.5q0 65 72 118h-309zM550 153v-68h-391v248h328v-63h-246v-117h309zM487 415v-64h-328v243h377v-67h-295v-112h246zM381 -107
q0 69 169 174v-67h-25q-79 -55 -79 -88q0 -19 21 -19q12 0 26 8l19 -35q-25 -23 -72 -23q-59 0 -59 50z" />
    <glyph glyph-name="eogonek" unicode="&#x119;" horiz-adv-x="579" 
d="M59 0v680h477v-68h-395v-545h380q-158 -101 -158 -174q0 -31 21 -49t56 -18q50 0 81 24l21 -38q-43 -35 -120 -35q-58 0 -92 28.5t-34 76.5q0 65 72 118h-309zM550 153v-68h-391v248h328v-63h-246v-117h309zM487 415v-64h-328v243h377v-67h-295v-112h246zM381 -107
q0 69 169 174v-67h-25q-79 -55 -79 -88q0 -19 21 -19q12 0 26 8l19 -35q-25 -23 -72 -23q-59 0 -59 50z" />
    <glyph glyph-name="Ecaron" unicode="&#x11a;" horiz-adv-x="579" 
d="M59 0v680h477v-68h-395v-545h409v-67h-491zM550 153v-68h-391v248h328v-63h-246v-117h309zM487 415v-64h-328v243h377v-67h-295v-112h246zM483 923l-172 -210q-5 -6 -9 0l-172 210h64l112 -134l114 134h63zM397 923l-91 -105l-90 105h61l29 -29l30 29h61z" />
    <glyph glyph-name="ecaron" unicode="&#x11b;" horiz-adv-x="579" 
d="M59 0v680h477v-68h-395v-545h409v-67h-491zM550 153v-68h-391v248h328v-63h-246v-117h309zM487 415v-64h-328v243h377v-67h-295v-112h246zM483 923l-172 -210q-5 -6 -9 0l-172 210h64l112 -134l114 134h63zM397 923l-91 -105l-90 105h61l29 -29l30 29h61z" />
    <glyph glyph-name="Gcircumflex" unicode="&#x11c;" horiz-adv-x="720" 
d="M616 318h-225v63h297v-296q-114 -94 -296 -94q-153 0 -259.5 99t-106.5 250t106 249.5t256 98.5q179 0 273 -121l-57 -49q-80 100 -218 100q-119 0 -197.5 -79t-78.5 -199q0 -121 80 -201t203 -80q133 0 223 65v194zM526 171v66h-135v63h207v-168q-79 -55 -205 -55
q-116 0 -190.5 74.5t-74.5 188.5q0 113 73.5 186.5t184.5 73.5q132 0 205 -94l-57 -49q-56 73 -150 73q-81 0 -126.5 -53.5t-45.5 -136.5q0 -84 48 -140t134 -56q76 0 132 27zM207 722l172 210q5 6 9 0l172 -210h-64l-112 134l-114 -134h-63zM293 722l91 105l90 -105h-61
l-29 29l-30 -29h-61z" />
    <glyph glyph-name="gcircumflex" unicode="&#x11d;" horiz-adv-x="720" 
d="M616 318h-225v63h297v-296q-114 -94 -296 -94q-153 0 -259.5 99t-106.5 250t106 249.5t256 98.5q179 0 273 -121l-57 -49q-80 100 -218 100q-119 0 -197.5 -79t-78.5 -199q0 -121 80 -201t203 -80q133 0 223 65v194zM526 171v66h-135v63h207v-168q-79 -55 -205 -55
q-116 0 -190.5 74.5t-74.5 188.5q0 113 73.5 186.5t184.5 73.5q132 0 205 -94l-57 -49q-56 73 -150 73q-81 0 -126.5 -53.5t-45.5 -136.5q0 -84 48 -140t134 -56q76 0 132 27zM207 722l172 210q5 6 9 0l172 -210h-64l-112 134l-114 -134h-63zM293 722l91 105l90 -105h-61
l-29 29l-30 -29h-61z" />
    <glyph glyph-name="Gbreve" unicode="&#x11e;" horiz-adv-x="720" 
d="M616 318h-225v63h297v-296q-114 -94 -296 -94q-153 0 -259.5 99t-106.5 250t106 249.5t256 98.5q179 0 273 -121l-57 -49q-80 100 -218 100q-119 0 -197.5 -79t-78.5 -199q0 -121 80 -201t203 -80q133 0 223 65v194zM526 171v66h-135v63h207v-168q-79 -55 -205 -55
q-116 0 -190.5 74.5t-74.5 188.5q0 113 73.5 186.5t184.5 73.5q132 0 205 -94l-57 -49q-56 73 -150 73q-81 0 -126.5 -53.5t-45.5 -136.5q0 -84 48 -140t134 -56q76 0 132 27zM383 715q-73 0 -120.5 41t-54.5 104l57 4q5 -42 37 -68.5t81 -26.5t80 26.5t37 68.5l57 -4
q-7 -63 -54 -104t-120 -41zM383 787q-41 0 -68 22t-32 56l59 3q5 -30 41 -30t41 30l57 -3q-5 -34 -31 -56t-67 -22z" />
    <glyph glyph-name="gbreve" unicode="&#x11f;" horiz-adv-x="720" 
d="M616 318h-225v63h297v-296q-114 -94 -296 -94q-153 0 -259.5 99t-106.5 250t106 249.5t256 98.5q179 0 273 -121l-57 -49q-80 100 -218 100q-119 0 -197.5 -79t-78.5 -199q0 -121 80 -201t203 -80q133 0 223 65v194zM526 171v66h-135v63h207v-168q-79 -55 -205 -55
q-116 0 -190.5 74.5t-74.5 188.5q0 113 73.5 186.5t184.5 73.5q132 0 205 -94l-57 -49q-56 73 -150 73q-81 0 -126.5 -53.5t-45.5 -136.5q0 -84 48 -140t134 -56q76 0 132 27zM383 715q-73 0 -120.5 41t-54.5 104l57 4q5 -42 37 -68.5t81 -26.5t80 26.5t37 68.5l57 -4
q-7 -63 -54 -104t-120 -41zM383 787q-41 0 -68 22t-32 56l59 3q5 -30 41 -30t41 30l57 -3q-5 -34 -31 -56t-67 -22z" />
    <glyph glyph-name="Gdotaccent" unicode="&#x120;" horiz-adv-x="720" 
d="M616 318h-225v63h297v-296q-114 -94 -296 -94q-153 0 -259.5 99t-106.5 250t106 249.5t256 98.5q179 0 273 -121l-57 -49q-80 100 -218 100q-119 0 -197.5 -79t-78.5 -199q0 -121 80 -201t203 -80q133 0 223 65v194zM526 171v66h-135v63h207v-168q-79 -55 -205 -55
q-116 0 -190.5 74.5t-74.5 188.5q0 113 73.5 186.5t184.5 73.5q132 0 205 -94l-57 -49q-56 73 -150 73q-81 0 -126.5 -53.5t-45.5 -136.5q0 -84 48 -140t134 -56q76 0 132 27zM384 717q-31 0 -55.5 23.5t-24.5 56.5t24.5 56.5t55.5 23.5q32 0 55.5 -23.5t23.5 -56.5
t-23.5 -56.5t-55.5 -23.5zM370 797q0 -6 4.5 -10t9.5 -4t9.5 4t4.5 10t-4.5 10t-9.5 4t-9.5 -4t-4.5 -10z" />
    <glyph glyph-name="gdotaccent" unicode="&#x121;" horiz-adv-x="720" 
d="M616 318h-225v63h297v-296q-114 -94 -296 -94q-153 0 -259.5 99t-106.5 250t106 249.5t256 98.5q179 0 273 -121l-57 -49q-80 100 -218 100q-119 0 -197.5 -79t-78.5 -199q0 -121 80 -201t203 -80q133 0 223 65v194zM526 171v66h-135v63h207v-168q-79 -55 -205 -55
q-116 0 -190.5 74.5t-74.5 188.5q0 113 73.5 186.5t184.5 73.5q132 0 205 -94l-57 -49q-56 73 -150 73q-81 0 -126.5 -53.5t-45.5 -136.5q0 -84 48 -140t134 -56q76 0 132 27zM384 717q-31 0 -55.5 23.5t-24.5 56.5t24.5 56.5t55.5 23.5q32 0 55.5 -23.5t23.5 -56.5
t-23.5 -56.5t-55.5 -23.5zM370 797q0 -6 4.5 -10t9.5 -4t9.5 4t4.5 10t-4.5 10t-9.5 4t-9.5 -4t-4.5 -10z" />
    <glyph glyph-name="Gcommaaccent" unicode="&#x122;" horiz-adv-x="720" 
d="M616 318h-225v63h297v-296q-114 -94 -296 -94q-153 0 -259.5 99t-106.5 250t106 249.5t256 98.5q179 0 273 -121l-57 -49q-80 100 -218 100q-119 0 -197.5 -79t-78.5 -199q0 -121 80 -201t203 -80q133 0 223 65v194zM526 171v66h-135v63h207v-168q-79 -55 -205 -55
q-116 0 -190.5 74.5t-74.5 188.5q0 113 73.5 186.5t184.5 73.5q132 0 205 -94l-57 -49q-56 73 -150 73q-81 0 -126.5 -53.5t-45.5 -136.5q0 -84 48 -140t134 -56q76 0 132 27zM320 -267l24 74q-42 21 -42 71q0 33 24 55.5t56 22.5t55.5 -22t23.5 -55q0 -32 -35 -83l-43 -63
h-63zM369 -124q0 -13 13 -13t13 13t-13 13t-13 -13z" />
    <glyph glyph-name="gcommaaccent" unicode="&#x123;" horiz-adv-x="720" 
d="M616 318h-225v63h297v-296q-114 -94 -296 -94q-153 0 -259.5 99t-106.5 250t106 249.5t256 98.5q179 0 273 -121l-57 -49q-80 100 -218 100q-119 0 -197.5 -79t-78.5 -199q0 -121 80 -201t203 -80q133 0 223 65v194zM526 171v66h-135v63h207v-168q-79 -55 -205 -55
q-116 0 -190.5 74.5t-74.5 188.5q0 113 73.5 186.5t184.5 73.5q132 0 205 -94l-57 -49q-56 73 -150 73q-81 0 -126.5 -53.5t-45.5 -136.5q0 -84 48 -140t134 -56q76 0 132 27zM320 -267l24 74q-42 21 -42 71q0 33 24 55.5t56 22.5t55.5 -22t23.5 -55q0 -32 -35 -83l-43 -63
h-63zM369 -124q0 -13 13 -13t13 13t-13 13t-13 -13z" />
    <glyph glyph-name="Hcircumflex" unicode="&#x124;" horiz-adv-x="718" 
d="M241 0h-82v333h400v-333h-82v266h-236v-266zM477 419v261h82v-329h-400v329h82v-261h236zM59 0v680h82v-680h-82zM659 0h-82v680h82v-680zM183 722l172 210q5 6 9 0l172 -210h-64l-112 134l-114 -134h-63zM269 722l91 105l90 -105h-61l-29 29l-30 -29h-61z" />
    <glyph glyph-name="hcircumflex" unicode="&#x125;" horiz-adv-x="718" 
d="M241 0h-82v333h400v-333h-82v266h-236v-266zM477 419v261h82v-329h-400v329h82v-261h236zM59 0v680h82v-680h-82zM659 0h-82v680h82v-680zM183 722l172 210q5 6 9 0l172 -210h-64l-112 134l-114 -134h-63zM269 722l91 105l90 -105h-61l-29 29l-30 -29h-61z" />
    <glyph glyph-name="Hbar" unicode="&#x126;" horiz-adv-x="718" 
d="M241 680v-116h236v116h82v-329h-400v329h82zM241 0h-82v333h400v-333h-82v266h-236v-266zM659 0h-82v680h82v-116h50v-78h-50v-486zM59 0v486h-50v78h50v116h82v-680h-82zM477 419v67h-236v-67h236z" />
    <glyph glyph-name="hbar" unicode="&#x127;" horiz-adv-x="718" 
d="M241 680v-116h236v116h82v-329h-400v329h82zM241 0h-82v333h400v-333h-82v266h-236v-266zM659 0h-82v680h82v-116h50v-78h-50v-486zM59 0v486h-50v78h50v116h82v-680h-82zM477 419v67h-236v-67h236z" />
    <glyph glyph-name="Imacron" unicode="&#x12a;" horiz-adv-x="308" 
d="M245 0h-82v680h82v-680zM63 0v680h82v-680h-82zM12 799v59h284v-59h-284zM12 722v59h284v-59h-284z" />
    <glyph glyph-name="imacron" unicode="&#x12b;" horiz-adv-x="308" 
d="M245 0h-82v680h82v-680zM63 0v680h82v-680h-82zM12 799v59h284v-59h-284zM12 722v59h284v-59h-284z" />
    <glyph glyph-name="Iogonek" unicode="&#x12e;" horiz-adv-x="308" 
d="M63 0v680h82v-682q-51 -62 -51 -102q0 -33 21.5 -51t56.5 -18q49 0 79 23l21 -38q-43 -35 -111 -35q-63 0 -99 28.5t-36 74.5q0 69 73 120h-36zM112 -104q0 37 51 100v684h82v-676q-71 -50 -71 -91q0 -20 23 -20q12 0 26 8l19 -35q-24 -22 -70 -22q-60 0 -60 52z" />
    <glyph glyph-name="iogonek" unicode="&#x12f;" horiz-adv-x="308" 
d="M63 0v680h82v-682q-51 -62 -51 -102q0 -33 21.5 -51t56.5 -18q49 0 79 23l21 -38q-43 -35 -111 -35q-63 0 -99 28.5t-36 74.5q0 69 73 120h-36zM112 -104q0 37 51 100v684h82v-676q-71 -50 -71 -91q0 -20 23 -20q12 0 26 8l19 -35q-24 -22 -70 -22q-60 0 -60 52z" />
    <glyph glyph-name="Idotaccent" unicode="&#x130;" horiz-adv-x="308" 
d="M245 0h-82v680h82v-680zM63 0v680h82v-680h-82zM155 717q-31 0 -55.5 23.5t-24.5 56.5t24.5 56.5t55.5 23.5q32 0 55.5 -23.5t23.5 -56.5t-23.5 -56.5t-55.5 -23.5zM141 797q0 -6 4.5 -10t9.5 -4t9.5 4t4.5 10t-4.5 10t-9.5 4t-9.5 -4t-4.5 -10z" />
    <glyph glyph-name="dotlessi" unicode="&#x131;" horiz-adv-x="308" 
d="M245 0h-82v680h82v-680zM63 0v680h82v-680h-82z" />
    <glyph glyph-name="Jcircumflex" unicode="&#x134;" horiz-adv-x="486" 
d="M432 680v-489q0 -96 -54.5 -148.5t-153.5 -52.5q-158 0 -218 113l63 40q44 -84 145 -84q65 0 100.5 35.5t35.5 103.5v482h82zM84 153l62 40q10 -17 14.5 -24t16.5 -15t26 -8q47 0 47 58v476h82v-482q0 -59 -31 -90t-87 -31q-91 0 -130 76zM161 722l172 210q5 6 9 0
l172 -210h-64l-112 134l-114 -134h-63zM247 722l91 105l90 -105h-61l-29 29l-30 -29h-61z" />
    <glyph glyph-name="jcircumflex" unicode="&#x135;" horiz-adv-x="486" 
d="M432 680v-489q0 -96 -54.5 -148.5t-153.5 -52.5q-158 0 -218 113l63 40q44 -84 145 -84q65 0 100.5 35.5t35.5 103.5v482h82zM84 153l62 40q10 -17 14.5 -24t16.5 -15t26 -8q47 0 47 58v476h82v-482q0 -59 -31 -90t-87 -31q-91 0 -130 76zM161 722l172 210q5 6 9 0
l172 -210h-64l-112 134l-114 -134h-63zM247 722l91 105l90 -105h-61l-29 29l-30 -29h-61z" />
    <glyph glyph-name="Kcommaaccent" unicode="&#x136;" horiz-adv-x="682" 
d="M560 680h88l-226 -295l253 -385h-97l-254 379zM241 406l204 274h94l-380 -485v485h82v-274zM59 0v680h82v-680h-82zM460 0l-160 244l-59 -74v-170h-82v168l154 197l245 -365h-98zM270 -267l24 74q-42 21 -42 71q0 33 24 55.5t56 22.5t55.5 -22t23.5 -55q0 -32 -35 -83
l-43 -63h-63zM319 -124q0 -13 13 -13t13 13t-13 13t-13 -13z" />
    <glyph glyph-name="kcommaaccent" unicode="&#x137;" horiz-adv-x="682" 
d="M560 680h88l-226 -295l253 -385h-97l-254 379zM241 406l204 274h94l-380 -485v485h82v-274zM59 0v680h82v-680h-82zM460 0l-160 244l-59 -74v-170h-82v168l154 197l245 -365h-98zM270 -267l24 74q-42 21 -42 71q0 33 24 55.5t56 22.5t55.5 -22t23.5 -55q0 -32 -35 -83
l-43 -63h-63zM319 -124q0 -13 13 -13t13 13t-13 13t-13 -13z" />
    <glyph glyph-name="Lacute" unicode="&#x139;" horiz-adv-x="555" 
d="M59 0v680h82v-613h389v-67h-471zM530 153v-68h-371v595h82v-527h289zM220 722h-57l66 182h86zM87 722l40 182h84l-66 -182h-58z" />
    <glyph glyph-name="lacute" unicode="&#x13a;" horiz-adv-x="555" 
d="M59 0v680h82v-613h389v-67h-471zM530 153v-68h-371v595h82v-527h289zM220 722h-57l66 182h86zM87 722l40 182h84l-66 -182h-58z" />
    <glyph glyph-name="Lcommaaccent" unicode="&#x13b;" horiz-adv-x="555" 
d="M59 0v680h82v-613h389v-67h-471zM530 153v-68h-371v595h82v-527h289zM231 -267l24 74q-42 21 -42 71q0 33 24 55.5t56 22.5t55.5 -22t23.5 -55q0 -32 -35 -83l-43 -63h-63zM280 -124q0 -13 13 -13t13 13t-13 13t-13 -13z" />
    <glyph glyph-name="lcommaaccent" unicode="&#x13c;" horiz-adv-x="555" 
d="M59 0v680h82v-613h389v-67h-471zM530 153v-68h-371v595h82v-527h289zM231 -267l24 74q-42 21 -42 71q0 33 24 55.5t56 22.5t55.5 -22t23.5 -55q0 -32 -35 -83l-43 -63h-63zM280 -124q0 -13 13 -13t13 13t-13 13t-13 -13z" />
    <glyph glyph-name="Lcaron" unicode="&#x13d;" horiz-adv-x="555" 
d="M59 0v680h82v-613h389v-67h-471zM530 153v-68h-371v595h82v-527h289zM351 465l24 74q-42 21 -42 71q0 33 24 55.5t56 22.5t55.5 -22t23.5 -55q0 -32 -35 -83l-43 -63h-63zM400 608q0 -13 13 -13t13 13t-13 13t-13 -13z" />
    <glyph glyph-name="lcaron" unicode="&#x13e;" horiz-adv-x="555" 
d="M59 0v680h82v-613h389v-67h-471zM530 153v-68h-371v595h82v-527h289zM351 465l24 74q-42 21 -42 71q0 33 24 55.5t56 22.5t55.5 -22t23.5 -55q0 -32 -35 -83l-43 -63h-63zM400 608q0 -13 13 -13t13 13t-13 13t-13 -13z" />
    <glyph glyph-name="Lslash" unicode="&#x141;" horiz-adv-x="564" 
d="M68 0v211l-58 -21v71l140 50v-244h389v-67h-471zM539 153v-68h-371v233l233 83v-71l-151 -54v-123h289zM401 490v-71l-233 -83v344h82v-244zM150 680v-351l-140 -50v71l58 21v309h82z" />
    <glyph glyph-name="lslash" unicode="&#x142;" horiz-adv-x="564" 
d="M68 0v211l-58 -21v71l140 50v-244h389v-67h-471zM539 153v-68h-371v233l233 83v-71l-151 -54v-123h289zM401 490v-71l-233 -83v344h82v-244zM150 680v-351l-140 -50v71l58 21v309h82z" />
    <glyph glyph-name="Nacute" unicode="&#x143;" horiz-adv-x="730" 
d="M135 540v-540h-76v689q0 13 14 2l429 -355v344h76v-503zM657 -12l-429 354v-342h-75v502l443 -363v541h75v-690q0 -13 -14 -2zM415 722h-57l66 182h86zM282 722l40 182h84l-66 -182h-58z" />
    <glyph glyph-name="nacute" unicode="&#x144;" horiz-adv-x="730" 
d="M135 540v-540h-76v689q0 13 14 2l429 -355v344h76v-503zM657 -12l-429 354v-342h-75v502l443 -363v541h75v-690q0 -13 -14 -2zM415 722h-57l66 182h86zM282 722l40 182h84l-66 -182h-58z" />
    <glyph glyph-name="Ncommaaccent" unicode="&#x145;" horiz-adv-x="730" 
d="M135 540v-540h-76v689q0 13 14 2l429 -355v344h76v-503zM657 -12l-429 354v-342h-75v502l443 -363v541h75v-690q0 -13 -14 -2zM311 -267l24 74q-42 21 -42 71q0 33 24 55.5t56 22.5t55.5 -22t23.5 -55q0 -32 -35 -83l-43 -63h-63zM360 -124q0 -13 13 -13t13 13t-13 13
t-13 -13z" />
    <glyph glyph-name="ncommaaccent" unicode="&#x146;" horiz-adv-x="730" 
d="M135 540v-540h-76v689q0 13 14 2l429 -355v344h76v-503zM657 -12l-429 354v-342h-75v502l443 -363v541h75v-690q0 -13 -14 -2zM311 -267l24 74q-42 21 -42 71q0 33 24 55.5t56 22.5t55.5 -22t23.5 -55q0 -32 -35 -83l-43 -63h-63zM360 -124q0 -13 13 -13t13 13t-13 13
t-13 -13z" />
    <glyph glyph-name="Ncaron" unicode="&#x147;" horiz-adv-x="730" 
d="M135 540v-540h-76v689q0 13 14 2l429 -355v344h76v-503zM657 -12l-429 354v-342h-75v502l443 -363v541h75v-690q0 -13 -14 -2zM531 923l-172 -210q-5 -6 -9 0l-172 210h64l112 -134l114 134h63zM445 923l-91 -105l-90 105h61l29 -29l30 29h61z" />
    <glyph glyph-name="ncaron" unicode="&#x148;" horiz-adv-x="730" 
d="M135 540v-540h-76v689q0 13 14 2l429 -355v344h76v-503zM657 -12l-429 354v-342h-75v502l443 -363v541h75v-690q0 -13 -14 -2zM531 923l-172 -210q-5 -6 -9 0l-172 210h64l112 -134l114 134h63zM445 923l-91 -105l-90 105h61l29 -29l30 29h61z" />
    <glyph glyph-name="Omacron" unicode="&#x14c;" 
d="M391 61q120 0 200.5 79.5t80.5 199.5t-80.5 199t-200.5 79t-200.5 -79t-80.5 -199t80.5 -199.5t200.5 -79.5zM391 79q-113 0 -188 74t-75 187t75 186.5t188 73.5t188 -73.5t75 -186.5t-75 -187t-188 -74zM391 -9q-150 0 -257.5 99t-107.5 250t107.5 249.5t257.5 98.5
t257.5 -98.5t107.5 -249.5t-107.5 -250t-257.5 -99zM391 149q83 0 131 54t48 137t-48 136.5t-131 53.5t-131 -53.5t-48 -136.5t48 -137t131 -54zM249 799v59h284v-59h-284zM249 722v59h284v-59h-284z" />
    <glyph glyph-name="omacron" unicode="&#x14d;" 
d="M391 61q120 0 200.5 79.5t80.5 199.5t-80.5 199t-200.5 79t-200.5 -79t-80.5 -199t80.5 -199.5t200.5 -79.5zM391 79q-113 0 -188 74t-75 187t75 186.5t188 73.5t188 -73.5t75 -186.5t-75 -187t-188 -74zM391 -9q-150 0 -257.5 99t-107.5 250t107.5 249.5t257.5 98.5
t257.5 -98.5t107.5 -249.5t-107.5 -250t-257.5 -99zM391 149q83 0 131 54t48 137t-48 136.5t-131 53.5t-131 -53.5t-48 -136.5t48 -137t131 -54zM249 799v59h284v-59h-284zM249 722v59h284v-59h-284z" />
    <glyph glyph-name="Ohungarumlaut" unicode="&#x150;" 
d="M391 61q120 0 200.5 79.5t80.5 199.5t-80.5 199t-200.5 79t-200.5 -79t-80.5 -199t80.5 -199.5t200.5 -79.5zM391 79q-113 0 -188 74t-75 187t75 186.5t188 73.5t188 -73.5t75 -186.5t-75 -187t-188 -74zM391 -9q-150 0 -257.5 99t-107.5 250t107.5 249.5t257.5 98.5
t257.5 -98.5t107.5 -249.5t-107.5 -250t-257.5 -99zM391 149q83 0 131 54t48 137t-48 136.5t-131 53.5t-131 -53.5t-48 -136.5t48 -137t131 -54zM361 722h-57l59 182h79zM228 722l40 182h77l-59 -182h-58zM565 722h-57l59 182h79zM432 722l40 182h77l-59 -182h-58z" />
    <glyph glyph-name="ohungarumlaut" unicode="&#x151;" 
d="M391 61q120 0 200.5 79.5t80.5 199.5t-80.5 199t-200.5 79t-200.5 -79t-80.5 -199t80.5 -199.5t200.5 -79.5zM391 79q-113 0 -188 74t-75 187t75 186.5t188 73.5t188 -73.5t75 -186.5t-75 -187t-188 -74zM391 -9q-150 0 -257.5 99t-107.5 250t107.5 249.5t257.5 98.5
t257.5 -98.5t107.5 -249.5t-107.5 -250t-257.5 -99zM391 149q83 0 131 54t48 137t-48 136.5t-131 53.5t-131 -53.5t-48 -136.5t48 -137t131 -54zM361 722h-57l59 182h79zM228 722l40 182h77l-59 -182h-58zM565 722h-57l59 182h79zM432 722l40 182h77l-59 -182h-58z" />
    <glyph glyph-name="OE" unicode="&#x152;" horiz-adv-x="969" 
d="M380 594h152v-509h-152q-112 0 -182 69.5t-70 185.5t70 185t182 69zM380 67h560v-67h-570q-150 0 -247 92.5t-97 247.5t97 247.5t247 92.5h556v-68h-546q-120 0 -195 -74t-75 -198q0 -125 75 -199t195 -74zM451 526h-61q-82 0 -130 -50.5t-48 -135.5t48 -136t130 -51h61
v373zM940 153v-68h-390v248h327v-63h-246v-117h309zM877 415v-64h-327v243h376v-67h-295v-112h246z" />
    <glyph glyph-name="oe" unicode="&#x153;" horiz-adv-x="969" 
d="M380 594h152v-509h-152q-112 0 -182 69.5t-70 185.5t70 185t182 69zM380 67h560v-67h-570q-150 0 -247 92.5t-97 247.5t97 247.5t247 92.5h556v-68h-546q-120 0 -195 -74t-75 -198q0 -125 75 -199t195 -74zM451 526h-61q-82 0 -130 -50.5t-48 -135.5t48 -136t130 -51h61
v373zM940 153v-68h-390v248h327v-63h-246v-117h309zM877 415v-64h-327v243h376v-67h-295v-112h246z" />
    <glyph glyph-name="Racute" unicode="&#x154;" horiz-adv-x="647" 
d="M141 612v-612h-82v680h275q127 0 198 -67t71 -174q0 -141 -124 -198l141 -241h-89l-158 277q71 10 109.5 52.5t38.5 109.5q0 79 -50 126t-141 47h-189zM330 292h-171v302h171q82 0 127.5 -42t45.5 -113q0 -68 -45.5 -107.5t-127.5 -39.5zM241 213v-213h-82v274h171
q13 0 24 1l157 -275h-88l-120 213h-62zM241 352h84q95 0 95 87t-95 87h-84v-174zM369 722h-57l66 182h86zM236 722l40 182h84l-66 -182h-58z" />
    <glyph glyph-name="racute" unicode="&#x155;" horiz-adv-x="647" 
d="M141 612v-612h-82v680h275q127 0 198 -67t71 -174q0 -141 -124 -198l141 -241h-89l-158 277q71 10 109.5 52.5t38.5 109.5q0 79 -50 126t-141 47h-189zM330 292h-171v302h171q82 0 127.5 -42t45.5 -113q0 -68 -45.5 -107.5t-127.5 -39.5zM241 213v-213h-82v274h171
q13 0 24 1l157 -275h-88l-120 213h-62zM241 352h84q95 0 95 87t-95 87h-84v-174zM369 722h-57l66 182h86zM236 722l40 182h84l-66 -182h-58z" />
    <glyph glyph-name="Rcommaaccent" unicode="&#x156;" horiz-adv-x="647" 
d="M141 612v-612h-82v680h275q127 0 198 -67t71 -174q0 -141 -124 -198l141 -241h-89l-158 277q71 10 109.5 52.5t38.5 109.5q0 79 -50 126t-141 47h-189zM330 292h-171v302h171q82 0 127.5 -42t45.5 -113q0 -68 -45.5 -107.5t-127.5 -39.5zM241 213v-213h-82v274h171
q13 0 24 1l157 -275h-88l-120 213h-62zM241 352h84q95 0 95 87t-95 87h-84v-174zM258 -267l24 74q-42 21 -42 71q0 33 24 55.5t56 22.5t55.5 -22t23.5 -55q0 -32 -35 -83l-43 -63h-63zM307 -124q0 -13 13 -13t13 13t-13 13t-13 -13z" />
    <glyph glyph-name="rcommaaccent" unicode="&#x157;" horiz-adv-x="647" 
d="M141 612v-612h-82v680h275q127 0 198 -67t71 -174q0 -141 -124 -198l141 -241h-89l-158 277q71 10 109.5 52.5t38.5 109.5q0 79 -50 126t-141 47h-189zM330 292h-171v302h171q82 0 127.5 -42t45.5 -113q0 -68 -45.5 -107.5t-127.5 -39.5zM241 213v-213h-82v274h171
q13 0 24 1l157 -275h-88l-120 213h-62zM241 352h84q95 0 95 87t-95 87h-84v-174zM258 -267l24 74q-42 21 -42 71q0 33 24 55.5t56 22.5t55.5 -22t23.5 -55q0 -32 -35 -83l-43 -63h-63zM307 -124q0 -13 13 -13t13 13t-13 13t-13 -13z" />
    <glyph glyph-name="Rcaron" unicode="&#x158;" horiz-adv-x="647" 
d="M141 612v-612h-82v680h275q127 0 198 -67t71 -174q0 -141 -124 -198l141 -241h-89l-158 277q71 10 109.5 52.5t38.5 109.5q0 79 -50 126t-141 47h-189zM330 292h-171v302h171q82 0 127.5 -42t45.5 -113q0 -68 -45.5 -107.5t-127.5 -39.5zM241 213v-213h-82v274h171
q13 0 24 1l157 -275h-88l-120 213h-62zM241 352h84q95 0 95 87t-95 87h-84v-174zM475 923l-172 -210q-5 -6 -9 0l-172 210h64l112 -134l114 134h63zM389 923l-91 -105l-90 105h61l29 -29l30 29h61z" />
    <glyph glyph-name="rcaron" unicode="&#x159;" horiz-adv-x="647" 
d="M141 612v-612h-82v680h275q127 0 198 -67t71 -174q0 -141 -124 -198l141 -241h-89l-158 277q71 10 109.5 52.5t38.5 109.5q0 79 -50 126t-141 47h-189zM330 292h-171v302h171q82 0 127.5 -42t45.5 -113q0 -68 -45.5 -107.5t-127.5 -39.5zM241 213v-213h-82v274h171
q13 0 24 1l157 -275h-88l-120 213h-62zM241 352h84q95 0 95 87t-95 87h-84v-174zM475 923l-172 -210q-5 -6 -9 0l-172 210h64l112 -134l114 134h63zM389 923l-91 -105l-90 105h61l29 -29l30 29h61z" />
    <glyph glyph-name="Sacute" unicode="&#x15a;" horiz-adv-x="568" 
d="M286 -10q-187 0 -282 126l59 44q79 -103 219 -103q90 0 135.5 38t45.5 105q0 51 -30.5 84t-100.5 56l-85 29q-50 18 -76 45t-26 74q0 54 40 85t100 31q104 0 168 -68l-46 -48q-48 50 -117 50q-32 0 -49 -13t-17 -34q0 -19 11.5 -30t36.5 -20l90 -30q99 -33 140.5 -82
t41.5 -124q0 -99 -64 -157t-194 -58zM282 75q-130 0 -205 96l59 44q60 -74 142 -74q86 0 86 54q0 21 -15.5 33.5t-51.5 24.5l-80 27q-169 56 -169 205q0 96 67.5 149.5t164.5 53.5q149 0 231 -91l-45 -47q-68 72 -181 72q-68 0 -113 -35.5t-45 -98.5q0 -98 115 -136l85 -29
q61 -22 89 -50t28 -73q0 -59 -40.5 -92t-121.5 -33zM355 722h-57l66 182h86zM222 722l40 182h84l-66 -182h-58z" />
    <glyph glyph-name="sacute" unicode="&#x15b;" horiz-adv-x="568" 
d="M286 -10q-187 0 -282 126l59 44q79 -103 219 -103q90 0 135.5 38t45.5 105q0 51 -30.5 84t-100.5 56l-85 29q-50 18 -76 45t-26 74q0 54 40 85t100 31q104 0 168 -68l-46 -48q-48 50 -117 50q-32 0 -49 -13t-17 -34q0 -19 11.5 -30t36.5 -20l90 -30q99 -33 140.5 -82
t41.5 -124q0 -99 -64 -157t-194 -58zM282 75q-130 0 -205 96l59 44q60 -74 142 -74q86 0 86 54q0 21 -15.5 33.5t-51.5 24.5l-80 27q-169 56 -169 205q0 96 67.5 149.5t164.5 53.5q149 0 231 -91l-45 -47q-68 72 -181 72q-68 0 -113 -35.5t-45 -98.5q0 -98 115 -136l85 -29
q61 -22 89 -50t28 -73q0 -59 -40.5 -92t-121.5 -33zM355 722h-57l66 182h86zM222 722l40 182h84l-66 -182h-58z" />
    <glyph glyph-name="Scircumflex" unicode="&#x15c;" horiz-adv-x="568" 
d="M286 -10q-187 0 -282 126l59 44q79 -103 219 -103q90 0 135.5 38t45.5 105q0 51 -30.5 84t-100.5 56l-85 29q-50 18 -76 45t-26 74q0 54 40 85t100 31q104 0 168 -68l-46 -48q-48 50 -117 50q-32 0 -49 -13t-17 -34q0 -19 11.5 -30t36.5 -20l90 -30q99 -33 140.5 -82
t41.5 -124q0 -99 -64 -157t-194 -58zM282 75q-130 0 -205 96l59 44q60 -74 142 -74q86 0 86 54q0 21 -15.5 33.5t-51.5 24.5l-80 27q-169 56 -169 205q0 96 67.5 149.5t164.5 53.5q149 0 231 -91l-45 -47q-68 72 -181 72q-68 0 -113 -35.5t-45 -98.5q0 -98 115 -136l85 -29
q61 -22 89 -50t28 -73q0 -59 -40.5 -92t-121.5 -33zM108 722l172 210q4 6 9 0l172 -210h-64l-112 134l-114 -134h-63zM194 722l91 105l90 -105h-61l-29 29l-30 -29h-61z" />
    <glyph glyph-name="scircumflex" unicode="&#x15d;" horiz-adv-x="568" 
d="M286 -10q-187 0 -282 126l59 44q79 -103 219 -103q90 0 135.5 38t45.5 105q0 51 -30.5 84t-100.5 56l-85 29q-50 18 -76 45t-26 74q0 54 40 85t100 31q104 0 168 -68l-46 -48q-48 50 -117 50q-32 0 -49 -13t-17 -34q0 -19 11.5 -30t36.5 -20l90 -30q99 -33 140.5 -82
t41.5 -124q0 -99 -64 -157t-194 -58zM282 75q-130 0 -205 96l59 44q60 -74 142 -74q86 0 86 54q0 21 -15.5 33.5t-51.5 24.5l-80 27q-169 56 -169 205q0 96 67.5 149.5t164.5 53.5q149 0 231 -91l-45 -47q-68 72 -181 72q-68 0 -113 -35.5t-45 -98.5q0 -98 115 -136l85 -29
q61 -22 89 -50t28 -73q0 -59 -40.5 -92t-121.5 -33zM108 722l172 210q4 6 9 0l172 -210h-64l-112 134l-114 -134h-63zM194 722l91 105l90 -105h-61l-29 29l-30 -29h-61z" />
    <glyph glyph-name="Scedilla" unicode="&#x15e;" horiz-adv-x="568" 
d="M296 -222q-83 0 -119 57l68 45q13 -23 35 -23q28 0 28 24q0 25 -34 25h-34v86q-155 15 -236 124l59 44q79 -103 219 -103q90 0 135.5 38t45.5 105q0 51 -30.5 84t-100.5 56l-85 29q-50 18 -76 45t-26 74q0 54 40 85t100 31q104 0 168 -68l-46 -48q-48 50 -117 50
q-32 0 -49 -13t-17 -34q0 -19 11.5 -30t36.5 -20l90 -30q99 -33 140.5 -82t41.5 -124q0 -92 -56 -149.5t-169 -64.5v-22q36 -6 59.5 -31.5t23.5 -65.5q0 -42 -32.5 -68t-73.5 -26zM282 75q-130 0 -205 96l59 44q60 -74 142 -74q86 0 86 54q0 21 -15.5 33.5t-51.5 24.5
l-80 27q-169 56 -169 205q0 96 67.5 149.5t164.5 53.5q149 0 231 -91l-45 -47q-68 72 -181 72q-68 0 -113 -35.5t-45 -98.5q0 -98 115 -136l85 -29q61 -22 89 -50t28 -73q0 -59 -40.5 -92t-121.5 -33z" />
    <glyph glyph-name="scedilla" unicode="&#x15f;" horiz-adv-x="568" 
d="M296 -222q-83 0 -119 57l68 45q13 -23 35 -23q28 0 28 24q0 25 -34 25h-34v86q-155 15 -236 124l59 44q79 -103 219 -103q90 0 135.5 38t45.5 105q0 51 -30.5 84t-100.5 56l-85 29q-50 18 -76 45t-26 74q0 54 40 85t100 31q104 0 168 -68l-46 -48q-48 50 -117 50
q-32 0 -49 -13t-17 -34q0 -19 11.5 -30t36.5 -20l90 -30q99 -33 140.5 -82t41.5 -124q0 -92 -56 -149.5t-169 -64.5v-22q36 -6 59.5 -31.5t23.5 -65.5q0 -42 -32.5 -68t-73.5 -26zM282 75q-130 0 -205 96l59 44q60 -74 142 -74q86 0 86 54q0 21 -15.5 33.5t-51.5 24.5
l-80 27q-169 56 -169 205q0 96 67.5 149.5t164.5 53.5q149 0 231 -91l-45 -47q-68 72 -181 72q-68 0 -113 -35.5t-45 -98.5q0 -98 115 -136l85 -29q61 -22 89 -50t28 -73q0 -59 -40.5 -92t-121.5 -33z" />
    <glyph glyph-name="Scaron" unicode="&#x160;" horiz-adv-x="568" 
d="M286 -10q-187 0 -282 126l59 44q79 -103 219 -103q90 0 135.5 38t45.5 105q0 51 -30.5 84t-100.5 56l-85 29q-50 18 -76 45t-26 74q0 54 40 85t100 31q104 0 168 -68l-46 -48q-48 50 -117 50q-32 0 -49 -13t-17 -34q0 -19 11.5 -30t36.5 -20l90 -30q99 -33 140.5 -82
t41.5 -124q0 -99 -64 -157t-194 -58zM282 75q-130 0 -205 96l59 44q60 -74 142 -74q86 0 86 54q0 21 -15.5 33.5t-51.5 24.5l-80 27q-169 56 -169 205q0 96 67.5 149.5t164.5 53.5q149 0 231 -91l-45 -47q-68 72 -181 72q-68 0 -113 -35.5t-45 -98.5q0 -98 115 -136l85 -29
q61 -22 89 -50t28 -73q0 -59 -40.5 -92t-121.5 -33zM461 923l-172 -210q-5 -6 -9 0l-172 210h64l112 -134l114 134h63zM375 923l-91 -105l-90 105h61l29 -29l30 29h61z" />
    <glyph glyph-name="scaron" unicode="&#x161;" horiz-adv-x="568" 
d="M286 -10q-187 0 -282 126l59 44q79 -103 219 -103q90 0 135.5 38t45.5 105q0 51 -30.5 84t-100.5 56l-85 29q-50 18 -76 45t-26 74q0 54 40 85t100 31q104 0 168 -68l-46 -48q-48 50 -117 50q-32 0 -49 -13t-17 -34q0 -19 11.5 -30t36.5 -20l90 -30q99 -33 140.5 -82
t41.5 -124q0 -99 -64 -157t-194 -58zM282 75q-130 0 -205 96l59 44q60 -74 142 -74q86 0 86 54q0 21 -15.5 33.5t-51.5 24.5l-80 27q-169 56 -169 205q0 96 67.5 149.5t164.5 53.5q149 0 231 -91l-45 -47q-68 72 -181 72q-68 0 -113 -35.5t-45 -98.5q0 -98 115 -136l85 -29
q61 -22 89 -50t28 -73q0 -59 -40.5 -92t-121.5 -33zM461 923l-172 -210q-5 -6 -9 0l-172 210h64l112 -134l114 134h63zM375 923l-91 -105l-90 105h61l29 -29l30 29h61z" />
    <glyph glyph-name="Tcommaaccent" unicode="&#x162;" horiz-adv-x="588" 
d="M385 0h-82v594h262v-67h-180v-527zM203 0v527h-180v67h262v-594h-82zM565 680v-68h-542v68h542zM231 -267l24 74q-42 21 -42 71q0 33 24 55.5t56 22.5t55.5 -22t23.5 -55q0 -32 -35 -83l-43 -63h-63zM280 -124q0 -13 13 -13t13 13t-13 13t-13 -13z" />
    <glyph glyph-name="tcommaaccent" unicode="&#x163;" horiz-adv-x="588" 
d="M385 0h-82v594h262v-67h-180v-527zM203 0v527h-180v67h262v-594h-82zM565 680v-68h-542v68h542zM231 -267l24 74q-42 21 -42 71q0 33 24 55.5t56 22.5t55.5 -22t23.5 -55q0 -32 -35 -83l-43 -63h-63zM280 -124q0 -13 13 -13t13 13t-13 13t-13 -13z" />
    <glyph glyph-name="Tcaron" unicode="&#x164;" horiz-adv-x="588" 
d="M385 0h-82v594h262v-67h-180v-527zM203 0v527h-180v67h262v-594h-82zM565 680v-68h-542v68h542zM471 923l-172 -210q-5 -6 -9 0l-172 210h64l112 -134l114 134h63zM385 923l-91 -105l-90 105h61l29 -29l30 29h61z" />
    <glyph glyph-name="tcaron" unicode="&#x165;" horiz-adv-x="588" 
d="M385 0h-82v594h262v-67h-180v-527zM203 0v527h-180v67h262v-594h-82zM565 680v-68h-542v68h542zM471 923l-172 -210q-5 -6 -9 0l-172 210h64l112 -134l114 134h63zM385 923l-91 -105l-90 105h61l29 -29l30 29h61z" />
    <glyph glyph-name="Umacron" unicode="&#x16a;" horiz-adv-x="694" 
d="M347 -10q-133 0 -214 70t-81 203v417h82v-416q0 -99 57 -151t156 -52t156 52t57 151v416h82v-417q0 -133 -81 -203t-214 -70zM347 79q-91 0 -143 47.5t-52 137.5v416h82v-415q0 -116 113 -116t113 116v415h82v-416q0 -90 -52 -137.5t-143 -47.5zM205 799v59h284v-59h-284
zM205 722v59h284v-59h-284z" />
    <glyph glyph-name="umacron" unicode="&#x16b;" horiz-adv-x="694" 
d="M347 -10q-133 0 -214 70t-81 203v417h82v-416q0 -99 57 -151t156 -52t156 52t57 151v416h82v-417q0 -133 -81 -203t-214 -70zM347 79q-91 0 -143 47.5t-52 137.5v416h82v-415q0 -116 113 -116t113 116v415h82v-416q0 -90 -52 -137.5t-143 -47.5zM205 799v59h284v-59h-284
zM205 722v59h284v-59h-284z" />
    <glyph glyph-name="Ubreve" unicode="&#x16c;" horiz-adv-x="694" 
d="M347 -10q-133 0 -214 70t-81 203v417h82v-416q0 -99 57 -151t156 -52t156 52t57 151v416h82v-417q0 -133 -81 -203t-214 -70zM347 79q-91 0 -143 47.5t-52 137.5v416h82v-415q0 -116 113 -116t113 116v415h82v-416q0 -90 -52 -137.5t-143 -47.5zM347 715q-73 0 -120.5 41
t-54.5 104l57 4q5 -42 37 -68.5t81 -26.5t80 26.5t37 68.5l57 -4q-7 -63 -54 -104t-120 -41zM347 787q-41 0 -68 22t-32 56l59 3q5 -30 41 -30t41 30l57 -3q-5 -34 -31 -56t-67 -22z" />
    <glyph glyph-name="ubreve" unicode="&#x16d;" horiz-adv-x="694" 
d="M347 -10q-133 0 -214 70t-81 203v417h82v-416q0 -99 57 -151t156 -52t156 52t57 151v416h82v-417q0 -133 -81 -203t-214 -70zM347 79q-91 0 -143 47.5t-52 137.5v416h82v-415q0 -116 113 -116t113 116v415h82v-416q0 -90 -52 -137.5t-143 -47.5zM347 715q-73 0 -120.5 41
t-54.5 104l57 4q5 -42 37 -68.5t81 -26.5t80 26.5t37 68.5l57 -4q-7 -63 -54 -104t-120 -41zM347 787q-41 0 -68 22t-32 56l59 3q5 -30 41 -30t41 30l57 -3q-5 -34 -31 -56t-67 -22z" />
    <glyph glyph-name="Uring" unicode="&#x16e;" horiz-adv-x="694" 
d="M347 -10q-133 0 -214 70t-81 203v417h82v-416q0 -99 57 -151t156 -52t156 52t57 151v416h82v-417q0 -133 -81 -203t-214 -70zM347 79q-91 0 -143 47.5t-52 137.5v416h82v-415q0 -116 113 -116t113 116v415h82v-416q0 -90 -52 -137.5t-143 -47.5zM347 696q-51 0 -83.5 32
t-32.5 77t32.5 77t83.5 32t83.5 -32t32.5 -77t-32.5 -77t-83.5 -32zM347 762q18 0 30 11.5t12 31.5q0 19 -12 31t-30 12t-30 -12t-12 -31q0 -20 12 -31.5t30 -11.5z" />
    <glyph glyph-name="uring" unicode="&#x16f;" horiz-adv-x="694" 
d="M347 -10q-133 0 -214 70t-81 203v417h82v-416q0 -99 57 -151t156 -52t156 52t57 151v416h82v-417q0 -133 -81 -203t-214 -70zM347 79q-91 0 -143 47.5t-52 137.5v416h82v-415q0 -116 113 -116t113 116v415h82v-416q0 -90 -52 -137.5t-143 -47.5zM347 696q-51 0 -83.5 32
t-32.5 77t32.5 77t83.5 32t83.5 -32t32.5 -77t-32.5 -77t-83.5 -32zM347 762q18 0 30 11.5t12 31.5q0 19 -12 31t-30 12t-30 -12t-12 -31q0 -20 12 -31.5t30 -11.5z" />
    <glyph glyph-name="Uhungarumlaut" unicode="&#x170;" horiz-adv-x="694" 
d="M347 -10q-133 0 -214 70t-81 203v417h82v-416q0 -99 57 -151t156 -52t156 52t57 151v416h82v-417q0 -133 -81 -203t-214 -70zM347 79q-91 0 -143 47.5t-52 137.5v416h82v-415q0 -116 113 -116t113 116v415h82v-416q0 -90 -52 -137.5t-143 -47.5zM317 722h-57l59 182h79z
M184 722l40 182h77l-59 -182h-58zM521 722h-57l59 182h79zM388 722l40 182h77l-59 -182h-58z" />
    <glyph glyph-name="uhungarumlaut" unicode="&#x171;" horiz-adv-x="694" 
d="M347 -10q-133 0 -214 70t-81 203v417h82v-416q0 -99 57 -151t156 -52t156 52t57 151v416h82v-417q0 -133 -81 -203t-214 -70zM347 79q-91 0 -143 47.5t-52 137.5v416h82v-415q0 -116 113 -116t113 116v415h82v-416q0 -90 -52 -137.5t-143 -47.5zM317 722h-57l59 182h79z
M184 722l40 182h77l-59 -182h-58zM521 722h-57l59 182h79zM388 722l40 182h77l-59 -182h-58z" />
    <glyph glyph-name="Uogonek" unicode="&#x172;" horiz-adv-x="694" 
d="M347 79q-91 0 -143 47t-52 138v416h82v-415q0 -116 113 -116t113 116v415h82v-416q0 -91 -52 -138t-143 -47zM266 -114q0 57 50 105q-119 8 -191.5 77.5t-72.5 194.5v417h82v-416q0 -99 57 -151t156 -52q50 0 91 16q-105 -95 -105 -178q0 -33 21 -53t58 -20q45 0 78 24
l21 -38q-43 -35 -120 -35q-58 0 -91.5 29t-33.5 80zM351 -101q0 52 40.5 103t106.5 107q62 51 62 155v416h82v-417q0 -133 -92 -209q-16 -13 -46.5 -35.5t-46.5 -35.5t-30 -31.5t-14 -34.5q0 -24 23 -24q12 0 26 8l19 -35q-27 -23 -69 -23q-61 0 -61 56z" />
    <glyph glyph-name="uogonek" unicode="&#x173;" horiz-adv-x="694" 
d="M347 79q-91 0 -143 47t-52 138v416h82v-415q0 -116 113 -116t113 116v415h82v-416q0 -91 -52 -138t-143 -47zM266 -114q0 57 50 105q-119 8 -191.5 77.5t-72.5 194.5v417h82v-416q0 -99 57 -151t156 -52q50 0 91 16q-105 -95 -105 -178q0 -33 21 -53t58 -20q45 0 78 24
l21 -38q-43 -35 -120 -35q-58 0 -91.5 29t-33.5 80zM351 -101q0 52 40.5 103t106.5 107q62 51 62 155v416h82v-417q0 -133 -92 -209q-16 -13 -46.5 -35.5t-46.5 -35.5t-30 -31.5t-14 -34.5q0 -24 23 -24q12 0 26 8l19 -35q-27 -23 -69 -23q-61 0 -61 56z" />
    <glyph glyph-name="Ydieresis" unicode="&#x178;" horiz-adv-x="666" 
d="M244 263l-240 417h89l233 -412v-268h-82v263zM426 0h-82v267l233 413h85l-236 -412v-268zM338 431l133 249h86l-221 -394l-222 394h90zM241 717q-31 0 -55.5 23.5t-24.5 56.5t24.5 56.5t55.5 23.5q32 0 55.5 -23.5t23.5 -56.5t-23.5 -56.5t-55.5 -23.5zM434 717
q-31 0 -55.5 23.5t-24.5 56.5t24.5 56.5t55.5 23.5q32 0 55.5 -23.5t23.5 -56.5t-23.5 -56.5t-55.5 -23.5zM227 797q0 -6 4.5 -10t9.5 -4t9.5 4t4.5 10t-4.5 10t-9.5 4t-9.5 -4t-4.5 -10zM420 797q0 -6 4.5 -10t9.5 -4t9.5 4t4.5 10t-4.5 10t-9.5 4t-9.5 -4t-4.5 -10z" />
    <glyph glyph-name="Zacute" unicode="&#x179;" horiz-adv-x="613" 
d="M14 0q-9 0 -3 10l303 517h-252v68h377l-306 -527h436v-68h-555zM472 613h-410v67h529q9 0 3 -10l-303 -517h278v-67h-403zM391 722h-57l66 182h86zM258 722l40 182h84l-66 -182h-58z" />
    <glyph glyph-name="zacute" unicode="&#x17a;" horiz-adv-x="613" 
d="M14 0q-9 0 -3 10l303 517h-252v68h377l-306 -527h436v-68h-555zM472 613h-410v67h529q9 0 3 -10l-303 -517h278v-67h-403zM391 722h-57l66 182h86zM258 722l40 182h84l-66 -182h-58z" />
    <glyph glyph-name="Zdotaccent" unicode="&#x17b;" horiz-adv-x="613" 
d="M14 0q-9 0 -3 10l303 517h-252v68h377l-306 -527h436v-68h-555zM472 613h-410v67h529q9 0 3 -10l-303 -517h278v-67h-403zM321 717q-31 0 -55.5 23.5t-24.5 56.5t24.5 56.5t55.5 23.5q32 0 55.5 -23.5t23.5 -56.5t-23.5 -56.5t-55.5 -23.5zM307 797q0 -6 4.5 -10t9.5 -4
t9.5 4t4.5 10t-4.5 10t-9.5 4t-9.5 -4t-4.5 -10z" />
    <glyph glyph-name="zdotaccent" unicode="&#x17c;" horiz-adv-x="613" 
d="M14 0q-9 0 -3 10l303 517h-252v68h377l-306 -527h436v-68h-555zM472 613h-410v67h529q9 0 3 -10l-303 -517h278v-67h-403zM321 717q-31 0 -55.5 23.5t-24.5 56.5t24.5 56.5t55.5 23.5q32 0 55.5 -23.5t23.5 -56.5t-23.5 -56.5t-55.5 -23.5zM307 797q0 -6 4.5 -10t9.5 -4
t9.5 4t4.5 10t-4.5 10t-9.5 4t-9.5 -4t-4.5 -10z" />
    <glyph glyph-name="Zcaron" unicode="&#x17d;" horiz-adv-x="613" 
d="M14 0q-9 0 -3 10l303 517h-252v68h377l-306 -527h436v-68h-555zM472 613h-410v67h529q9 0 3 -10l-303 -517h278v-67h-403zM497 923l-172 -210q-5 -6 -9 0l-172 210h64l112 -134l114 134h63zM411 923l-91 -105l-90 105h61l29 -29l30 29h61z" />
    <glyph glyph-name="zcaron" unicode="&#x17e;" horiz-adv-x="613" 
d="M14 0q-9 0 -3 10l303 517h-252v68h377l-306 -527h436v-68h-555zM472 613h-410v67h529q9 0 3 -10l-303 -517h278v-67h-403zM497 923l-172 -210q-5 -6 -9 0l-172 210h64l112 -134l114 134h63zM411 923l-91 -105l-90 105h61l29 -29l30 29h61z" />
    <glyph glyph-name="florin" unicode="&#x192;" horiz-adv-x="450" 
d="M28 313v57h75l16 136q11 94 58.5 138t122.5 44q95 0 148 -61l-39 -45q-39 43 -97 43q-46 0 -77.5 -30.5t-39.5 -89.5l-22 -192h-145zM363 238h-104l-41 -362h-77l48 419h174v-57zM123 -124h-76l41 362h-60v57h143zM324 542q-30 0 -35 -41l-15 -131h89v-57h-172l22 190
q11 104 99 104q55 0 85 -38l-39 -44q-12 17 -34 17z" />
    <glyph glyph-name="Scommaaccent" unicode="&#x218;" horiz-adv-x="568" 
d="M286 -10q-187 0 -282 126l59 44q79 -103 219 -103q90 0 135.5 38t45.5 105q0 51 -30.5 84t-100.5 56l-85 29q-50 18 -76 45t-26 74q0 54 40 85t100 31q104 0 168 -68l-46 -48q-48 50 -117 50q-32 0 -49 -13t-17 -34q0 -19 11.5 -30t36.5 -20l90 -30q99 -33 140.5 -82
t41.5 -124q0 -99 -64 -157t-194 -58zM282 75q-130 0 -205 96l59 44q60 -74 142 -74q86 0 86 54q0 21 -15.5 33.5t-51.5 24.5l-80 27q-169 56 -169 205q0 96 67.5 149.5t164.5 53.5q149 0 231 -91l-45 -47q-68 72 -181 72q-68 0 -113 -35.5t-45 -98.5q0 -98 115 -136l85 -29
q61 -22 89 -50t28 -73q0 -59 -40.5 -92t-121.5 -33zM221 -267l24 74q-42 21 -42 71q0 33 24 55.5t56 22.5t55.5 -22t23.5 -55q0 -32 -35 -83l-43 -63h-63zM270 -124q0 -13 13 -13t13 13t-13 13t-13 -13z" />
    <glyph glyph-name="scommaaccent" unicode="&#x219;" horiz-adv-x="568" 
d="M286 -10q-187 0 -282 126l59 44q79 -103 219 -103q90 0 135.5 38t45.5 105q0 51 -30.5 84t-100.5 56l-85 29q-50 18 -76 45t-26 74q0 54 40 85t100 31q104 0 168 -68l-46 -48q-48 50 -117 50q-32 0 -49 -13t-17 -34q0 -19 11.5 -30t36.5 -20l90 -30q99 -33 140.5 -82
t41.5 -124q0 -99 -64 -157t-194 -58zM282 75q-130 0 -205 96l59 44q60 -74 142 -74q86 0 86 54q0 21 -15.5 33.5t-51.5 24.5l-80 27q-169 56 -169 205q0 96 67.5 149.5t164.5 53.5q149 0 231 -91l-45 -47q-68 72 -181 72q-68 0 -113 -35.5t-45 -98.5q0 -98 115 -136l85 -29
q61 -22 89 -50t28 -73q0 -59 -40.5 -92t-121.5 -33zM221 -267l24 74q-42 21 -42 71q0 33 24 55.5t56 22.5t55.5 -22t23.5 -55q0 -32 -35 -83l-43 -63h-63zM270 -124q0 -13 13 -13t13 13t-13 13t-13 -13z" />
    <glyph glyph-name="uni021A" unicode="&#x21a;" horiz-adv-x="588" 
d="M323 -119q0 19 -20 24v689h262v-67h-180v-527h-51v-31q36 -6 59.5 -31.5t23.5 -65.5q0 -42 -32.5 -68t-73.5 -26q-83 0 -119 57l68 45q13 -23 35 -23q28 0 28 24zM203 0v527h-180v67h262v-688h-31v94h-51zM565 680v-68h-542v68h542z" />
    <glyph glyph-name="uni021B" unicode="&#x21b;" horiz-adv-x="588" 
d="M323 -119q0 19 -20 24v689h262v-67h-180v-527h-51v-31q36 -6 59.5 -31.5t23.5 -65.5q0 -42 -32.5 -68t-73.5 -26q-83 0 -119 57l68 45q13 -23 35 -23q28 0 28 24zM203 0v527h-180v67h262v-688h-31v94h-51zM565 680v-68h-542v68h542z" />
    <glyph glyph-name="uni0237" unicode="&#x237;" horiz-adv-x="486" 
d="M432 680v-489q0 -96 -54.5 -148.5t-153.5 -52.5q-158 0 -218 113l63 40q44 -84 145 -84q65 0 100.5 35.5t35.5 103.5v482h82zM84 153l62 40q10 -17 14.5 -24t16.5 -15t26 -8q47 0 47 58v476h82v-482q0 -59 -31 -90t-87 -31q-91 0 -130 76z" />
    <glyph glyph-name="circumflex" unicode="&#x2c6;" horiz-adv-x="500" 
d="M73 722l172 210q5 6 9 0l172 -210h-64l-112 134l-114 -134h-63zM159 722l91 105l90 -105h-61l-29 29l-30 -29h-61z" />
    <glyph glyph-name="caron" unicode="&#x2c7;" horiz-adv-x="500" 
d="M427 923l-172 -210q-5 -6 -9 0l-172 210h64l112 -134l114 134h63zM341 923l-91 -105l-90 105h61l29 -29l30 29h61z" />
    <glyph glyph-name="breve" unicode="&#x2d8;" horiz-adv-x="500" 
d="M250 715q-73 0 -120.5 41t-54.5 104l57 4q5 -42 37 -68.5t81 -26.5t80 26.5t37 68.5l57 -4q-7 -63 -54 -104t-120 -41zM250 787q-41 0 -68 22t-32 56l59 3q5 -30 41 -30t41 30l57 -3q-5 -34 -31 -56t-67 -22z" />
    <glyph glyph-name="dotaccent" unicode="&#x2d9;" horiz-adv-x="500" 
d="M250 717q-31 0 -55.5 23.5t-24.5 56.5t24.5 56.5t55.5 23.5q32 0 55.5 -23.5t23.5 -56.5t-23.5 -56.5t-55.5 -23.5zM236 797q0 -6 4.5 -10t9.5 -4t9.5 4t4.5 10t-4.5 10t-9.5 4t-9.5 -4t-4.5 -10z" />
    <glyph glyph-name="ring" unicode="&#x2da;" horiz-adv-x="500" 
d="M250 726q-51 0 -83.5 32t-32.5 77t32.5 77t83.5 32t83.5 -32t32.5 -77t-32.5 -77t-83.5 -32zM250 792q18 0 30 11.5t12 31.5q0 19 -12 31t-30 12t-30 -12t-12 -31q0 -20 12 -31.5t30 -11.5z" />
    <glyph glyph-name="ogonek" unicode="&#x2db;" horiz-adv-x="500" 
d="M284 -223q-58 0 -92 26.5t-34 71.5q0 66 79 125h51q-65 -62 -65 -107q0 -31 21.5 -49.5t56.5 -18.5q50 0 82 25l19 -35q-41 -38 -118 -38zM241 -107q0 45 69 107h56q-33 -36 -46.5 -54.5t-13.5 -32.5q0 -20 23 -20q12 0 26 8l19 -35q-26 -24 -73 -24q-29 0 -44.5 13.5
t-15.5 37.5z" />
    <glyph glyph-name="tilde" unicode="&#x2dc;" horiz-adv-x="500" 
d="M196 832q-32 0 -55.5 -27t-32.5 -76l-51 6q10 76 47 116t83 40q29 0 66.5 -18t44.5 -18q12 0 17.5 7.5t10.5 25.5l50 -6q-7 -41 -26.5 -64t-42.5 -23q-20 0 -56.5 18.5t-54.5 18.5zM315 718q-29 0 -66.5 18t-44.5 18q-12 0 -17.5 -7.5t-10.5 -25.5l-50 6q7 41 26 64
t44 23q17 0 53.5 -18.5t57.5 -18.5q30 0 54.5 27.5t31.5 75.5l52 -6q-9 -74 -47 -115t-83 -41z" />
    <glyph glyph-name="hungarumlaut" unicode="&#x2dd;" horiz-adv-x="500" 
d="M220 722h-57l59 182h79zM87 722l40 182h77l-59 -182h-58zM424 722h-57l59 182h79zM291 722l40 182h77l-59 -182h-58z" />
    <glyph glyph-name="endash" unicode="&#x2013;" horiz-adv-x="406" 
d="M370 359v-64h-334v64h334zM36 214v63h334v-63h-334z" />
    <glyph glyph-name="emdash" unicode="&#x2014;" horiz-adv-x="706" 
d="M670 359v-64h-634v64h634zM36 214v63h634v-63h-634z" />
    <glyph glyph-name="quoteleft" unicode="&#x2018;" horiz-adv-x="254" 
d="M203 680l-33 -108q21 -8 34.5 -30t13.5 -50q0 -38 -26.5 -62t-62.5 -24q-39 0 -66 24t-27 62q0 37 35 94l58 94h74zM113 495q0 -6 4.5 -10t9.5 -4t9.5 4t4.5 10t-4.5 10t-9.5 4t-9.5 -4t-4.5 -10z" />
    <glyph glyph-name="quoteright" unicode="&#x2019;" horiz-adv-x="254" 
d="M51 414l33 108q-21 8 -34.5 30t-13.5 50q0 38 26.5 62t62.5 24q39 0 66 -24t27 -62q0 -37 -35 -94l-58 -94h-74zM113 599q0 -6 4.5 -10t9.5 -4t9.5 4t4.5 10t-4.5 10t-9.5 4t-9.5 -4t-4.5 -10z" />
    <glyph glyph-name="quotesinglbase" unicode="&#x201a;" horiz-adv-x="254" 
d="M51 -81l33 108q-21 8 -34.5 30t-13.5 50q0 38 26.5 62t62.5 24q39 0 66 -24t27 -62q0 -37 -35 -94l-58 -94h-74zM113 104q0 -6 4.5 -10t9.5 -4t9.5 4t4.5 10t-4.5 10t-9.5 4t-9.5 -4t-4.5 -10z" />
    <glyph glyph-name="quotedblleft" unicode="&#x201c;" horiz-adv-x="471" 
d="M203 680l-33 -108q21 -8 34.5 -30t13.5 -50q0 -38 -26.5 -62t-62.5 -24q-39 0 -66 24t-27 62q0 37 35 94l58 94h74zM420 680l-33 -108q21 -8 34.5 -30t13.5 -50q0 -38 -26.5 -62t-62.5 -24q-39 0 -66 24t-27 62q0 37 35 94l58 94h74zM113 495q0 -6 4.5 -10t9.5 -4t9.5 4
t4.5 10t-4.5 10t-9.5 4t-9.5 -4t-4.5 -10zM330 495q0 -6 4.5 -10t9.5 -4t9.5 4t4.5 10t-4.5 10t-9.5 4t-9.5 -4t-4.5 -10z" />
    <glyph glyph-name="quotedblright" unicode="&#x201d;" horiz-adv-x="471" 
d="M51 414l33 108q-21 8 -34.5 30t-13.5 50q0 38 26.5 62t62.5 24q39 0 66 -24t27 -62q0 -37 -35 -94l-58 -94h-74zM268 414l33 108q-21 8 -34.5 30t-13.5 50q0 38 26.5 62t62.5 24q39 0 66 -24t27 -62q0 -37 -35 -94l-58 -94h-74zM113 599q0 -6 4.5 -10t9.5 -4t9.5 4
t4.5 10t-4.5 10t-9.5 4t-9.5 -4t-4.5 -10zM330 599q0 -6 4.5 -10t9.5 -4t9.5 4t4.5 10t-4.5 10t-9.5 4t-9.5 -4t-4.5 -10z" />
    <glyph glyph-name="quotedblbase" unicode="&#x201e;" horiz-adv-x="471" 
d="M51 -81l33 108q-21 8 -34.5 30t-13.5 50q0 38 26.5 62t62.5 24q39 0 66 -24t27 -62q0 -37 -35 -94l-58 -94h-74zM268 -81l33 108q-21 8 -34.5 30t-13.5 50q0 38 26.5 62t62.5 24q39 0 66 -24t27 -62q0 -37 -35 -94l-58 -94h-74zM113 104q0 -6 4.5 -10t9.5 -4t9.5 4
t4.5 10t-4.5 10t-9.5 4t-9.5 -4t-4.5 -10zM330 104q0 -6 4.5 -10t9.5 -4t9.5 4t4.5 10t-4.5 10t-9.5 4t-9.5 -4t-4.5 -10z" />
    <glyph glyph-name="dagger" unicode="&#x2020;" horiz-adv-x="355" 
d="M260 234h-74v266h152v-64h-78v-202zM95 436h-78v64h151v-266h-73v202zM338 582v-64h-152v162h74v-98h78zM95 582v98h73v-162h-151v64h78z" />
    <glyph glyph-name="daggerdbl" unicode="&#x2021;" horiz-adv-x="355" 
d="M186 535h152v-64h-78v-28h78v-64h-152v156zM17 443h78v28h-78v64h151v-156h-151v64zM338 617v-64h-152v127h74v-63h78zM338 361v-64h-78v-63h-74v127h152zM95 617v63h73v-127h-151v64h78zM95 234v63h-78v64h151v-127h-73z" />
    <glyph glyph-name="bullet" unicode="&#x2022;" horiz-adv-x="316" 
d="M157 236q26 -1 45.5 17.5t19.5 45.5q1 27 -18 46t-45 19q-26 1 -45.5 -17.5t-19.5 -45.5q-1 -27 18 -46t45 -19zM157 254q-18 0 -32 14t-13 33q0 20 14 33t33 12q18 0 32 -14t13 -33q0 -19 -14.5 -32.5t-32.5 -12.5zM158 167q-53 0 -93 39t-40 94q0 56 39.5 94.5
t93.5 38.5t93.5 -38.5t39.5 -94.5q0 -55 -40 -94t-93 -39z" />
    <glyph glyph-name="ellipsis" unicode="&#x2026;" horiz-adv-x="718" 
d="M127 -7q-37 0 -64 25t-27 64t27 64t64 25t64 -25t27 -64t-27 -64t-64 -25zM113 82q0 -6 4.5 -10t9.5 -4t9.5 4t4.5 10t-4.5 10t-9.5 4t-9.5 -4t-4.5 -10zM359 -7q-37 0 -64 25t-27 64t27 64t64 25t64 -25t27 -64t-27 -64t-64 -25zM345 82q0 -6 4.5 -10t9.5 -4t9.5 4
t4.5 10t-4.5 10t-9.5 4t-9.5 -4t-4.5 -10zM591 -7q-37 0 -64 25t-27 64t27 64t64 25t64 -25t27 -64t-27 -64t-64 -25zM577 82q0 -6 4.5 -10t9.5 -4t9.5 4t4.5 10t-4.5 10t-9.5 4t-9.5 -4t-4.5 -10z" />
    <glyph glyph-name="perthousand" unicode="&#x2030;" horiz-adv-x="1176" 
d="M200 414q47 0 79.5 31.5t32.5 77.5q0 47 -32 78t-80 31t-80.5 -31t-32.5 -78q0 -46 33 -77.5t80 -31.5zM200 432q-40 0 -67.5 26t-27.5 65t27.5 65t67.5 26t67 -26t27 -65t-27 -65t-67 -26zM200 356q-73 0 -124.5 48.5t-51.5 118.5q0 71 51.5 118.5t124.5 47.5t124 -47.5
t51 -118.5q0 -70 -51 -118.5t-124 -48.5zM200 489q14 0 22.5 9t8.5 25q0 15 -8.5 24t-22.5 9t-23 -9t-9 -24q0 -16 9 -25t23 -9zM272 0h-74l429 680h74zM106 0l429 680h73l-429 -680h-73zM607 49q47 0 79.5 31.5t32.5 77.5q0 47 -32 78t-80 31t-80.5 -31t-32.5 -78
q0 -46 33 -77.5t80 -31.5zM607 67q-40 0 -67.5 26t-27.5 65t27.5 65t67.5 26t67 -26t27 -65t-27 -65t-67 -26zM607 -9q-73 0 -124.5 48.5t-51.5 118.5q0 71 51.5 118.5t124.5 47.5t124 -47.5t51 -118.5q0 -70 -51 -118.5t-124 -48.5zM607 124q14 0 22.5 9t8.5 25
q0 15 -8.5 24t-22.5 9t-23 -9t-9 -24q0 -16 9 -25t23 -9zM977 49q47 0 79.5 31.5t32.5 77.5q0 47 -32 78t-80 31t-80.5 -31t-32.5 -78q0 -46 33 -77.5t80 -31.5zM977 67q-40 0 -67.5 26t-27.5 65t27.5 65t67.5 26t67 -26t27 -65t-27 -65t-67 -26zM977 -9q-73 0 -124.5 48.5
t-51.5 118.5q0 71 51.5 118.5t124.5 47.5t124 -47.5t51 -118.5q0 -70 -51 -118.5t-124 -48.5zM977 124q14 0 22.5 9t8.5 25q0 15 -8.5 24t-22.5 9t-23 -9t-9 -24q0 -16 9 -25t23 -9z" />
    <glyph glyph-name="guilsinglleft" unicode="&#x2039;" horiz-adv-x="294" 
d="M101 69l-82 176q-1 4 0 8l82 174h79l-83 -178l83 -180h-79zM279 69h-79l-83 180l83 178h79l-83 -178z" />
    <glyph glyph-name="guilsinglright" unicode="&#x203a;" horiz-adv-x="294" 
d="M193 427l82 -176q1 -4 0 -8l-82 -174h-79l83 178l-83 180h79zM15 427h79l83 -180l-83 -178h-79l83 178z" />
    <glyph glyph-name="fraction" unicode="&#x2044;" horiz-adv-x="483" 
d="M121 0h-74l407 680h74zM-45 0l407 680h73l-407 -680h-73z" />
    <glyph glyph-name="Euro" unicode="&#x20ac;" horiz-adv-x="764" 
d="M690 193l63 -40q-50 -84 -122.5 -123t-175.5 -39q-117 0 -211.5 68.5t-127.5 180.5h-66v78h53q-1 14 -1 34h-52v78h63q29 115 122 186.5t210 71.5q195 0 293 -146l-60 -41q-78 117 -232 117q-111 0 -186.5 -79t-75.5 -199t77.5 -199.5t192.5 -79.5q84 0 141 32.5t95 99.5
zM454 79q-108 0 -180 74t-72 187q0 112 70.5 186t173.5 74q144 0 216 -109l-61 -42q-48 81 -154 81q-51 0 -89 -27t-58 -73h212v-78h-229q0 -27 1 -34h228v-78h-207q22 -42 60 -66.5t88 -24.5q110 0 160 94l62 -40q-70 -124 -221 -124z" />
    <glyph glyph-name="trademark" unicode="&#x2122;" horiz-adv-x="548" 
d="M252 452v227q0 13 11 2l115 -116l114 116q11 11 11 -2v-227h-77v66l-44 -45q-4 -3 -7 0l-45 45v-66h-78zM77 607h-58v73h196v-73h-56v-155h-82v155z" />
    <glyph glyph-name="summation" unicode="&#x2211;" horiz-adv-x="608" 
d="M355 347l-204 -279h424v-68h-553q-10 0 -2 10l243 333l-248 327q-8 10 2 10h540v-67h-408zM329 527l138 -172q3 -5 0 -10l-145 -192h253v-67h-386l191 262l-192 247h369v-68h-228z" />
    <glyph glyph-name="minus" unicode="&#x2212;" horiz-adv-x="423" 
d="M27 403h369v-66h-369v66zM396 254h-369v65h369v-65z" />
    <glyph glyph-name="fi" unicode="&#xfb01;" horiz-adv-x="860" 
d="M59 0v680h462v-68h-380v-612h-82zM488 389v-68h-329v273h362v-67h-280v-138h247zM241 0h-82v303h329v-67h-247v-236zM797 0h-82v680h82v-680zM615 0v680h82v-680h-82z" />
    <glyph glyph-name="fl" unicode="&#xfb02;" horiz-adv-x="1107" 
d="M59 0v680h462v-68h-380v-612h-82zM488 389v-68h-329v273h362v-67h-280v-138h247zM241 0h-82v303h329v-67h-247v-236zM611 0v680h82v-613h389v-67h-471zM1082 153v-68h-371v595h82v-527h289z" />
    <glyph glyph-name="space_uni0326" horiz-adv-x="500" 
d="M186 -267l24 74q-42 21 -42 71q0 33 24 55.5t56 22.5t55.5 -22t23.5 -55q0 -32 -35 -83l-43 -63h-63zM235 -124q0 -13 13 -13t13 13t-13 13t-13 -13z" />
    <glyph glyph-name="idotaccent" horiz-adv-x="308" 
d="M245 0h-82v680h82v-680zM63 0v680h82v-680h-82zM155 717q-31 0 -55.5 23.5t-24.5 56.5t24.5 56.5t55.5 23.5q32 0 55.5 -23.5t23.5 -56.5t-23.5 -56.5t-55.5 -23.5zM141 797q0 -6 4.5 -10t9.5 -4t9.5 4t4.5 10t-4.5 10t-9.5 4t-9.5 -4t-4.5 -10z" />
    <glyph glyph-name="G.alt" horiz-adv-x="741" 
d="M630 318h-237v61h321q1 -20 1 -39q0 -170 -89.5 -260t-244.5 -90q-150 0 -252.5 99t-102.5 251q0 151 102.5 249.5t249.5 98.5q97 0 172.5 -40.5t115.5 -112.5l-65 -39q-32 58 -89.5 90t-134.5 32q-116 0 -191.5 -78.5t-75.5 -199.5q0 -122 76.5 -201.5t195.5 -79.5
q118 0 182.5 66.5t65.5 192.5zM527 239h-134v61h219q-4 -108 -64 -165.5t-166 -57.5q-112 0 -183 74.5t-71 188.5q0 113 70 186.5t179 73.5q144 0 209 -114l-65 -39q-47 83 -146 83q-78 0 -120.5 -53t-42.5 -137t44.5 -139t125.5 -55q63 0 96.5 22t48.5 71z" />
    <glyph glyph-name="K.alt" horiz-adv-x="677" 
d="M241 680v-287l215 287h90l-252 -330l255 -350h-103l-205 285v-285h-82v680h82zM671 0h-101l-254 350l252 330h90l-250 -322zM59 0v680h82v-680h-82z" />
    <glyph glyph-name="M.alt" horiz-adv-x="830" 
d="M59 0v692q0 11 9 2l349 -337l345 337q3 3 6 2.5t3 -4.5v-692h-82v527l-273 -270l-275 270v-527h-82zM159 0v486l257 -252l255 252v-486h-82v311l-171 -171q-4 -4 -9 0l-168 171v-311h-82z" />
    <glyph glyph-name="Q.alt" 
d="M391 61q97 0 172 54l134 -133l-47 -47l-94 94q-79 -38 -165 -38q-150 0 -257.5 99t-107.5 250t107.5 249.5t257.5 98.5t257.5 -98.5t107.5 -249.5q0 -124 -82 -219l81 -81l-46 -46l-133 132q96 81 96 214q0 120 -80.5 199t-200.5 79t-200.5 -79t-80.5 -199t80.5 -199.5
t200.5 -79.5zM391 79q-113 0 -188 74t-75 187t75 186.5t188 73.5t188 -73.5t75 -186.5q0 -125 -91 -201l-131 131l48 47l72 -73q18 42 18 96q0 83 -48 136.5t-131 53.5t-131 -53.5t-48 -136.5q0 -89 47.5 -142.5t131.5 -53.5q23 0 46 5l-63 63l46 46l130 -130
q-70 -49 -159 -49z" />
    <glyph glyph-name="Q.alt1" 
d="M391 77q-115 0 -189 73.5t-74 189.5q0 113 75 186.5t188 73.5t188 -73.5t75 -186.5t-75 -188t-188 -75zM391 59q120 0 200.5 80t80.5 201q0 120 -80.5 199t-200.5 79t-200.5 -79t-80.5 -199q0 -75 32.5 -136.5t89.5 -98.5q-88 -1 -162 -98l-52 45q35 52 87 81
q-79 92 -79 207q0 151 107.5 249.5t257.5 98.5t257.5 -98.5t107.5 -249.5q0 -127 -74 -213t-197 -111q48 -43 100 -43q45 0 81 31l40 -50q-48 -46 -121 -46q-49 0 -87.5 21.5t-86.5 64.5q-10 9 -33.5 33t-38.5 36q23 -4 52 -4zM391 144q84 0 131.5 53.5t47.5 142.5
q0 83 -48 136.5t-131 53.5t-131 -53.5t-48 -136.5q0 -89 47.5 -142.5t131.5 -53.5zM138 -51l-55 47q70 92 147 92q29 0 55.5 -11.5t41 -24.5t38 -37t34.5 -34q52 -46 93.5 -68.5t92.5 -22.5q76 0 131 51l39 -49q-62 -66 -170 -66q-124 0 -229 97q-31 29 -45.5 41.5t-39.5 26
t-46 13.5q-48 0 -87 -55z" />
    <glyph glyph-name="AE.alt" horiz-adv-x="944" 
d="M165 157l186 424l160 -424h-346zM345 613l-265 -613h-76l301 680h412v-67h-372zM489 0l-33 82h-244l-35 -82h-78l59 139h361l27 -71h373v-68h-430zM461 338h311v-68h-206l48 -117h305v-67h-362zM364 595h353v-68h-253l41 -104h267v-67h-317zM341 386l-72 -172h135z" />
    <glyph glyph-name="Adieresis.alt" horiz-adv-x="681" 
d="M144 528q-31 0 -55.5 23.5t-24.5 56.5t24.5 56.5t55.5 23.5q32 0 55.5 -23.5t23.5 -56.5t-23.5 -56.5t-55.5 -23.5zM537 528q-31 0 -55.5 23.5t-24.5 56.5t24.5 56.5t55.5 23.5q32 0 55.5 -23.5t23.5 -56.5t-23.5 -56.5t-55.5 -23.5zM130 608q0 -6 4.5 -10t9.5 -4t9.5 4
t4.5 10t-4.5 10t-9.5 4t-9.5 -4t-4.5 -10zM523 608q0 -6 4.5 -10t9.5 -4t9.5 4t4.5 10t-4.5 10t-9.5 4t-9.5 -4t-4.5 -10zM337 553l-254 -553h-79l326 690q4 8 11 8t11 -8l325 -690h-84zM175 157l162 353l163 -353h-325zM486 0l-35 79h-233l-33 -79h-82l63 139h343l64 -139
h-87zM333 352l-57 -135h115z" />
    <glyph glyph-name="Aring.alt" horiz-adv-x="681" 
d="M175 157l162 353l163 -353h-325zM486 0l-35 79h-233l-33 -79h-82l63 139h343l64 -139h-87zM333 352l-57 -135h115zM340 636q18 0 30 11.5t12 31.5q0 19 -12 31t-30 12t-30 -12t-12 -31q0 -20 12 -31.5t30 -11.5zM337 553l-254 -553h-79l276 584q-56 30 -56 95
q0 45 32.5 77t83.5 32t83.5 -32t32.5 -77q0 -63 -55 -95l276 -584h-84z" />
    <glyph glyph-name="Gbreve.alt" horiz-adv-x="741" 
d="M630 318h-237v61h321q1 -20 1 -39q0 -170 -89.5 -260t-244.5 -90q-150 0 -252.5 99t-102.5 251q0 151 102.5 249.5t249.5 98.5q97 0 172.5 -40.5t115.5 -112.5l-65 -39q-32 58 -89.5 90t-134.5 32q-116 0 -191.5 -78.5t-75.5 -199.5q0 -122 76.5 -201.5t195.5 -79.5
q118 0 182.5 66.5t65.5 192.5zM527 239h-134v61h219q-4 -108 -64 -165.5t-166 -57.5q-112 0 -183 74.5t-71 188.5q0 113 70 186.5t179 73.5q144 0 209 -114l-65 -39q-47 83 -146 83q-78 0 -120.5 -53t-42.5 -137t44.5 -139t125.5 -55q63 0 96.5 22t48.5 71zM373 715
q-73 0 -120.5 41t-54.5 104l57 4q5 -42 37 -68.5t81 -26.5t80 26.5t37 68.5l57 -4q-7 -63 -54 -104t-120 -41zM373 787q-41 0 -68 22t-32 56l59 3q5 -30 41 -30t41 30l57 -3q-5 -34 -31 -56t-67 -22z" />
    <glyph glyph-name="Gcircumflex.alt" horiz-adv-x="741" 
d="M630 318h-237v61h321q1 -20 1 -39q0 -170 -89.5 -260t-244.5 -90q-150 0 -252.5 99t-102.5 251q0 151 102.5 249.5t249.5 98.5q97 0 172.5 -40.5t115.5 -112.5l-65 -39q-32 58 -89.5 90t-134.5 32q-116 0 -191.5 -78.5t-75.5 -199.5q0 -122 76.5 -201.5t195.5 -79.5
q118 0 182.5 66.5t65.5 192.5zM527 239h-134v61h219q-4 -108 -64 -165.5t-166 -57.5q-112 0 -183 74.5t-71 188.5q0 113 70 186.5t179 73.5q144 0 209 -114l-65 -39q-47 83 -146 83q-78 0 -120.5 -53t-42.5 -137t44.5 -139t125.5 -55q63 0 96.5 22t48.5 71zM195 722l172 210
q5 6 9 0l172 -210h-64l-112 134l-114 -134h-63zM281 722l91 105l90 -105h-61l-29 29l-30 -29h-61z" />
    <glyph glyph-name="Gcommaaccent.alt" horiz-adv-x="741" 
d="M630 318h-237v61h321q1 -20 1 -39q0 -170 -89.5 -260t-244.5 -90q-150 0 -252.5 99t-102.5 251q0 151 102.5 249.5t249.5 98.5q97 0 172.5 -40.5t115.5 -112.5l-65 -39q-32 58 -89.5 90t-134.5 32q-116 0 -191.5 -78.5t-75.5 -199.5q0 -122 76.5 -201.5t195.5 -79.5
q118 0 182.5 66.5t65.5 192.5zM527 239h-134v61h219q-4 -108 -64 -165.5t-166 -57.5q-112 0 -183 74.5t-71 188.5q0 113 70 186.5t179 73.5q144 0 209 -114l-65 -39q-47 83 -146 83q-78 0 -120.5 -53t-42.5 -137t44.5 -139t125.5 -55q63 0 96.5 22t48.5 71zM318 -267l24 74
q-42 21 -42 71q0 33 24 55.5t56 22.5t55.5 -22t23.5 -55q0 -32 -35 -83l-43 -63h-63zM367 -124q0 -13 13 -13t13 13t-13 13t-13 -13z" />
    <glyph glyph-name="Gdotaccent.alt" horiz-adv-x="741" 
d="M630 318h-237v61h321q1 -20 1 -39q0 -170 -89.5 -260t-244.5 -90q-150 0 -252.5 99t-102.5 251q0 151 102.5 249.5t249.5 98.5q97 0 172.5 -40.5t115.5 -112.5l-65 -39q-32 58 -89.5 90t-134.5 32q-116 0 -191.5 -78.5t-75.5 -199.5q0 -122 76.5 -201.5t195.5 -79.5
q118 0 182.5 66.5t65.5 192.5zM527 239h-134v61h219q-4 -108 -64 -165.5t-166 -57.5q-112 0 -183 74.5t-71 188.5q0 113 70 186.5t179 73.5q144 0 209 -114l-65 -39q-47 83 -146 83q-78 0 -120.5 -53t-42.5 -137t44.5 -139t125.5 -55q63 0 96.5 22t48.5 71zM377 717
q-31 0 -55.5 23.5t-24.5 56.5t24.5 56.5t55.5 23.5q32 0 55.5 -23.5t23.5 -56.5t-23.5 -56.5t-55.5 -23.5zM363 797q0 -6 4.5 -10t9.5 -4t9.5 4t4.5 10t-4.5 10t-9.5 4t-9.5 -4t-4.5 -10z" />
    <glyph glyph-name="Kcommaaccent.alt" horiz-adv-x="677" 
d="M241 680v-287l215 287h90l-252 -330l255 -350h-103l-205 285v-285h-82v680h82zM671 0h-101l-254 350l252 330h90l-250 -322zM59 0v680h82v-680h-82zM278 -267l24 74q-42 21 -42 71q0 33 24 55.5t56 22.5t55.5 -22t23.5 -55q0 -32 -35 -83l-43 -63h-63zM327 -124
q0 -13 13 -13t13 13t-13 13t-13 -13z" />
    <glyph glyph-name="Odieresis.alt" 
d="M391 -9q-150 0 -257.5 99t-107.5 250q0 110 61 196q-46 23 -46 72q0 33 24.5 56.5t55.5 23.5q24 0 44.5 -14.5t29.5 -38.5q89 53 196 53t196 -53q9 23 30 38t45 15q32 0 55.5 -23.5t23.5 -56.5q0 -50 -46 -73q61 -87 61 -195q0 -151 -107.5 -250t-257.5 -99zM391 61
q120 0 200.5 79.5t80.5 199.5t-80.5 199t-200.5 79t-200.5 -79t-80.5 -199t80.5 -199.5t200.5 -79.5zM391 79q-113 0 -188 74t-75 187t75 186.5t188 73.5t188 -73.5t75 -186.5t-75 -187t-188 -74zM391 149q83 0 131 54t48 137t-48 136.5t-131 53.5t-131 -53.5t-48 -136.5
t48 -137t131 -54zM107 608q0 -6 4.5 -10t9.5 -4t9.5 4t4.5 10t-4.5 10t-9.5 4t-9.5 -4t-4.5 -10zM648 608q0 -6 4.5 -10t9.5 -4t9.5 4t4.5 10t-4.5 10t-9.5 4t-9.5 -4t-4.5 -10z" />
    <glyph glyph-name="Udieresis.alt" horiz-adv-x="694" 
d="M347 531q-31 0 -55.5 23.5t-24.5 56.5t24.5 56.5t55.5 23.5q32 0 55.5 -23.5t23.5 -56.5t-23.5 -56.5t-55.5 -23.5zM347 347q-31 0 -55.5 23.5t-24.5 56.5t24.5 56.5t55.5 23.5q32 0 55.5 -23.5t23.5 -56.5t-23.5 -56.5t-55.5 -23.5zM347 -10q-133 0 -214 70t-81 203v417
h82v-416q0 -99 57 -151t156 -52t156 52t57 151v416h82v-417q0 -133 -81 -203t-214 -70zM347 79q-91 0 -143 47.5t-52 137.5v416h82v-415q0 -116 113 -116t113 116v415h82v-416q0 -90 -52 -137.5t-143 -47.5zM333 611q0 -6 4.5 -10t9.5 -4t9.5 4t4.5 10t-4.5 10t-9.5 4
t-9.5 -4t-4.5 -10zM333 427q0 -6 4.5 -10t9.5 -4t9.5 4t4.5 10t-4.5 10t-9.5 4t-9.5 -4t-4.5 -10z" />
    <glyph glyph-name="zero.alt" 
d="M391 61q120 0 200.5 79.5t80.5 199.5t-80.5 199t-200.5 79t-200.5 -79t-80.5 -199t80.5 -199.5t200.5 -79.5zM391 79q-113 0 -188 74t-75 187t75 186.5t188 73.5t188 -73.5t75 -186.5t-75 -187t-188 -74zM391 -9q-150 0 -257.5 99t-107.5 250t107.5 249.5t257.5 98.5
t257.5 -98.5t107.5 -249.5t-107.5 -250t-257.5 -99zM391 149q83 0 131 54t48 137t-48 136.5t-131 53.5t-131 -53.5t-48 -136.5t48 -137t131 -54z" />
    <glyph glyph-name="braceleft.alt" horiz-adv-x="414" 
d="M259 0q-60 0 -102 32.5t-42 101.5v81q0 53 -48 53h-40v144h40q48 0 48 53v81q0 69 42 101.5t102 32.5h121v-63h-92q-42 0 -69 -22t-27 -70v-80q0 -89 -107 -96v-19q107 -7 107 -95v-80q0 -48 27 -70t69 -22h92v-63h-121zM210 525q0 38 22 56t56 18h92v-63h-63
q-30 0 -30 -32v-79q0 -72 -68 -85q68 -13 68 -85v-79q0 -32 30 -32h63v-63h-92q-34 0 -56 18t-22 56v80q0 85 -88 105q88 18 88 105v80z" />
    <glyph glyph-name="braceright.alt" horiz-adv-x="414" 
d="M155 0h-121v63h92q42 0 69 22t27 70v80q0 88 107 95v19q-107 7 -107 96v80q0 48 -27 70t-69 22h-92v63h121q60 0 102 -32.5t42 -101.5v-81q0 -53 48 -53h40v-144h-40q-48 0 -48 -53v-81q0 -69 -42 -101.5t-102 -32.5zM204 525v-80q0 -87 88 -105q-88 -20 -88 -105v-80
q0 -38 -22 -56t-56 -18h-92v63h63q30 0 30 32v79q0 72 68 85q-68 13 -68 85v79q0 32 -30 32h-63v63h92q34 0 56 -18t22 -56z" />
    </font>
</defs>
</svg>
