<?xml version="1.0" encoding="iso-8859-1"?>
<svg version="1.1" xmlns="http://www.w3.org/2000/svg" xmlns:xlink="http://www.w3.org/1999/xlink" x="0" y="0"
	 viewBox="-243 -53 900 900" style="enable-background:new -243 -53 1200 1200;">
<style type="text/css">
    .st0{fill:#D5A150;}
    .st1{fill:#AD712C;}
    .st2{fill:#C98A2E;}
    .st3{fill:#674230;}
    .st4{fill:#7A5436;}
    .st5{fill:#F8B64C;}
    .st6{fill:#FFD15C;}
    .st7{fill:#FF7058;}
    .st8{fill:#F2F2F2;}
    .st9{fill:#40596B;}
    .st10{fill:#84DBFF;}
    .st11{fill:#54C0EB;}
    .flying-rocket{
        -webkit-animation-duration: 2s;
        animation-duration: 2s;
        -webkit-animation-delay: 6s;
        animation-delay: 6s;
        -webkit-animation-iteration-count: 1
        animation-iteration-count: 1
        -webkit-animation-timing-function: cubic-bezier(0, 0, 1, 1);
        animation-timing-function: cubic-bezier(0, 0, 1, 1);
        -webkit-animation-name: flyingRocket_Animation;
        animation-name: flyingRocket_Animation;
    }
    @keyframes flyingRocket_Animation{
        0%{
            -webkit-transform: translate(0px, 0px) rotate(0deg);
            transform: translate(0px, 0px) rotate(0deg);
            transform-box: fill-box;
            -webkit-transform-origin: 50% 50%;
            transform-origin: 50% 50%;
        }
        5%{
            -webkit-transform: translate(350px, 0px) rotate(45deg);
            transform: translate(350px, 0px) rotate(45deg);
            transform-box: fill-box;
            -webkit-transform-origin: 50% 50%;
            transform-origin: 50% 50%;
        }
        10%{
            -webkit-transform: translate(450px, 150px) rotate(90deg);
            transform: translate(450px, 150px) rotate(90deg);
            transform-box: fill-box;
            -webkit-transform-origin: 50% 50%;
            transform-origin: 50% 50%;
        }
        15%{
            -webkit-transform: translate(550px, 300px) rotate(135deg);
            transform: translate(550px, 300px) rotate(135deg);
            transform-box: fill-box;
            -webkit-transform-origin: 50% 50%;
            transform-origin: 50% 50%;
        }
        20%{
            -webkit-transform: translate(450px, 500px) rotate(180deg);
            transform: translate(450px, 500px) rotate(180deg);
            transform-box: fill-box;
            -webkit-transform-origin: 50% 50%;
            transform-origin: 50% 50%;
        }
        25%{
            -webkit-transform: translate(250px, 500px) rotate(225deg);
            transform: translate(250px, 500px) rotate(225deg);
            transform-box: fill-box;
            -webkit-transform-origin: 50% 50%;
            transform-origin: 50% 50%;
        }
        30%{
            -webkit-transform: translate(100px, 500px) rotate(270deg);
            transform: translate(100px, 500px) rotate(270deg);
            transform-box: fill-box;
            -webkit-transform-origin: 50% 50%;
            transform-origin: 50% 50%;
        }
        35%{
            -webkit-transform: translate(0px, 200px) rotate(315deg);
            transform: translate(0px, 200px) rotate(315deg);
            transform-box: fill-box;
            -webkit-transform-origin: 50% 50%;
            transform-origin: 50% 50%;
        }
        40%{
            -webkit-transform: translate(0px, 0px) rotate(360deg);
            transform: translate(0px, 0px) rotate(360deg);
            transform-box: fill-box;
            -webkit-transform-origin: 50% 50%;
            transform-origin: 50% 50%;
        }
        100%{
            -webkit-transform: translate(0, 0) rotate(0deg);
            transform: translate(0, 0) rotate(360deg);
            transform-box: fill-box;
            -webkit-transform-origin: 50% 50%;
            transform-origin: 50% 50%;
        }
    }
    @-webkit-keyframes flyingRocket_Animation{
        0%{
            -webkit-transform: translate(0px, 0px) rotate(0deg);
            transform: translate(0px, 0px) rotate(0deg);
            transform-box: fill-box;
            -webkit-transform-origin: 50% 50%;
            transform-origin: 50% 50%;
        }
        5%{
            -webkit-transform: translate(350px, 0px) rotate(45deg);
            transform: translate(350px, 0px) rotate(45deg);
            transform-box: fill-box;
            -webkit-transform-origin: 50% 50%;
            transform-origin: 50% 50%;
        }
        10%{
            -webkit-transform: translate(450px, 150px) rotate(90deg);
            transform: translate(450px, 150px) rotate(90deg);
            transform-box: fill-box;
            -webkit-transform-origin: 50% 50%;
            transform-origin: 50% 50%;
        }
        15%{
            -webkit-transform: translate(550px, 300px) rotate(135deg);
            transform: translate(550px, 300px) rotate(135deg);
            transform-box: fill-box;
            -webkit-transform-origin: 50% 50%;
            transform-origin: 50% 50%;
        }
        20%{
            -webkit-transform: translate(450px, 500px) rotate(180deg);
            transform: translate(450px, 500px) rotate(180deg);
            transform-box: fill-box;
            -webkit-transform-origin: 50% 50%;
            transform-origin: 50% 50%;
        }
        25%{
            -webkit-transform: translate(250px, 500px) rotate(225deg);
            transform: translate(250px, 500px) rotate(225deg);
            transform-box: fill-box;
            -webkit-transform-origin: 50% 50%;
            transform-origin: 50% 50%;
        }
        30%{
            -webkit-transform: translate(100px, 500px) rotate(270deg);
            transform: translate(100px, 500px) rotate(270deg);
            transform-box: fill-box;
            -webkit-transform-origin: 50% 50%;
            transform-origin: 50% 50%;
        }
        35%{
            -webkit-transform: translate(0px, 200px) rotate(315deg);
            transform: translate(0px, 200px) rotate(315deg);
            transform-box: fill-box;
            -webkit-transform-origin: 50% 50%;
            transform-origin: 50% 50%;
        }
        40%{
            -webkit-transform: translate(0px, 0px) rotate(360deg);
            transform: translate(0px, 0px) rotate(360deg);
            transform-box: fill-box;
            -webkit-transform-origin: 50% 50%;
            transform-origin: 50% 50%;
        }
        100%{
            -webkit-transform: translate(0, 0) rotate(0deg);
            transform: translate(0, 0) rotate(360deg);
            transform-box: fill-box;
            -webkit-transform-origin: 50% 50%;
            transform-origin: 50% 50%;
        }
    }
</style>
<g>
	<circle class="st0" cx="187.526" cy="381.254" r="200"/>
	<path class="st1" d="M311.93,224.658c27.165,34.148,43.403,77.377,43.403,124.403c0,110.457-89.543,200-200,200
		c-47.026,0-90.255-16.238-124.404-43.403c36.641,46.06,93.166,75.596,156.597,75.596c110.457,0,200-89.543,200-200
		C387.526,317.824,357.99,261.298,311.93,224.658z"/>
	<path class="st2" d="M96.552,294.754c-4.12,0-8.239-1.572-11.382-4.715c-17.259-17.259-17.259-45.342,0-62.601
		c8.361-8.361,19.476-12.965,31.301-12.965s22.94,4.604,31.301,12.965c6.286,6.287,6.286,16.478,0,22.765
		c-6.287,6.285-16.479,6.286-22.765,0c-2.28-2.28-5.312-3.536-8.536-3.536c-3.224,0-6.256,1.256-8.536,3.536
		c-4.707,4.707-4.707,12.366,0,17.073c6.287,6.286,6.287,16.478,0,22.764C104.791,293.183,100.671,294.754,96.552,294.754z"/>
	<circle class="st3" cx="116.468" cy="258.743" r="28.169"/>
	<path class="st4" d="M88.427,256.045c-0.01,0.109-0.019,0.216-0.029,0.325c-0.768,9.32,6.889,17.176,16.233,16.837
		c0.619-0.023,1.243-0.065,1.87-0.128c13.26-1.338,23.892-12.059,25.134-25.328c0.01-0.109,0.019-0.217,0.028-0.324
		c0.768-9.319-6.889-17.176-16.233-16.837c-0.619,0.023-1.243,0.065-1.87,0.128C100.302,232.055,89.67,242.776,88.427,256.045z"/>
	<path class="st2" d="M32.166,423.527c-4.12,0-8.239-1.572-11.382-4.715c-17.259-17.259-17.259-45.342,0-62.601
		c8.361-8.361,19.476-12.965,31.301-12.965s22.94,4.604,31.301,12.965c6.286,6.287,6.286,16.478,0,22.765
		c-6.287,6.285-16.479,6.286-22.765,0c-2.28-2.28-5.312-3.536-8.536-3.536c-3.224,0-6.256,1.256-8.536,3.536
		c-4.707,4.707-4.707,12.366,0,17.073c6.287,6.287,6.287,16.478,0,22.764C40.405,421.956,36.285,423.527,32.166,423.527z"/>
	<circle class="st3" cx="52.081" cy="387.516" r="28.169"/>
	<path class="st4" d="M24.041,384.818c-0.01,0.109-0.019,0.217-0.029,0.325c-0.768,9.32,6.889,17.176,16.233,16.837
		c0.619-0.023,1.243-0.065,1.87-0.128c13.26-1.338,23.892-12.059,25.134-25.328c0.01-0.109,0.019-0.216,0.028-0.324
		c0.768-9.319-6.889-17.176-16.233-16.837c-0.619,0.023-1.243,0.065-1.87,0.128C35.915,360.828,25.284,371.549,24.041,384.818z"/>
	<path class="st2" d="M88.504,504.01c-4.12,0-8.239-1.572-11.382-4.715c-17.259-17.259-17.259-45.342,0-62.601
		c8.361-8.361,19.476-12.965,31.301-12.965s22.94,4.604,31.301,12.965c6.286,6.287,6.286,16.478,0,22.765
		c-6.287,6.285-16.479,6.286-22.765,0c-2.28-2.28-5.312-3.536-8.536-3.536s-6.256,1.256-8.536,3.536
		c-4.707,4.707-4.707,12.366,0,17.073c6.287,6.286,6.287,16.478,0,22.764C96.743,502.439,92.623,504.01,88.504,504.01z"/>
	<circle class="st3" cx="108.419" cy="467.999" r="28.169"/>
	<path class="st4" d="M80.379,465.301c-0.01,0.109-0.019,0.217-0.029,0.325c-0.768,9.32,6.889,17.176,16.233,16.837
		c0.619-0.023,1.243-0.065,1.87-0.128c13.26-1.338,23.892-12.059,25.134-25.328c0.01-0.109,0.019-0.217,0.028-0.324
		c0.768-9.319-6.889-17.175-16.233-16.837c-0.619,0.023-1.243,0.065-1.87,0.128C92.254,441.31,81.622,452.032,80.379,465.301z"/>
	<path class="st2" d="M177.035,560.348c-4.12,0-8.239-1.572-11.382-4.715c-17.259-17.259-17.259-45.342,0-62.601
		c8.361-8.361,19.476-12.965,31.301-12.965s22.94,4.604,31.301,12.965c6.286,6.287,6.286,16.478,0,22.765
		c-6.287,6.285-16.479,6.286-22.765,0c-2.28-2.28-5.312-3.536-8.536-3.536c-3.224,0-6.256,1.256-8.536,3.536
		c-4.707,4.707-4.707,12.366,0,17.073c6.287,6.286,6.287,16.478,0,22.764C185.274,558.777,181.154,560.348,177.035,560.348z"/>
	<circle class="st3" cx="196.951" cy="524.337" r="28.169"/>
	<path class="st4" d="M168.91,521.639c-0.01,0.109-0.019,0.217-0.029,0.325c-0.768,9.32,6.889,17.176,16.233,16.837
		c0.619-0.023,1.243-0.065,1.87-0.128c13.26-1.338,23.892-12.059,25.134-25.328c0.01-0.109,0.019-0.217,0.028-0.324
		c0.768-9.319-6.889-17.175-16.233-16.837c-0.619,0.023-1.243,0.065-1.87,0.128C180.785,497.648,170.153,508.37,168.91,521.639z"/>
	<path class="st2" d="M193.132,335.105c-4.12,0-8.239-1.572-11.382-4.715c-17.259-17.259-17.259-45.342,0-62.601
		c8.361-8.361,19.476-12.965,31.301-12.965s22.94,4.604,31.301,12.965c6.286,6.287,6.286,16.478,0,22.765
		c-6.287,6.285-16.479,6.286-22.765,0c-2.28-2.28-5.312-3.536-8.536-3.536c-3.224,0-6.256,1.256-8.536,3.536
		c-4.707,4.707-4.707,12.366,0,17.073c6.287,6.287,6.287,16.478,0,22.764C201.371,333.534,197.251,335.105,193.132,335.105z"/>
	<circle class="st3" cx="213.047" cy="299.089" r="28.169"/>
	<path class="st4" d="M185.007,296.396c-0.01,0.109-0.019,0.216-0.029,0.325c-0.768,9.32,6.889,17.176,16.233,16.837
		c0.619-0.023,1.243-0.065,1.87-0.128c13.26-1.338,23.892-12.059,25.134-25.328c0.01-0.109,0.019-0.216,0.028-0.324
		c0.768-9.319-6.889-17.176-16.233-16.837c-0.619,0.023-1.243,0.065-1.87,0.128C196.881,272.406,186.249,283.127,185.007,296.396z"
		/>
	<path class="st2" d="M289.711,479.865c-4.12,0-8.239-1.572-11.382-4.715c-17.259-17.259-17.259-45.342,0-62.601
		c8.361-8.361,19.476-12.965,31.301-12.965c11.825,0,22.94,4.604,31.301,12.965c6.286,6.287,6.286,16.478,0,22.765
		c-6.287,6.285-16.479,6.286-22.765,0c-2.28-2.28-5.312-3.536-8.536-3.536c-3.224,0-6.256,1.256-8.536,3.536
		c-4.707,4.707-4.707,12.366,0,17.073c6.286,6.287,6.286,16.478,0,22.764C297.95,478.294,293.83,479.865,289.711,479.865z"/>
	<circle class="st3" cx="309.627" cy="443.854" r="28.169"/>
	<path class="st4" d="M281.586,441.156c-0.01,0.109-0.019,0.217-0.028,0.325c-0.768,9.32,6.889,17.176,16.233,16.837
		c0.619-0.023,1.243-0.065,1.87-0.128c13.26-1.338,23.892-12.059,25.134-25.328c0.01-0.109,0.019-0.216,0.028-0.324
		c0.768-9.319-6.889-17.175-16.233-16.837c-0.619,0.023-1.243,0.065-1.87,0.128C293.461,417.166,282.829,427.887,281.586,441.156z"
		/>
	<path class="st2" d="M281.663,326.947c-4.12,0-8.239-1.572-11.382-4.715c-17.259-17.259-17.259-45.342,0-62.601
		c8.361-8.361,19.476-12.965,31.301-12.965s22.94,4.604,31.301,12.965c6.286,6.287,6.286,16.478,0,22.765
		c-6.287,6.285-16.479,6.286-22.765,0c-2.28-2.28-5.312-3.536-8.536-3.536s-6.256,1.256-8.536,3.536
		c-4.707,4.707-4.707,12.366,0,17.073c6.287,6.287,6.287,16.478,0,22.764C289.902,325.376,285.782,326.947,281.663,326.947z"/>
	<circle class="st3" cx="301.578" cy="290.936" r="28.169"/>
	<path class="st4" d="M273.538,288.238c-0.01,0.109-0.019,0.216-0.028,0.325c-0.768,9.32,6.889,17.176,16.233,16.837
		c0.619-0.023,1.243-0.065,1.87-0.128c13.26-1.338,23.892-12.059,25.134-25.328c0.01-0.109,0.019-0.216,0.028-0.324
		c0.768-9.319-6.889-17.176-16.233-16.837c-0.619,0.023-1.243,0.065-1.87,0.128C285.412,264.248,274.781,274.969,273.538,288.238z"
		/>
	<path class="st2" d="M160.938,423.527c-4.12,0-8.239-1.572-11.382-4.715c-17.259-17.259-17.259-45.342,0-62.601
		c8.361-8.361,19.476-12.965,31.301-12.965c11.825,0,22.94,4.604,31.301,12.965c6.286,6.287,6.286,16.478,0,22.765
		c-6.287,6.285-16.479,6.286-22.765,0c-2.28-2.28-5.312-3.536-8.536-3.536c-3.224,0-6.256,1.256-8.536,3.536
		c-4.707,4.707-4.707,12.366,0,17.073c6.287,6.287,6.287,16.478,0,22.764C169.177,421.956,165.058,423.527,160.938,423.527z"/>
	<circle class="st3" cx="180.854" cy="387.516" r="28.169"/>
	<path class="st4" d="M152.814,384.818c-0.01,0.109-0.019,0.217-0.029,0.325c-0.768,9.32,6.889,17.176,16.233,16.837
		c0.619-0.023,1.243-0.065,1.87-0.128c13.26-1.338,23.892-12.059,25.134-25.328c0.01-0.109,0.019-0.216,0.028-0.324
		c0.768-9.319-6.889-17.176-16.233-16.837c-0.619,0.023-1.243,0.065-1.87,0.128C164.688,360.828,154.056,371.549,152.814,384.818z"
		/>
	<g>
		<circle class="st1" cx="88.934" cy="411.435" r="6.036"/>
		<circle class="st1" cx="129.176" cy="411.435" r="6.036"/>
		<circle class="st1" cx="109.055" cy="375.218" r="6.036"/>
		<circle class="st1" cx="36.621" cy="447.652" r="6.036"/>
		<circle class="st1" cx="117.103" cy="536.184" r="6.036"/>
		<circle class="st1" cx="141.248" cy="503.991" r="6.036"/>
		<circle class="st1" cx="181.49" cy="455.701" r="6.036"/>
		<circle class="st1" cx="245.876" cy="431.556" r="6.036"/>
		<circle class="st1" cx="229.779" cy="447.652" r="6.036"/>
		<circle class="st1" cx="253.924" cy="471.797" r="6.036"/>
		<circle class="st1" cx="253.924" cy="520.087" r="6.036"/>
		<circle class="st1" cx="342.456" cy="351.073" r="6.036"/>
		<circle class="st1" cx="318.311" cy="512.039" r="6.036"/>
		<circle class="st1" cx="197.586" cy="206.204" r="6.036"/>
		<circle class="st1" cx="52.717" cy="278.638" r="6.036"/>
		<circle class="st1" cx="20.524" cy="326.928" r="6.036"/>
		<circle class="st1" cx="113.079" cy="339.001" r="6.036"/>
		<circle class="st1" cx="137.224" cy="326.928" r="6.036"/>
		<circle class="st1" cx="113.079" cy="314.856" r="6.036"/>
		<circle class="st1" cx="225.755" cy="375.218" r="6.036"/>
		<circle class="st1" cx="173.441" cy="254.494" r="6.036"/>
		<circle class="st1" cx="249.9" cy="326.928" r="6.036"/>
		<circle class="st1" cx="261.973" cy="363.145" r="6.036"/>
		<circle class="st1" cx="286.118" cy="363.145" r="6.036"/>
		<circle class="st1" cx="286.118" cy="387.29" r="6.036"/>
		<circle class="st1" cx="241.852" cy="242.421" r="6.036"/>
		<circle class="st1" cx="265.997" cy="230.349" r="6.036"/>
	</g>
</g>
<g class="flying-rocket">
	<path class="st5" d="M-101.712,176.264l17.719-0.479l-0.479,17.719c-0.479,28.733-24.423,52.198-53.156,53.156l-17.719,0.479
		l0.479-17.719C-153.91,200.687-130.445,176.743-101.712,176.264z"/>
	<path class="st6" d="M-106.501,185.841l12.451-0.479l-0.479,12.451c-0.479,20.592-17.719,37.832-38.31,38.31l-12.451,0.479
		l0.479-12.451C-144.332,203.56-127.093,186.32-106.501,185.841z"/>
	<path class="st7" d="M-173.544,174.827c2.394-4.31,5.747-8.141,9.099-11.493c8.62-8.62,19.155-14.366,30.648-17.24
		c21.55-5.268,45.494,0.479,62.255,17.24s22.507,40.705,17.24,62.255c-2.873,11.014-8.62,22.029-17.24,30.648
		c-3.352,3.352-7.662,6.704-11.493,9.099c24.902,0.958,50.761-8.141,69.917-27.296c15.324-15.324,23.944-34.001,26.817-53.635
		c3.831-28.254-5.268-57.466-26.817-79.015s-51.24-30.648-79.015-26.817c-19.634,2.873-38.789,11.493-53.635,26.817
		C-165.403,124.066-174.502,149.925-173.544,174.827z"/>
	<path class="st8" d="M-132.36,175.306C-118.952,93.417-48.556,33.078,38.6,35.473l17.24,0.479l0.479,17.24
		c2.394,87.156-57.945,157.552-139.833,170.96L-132.36,175.306z"/>
	<g>
		<path class="st9" d="M-46.162,213.616c-11.972,4.789-24.423,8.141-37.353,10.535l-48.367-48.367
			c1.916-12.93,5.747-25.381,10.535-37.353L-46.162,213.616z"/>
		<path class="st9" d="M-18.387,43.135c17.719-5.268,36.874-8.141,56.987-7.662l17.24,0.479l0.479,17.24
			c0.479,20.113-2.394,39.268-7.662,56.987L-18.387,43.135z"/>
	</g>
	<path class="st8" d="M-83.515,224.152c-4.789,0.958-10.056,1.437-14.845,1.916l-35.437-35.437
		c0.479-5.268,0.958-10.057,1.916-14.845L-83.515,224.152z"/>
	
		<ellipse transform="matrix(0.7071 -0.7071 0.7071 0.7071 -88.6445 17.1724)" class="st9" cx="-23.593" cy="115.59" rx="36.873" ry="36.873"/>
	
		<ellipse transform="matrix(0.7071 -0.7071 0.7071 0.7071 -88.6445 17.1724)" class="st10" cx="-23.593" cy="115.59" rx="25.859" ry="25.859"/>
	<path class="st11" d="M-7.372,102.995c-9.099-9.099-23.465-9.099-32.564,0c-8.62,8.62-9.099,22.507-0.958,31.606
		c-0.479-0.479-0.958-0.479-0.958-0.958c-10.056-10.056-10.056-26.338,0-36.395s26.338-10.057,36.395,0s10.056,26.338,0,36.395
		c-0.479,0.479-0.958,0.479-0.958,0.958C1.247,125.502,1.247,111.615-7.372,102.995z"/>
</g>
</svg>
